G04*
G04 #@! TF.GenerationSoftware,Altium Limited,Altium Designer,18.1.7 (191)*
G04*
G04 Layer_Color=16777215*
%FSLAX44Y44*%
%MOMM*%
G71*
G01*
G75*
%ADD10C,0.2000*%
%ADD13C,0.2540*%
%ADD89C,0.2539*%
%ADD90C,0.5080*%
D10*
X790000Y-375080D02*
X978295D01*
X975082Y-308646D02*
X978488Y-305240D01*
X790000Y-308646D02*
X975082D01*
X978295Y-245046D02*
X978488Y-245240D01*
X790000Y-245046D02*
X978295D01*
X790000Y-181640D02*
X978295D01*
X604200Y-245240D02*
Y-181640D01*
X444200Y-308840D02*
Y-245240D01*
X978488Y-375080D02*
Y-181446D01*
X-103399Y-248590D02*
X-101228Y-375080D01*
X-103399Y-248590D02*
Y-181736D01*
D13*
X77742Y-225240D02*
X64200D01*
X77742Y-211698D01*
Y-208312D01*
X74357Y-204927D01*
X67586D01*
X64200Y-208312D01*
X84513D02*
X87899Y-204927D01*
X94670D01*
X98056Y-208312D01*
Y-211698D01*
X94670Y-215083D01*
X98056Y-218469D01*
Y-221854D01*
X94670Y-225240D01*
X87899D01*
X84513Y-221854D01*
Y-218469D01*
X87899Y-215083D01*
X84513Y-211698D01*
Y-208312D01*
X87899Y-215083D02*
X94670D01*
X104827Y-225240D02*
Y-204927D01*
X114984D01*
X118369Y-208312D01*
Y-215083D01*
X114984Y-218469D01*
X104827D01*
X125140Y-225240D02*
X131911D01*
X128526D01*
Y-211698D01*
X125140D01*
X142068Y-225240D02*
Y-211698D01*
X152225D01*
X155610Y-215083D01*
Y-225240D01*
X162382D02*
X172538D01*
X175924Y-221854D01*
X172538Y-218469D01*
X165767D01*
X162382Y-215083D01*
X165767Y-211698D01*
X175924D01*
X540000Y-264927D02*
Y-285240D01*
X550157D01*
X553542Y-281854D01*
Y-268312D01*
X550157Y-264927D01*
X540000D01*
X570470Y-285240D02*
X563699D01*
X560313Y-281854D01*
Y-275083D01*
X563699Y-271698D01*
X570470D01*
X573856Y-275083D01*
Y-278469D01*
X560313D01*
X580627Y-285240D02*
X590784D01*
X594169Y-281854D01*
X590784Y-278469D01*
X584012D01*
X580627Y-275083D01*
X584012Y-271698D01*
X594169D01*
X600940Y-285240D02*
X607711D01*
X604326D01*
Y-271698D01*
X600940D01*
X624639Y-292011D02*
X628025D01*
X631410Y-288626D01*
Y-271698D01*
X621254D01*
X617868Y-275083D01*
Y-281854D01*
X621254Y-285240D01*
X631410D01*
X638182D02*
Y-271698D01*
X648338D01*
X651724Y-275083D01*
Y-285240D01*
X668652D02*
X661880D01*
X658495Y-281854D01*
Y-275083D01*
X661880Y-271698D01*
X668652D01*
X672037Y-275083D01*
Y-278469D01*
X658495D01*
X692351Y-264927D02*
Y-285240D01*
X682194D01*
X678808Y-281854D01*
Y-275083D01*
X682194Y-271698D01*
X692351D01*
X719435Y-264927D02*
Y-285240D01*
X729592D01*
X732978Y-281854D01*
Y-278469D01*
Y-275083D01*
X729592Y-271698D01*
X719435D01*
X739749D02*
Y-281854D01*
X743134Y-285240D01*
X753291D01*
Y-288626D01*
X749905Y-292011D01*
X746520D01*
X753291Y-285240D02*
Y-271698D01*
X793918Y-268312D02*
X790532Y-264927D01*
X783761D01*
X780376Y-268312D01*
Y-271698D01*
X783761Y-275083D01*
X790532D01*
X793918Y-278469D01*
Y-281854D01*
X790532Y-285240D01*
X783761D01*
X780376Y-281854D01*
X800689Y-271698D02*
Y-281854D01*
X804074Y-285240D01*
X814231D01*
Y-271698D01*
X834545Y-264927D02*
Y-285240D01*
X824388D01*
X821002Y-281854D01*
Y-275083D01*
X824388Y-271698D01*
X834545D01*
X841316Y-264927D02*
Y-285240D01*
Y-275083D01*
X844701Y-271698D01*
X851472D01*
X854858Y-275083D01*
Y-285240D01*
X865015Y-271698D02*
X871786D01*
X875172Y-275083D01*
Y-285240D01*
X865015D01*
X861629Y-281854D01*
X865015Y-278469D01*
X875172D01*
X881943Y-285240D02*
Y-271698D01*
X892099D01*
X895485Y-275083D01*
Y-285240D01*
X902256D02*
X912413D01*
X915798Y-281854D01*
X912413Y-278469D01*
X905642D01*
X902256Y-275083D01*
X905642Y-271698D01*
X915798D01*
X922570Y-264927D02*
Y-285240D01*
Y-275083D01*
X925955Y-271698D01*
X932726D01*
X936112Y-275083D01*
Y-285240D01*
X942883Y-271698D02*
Y-281854D01*
X946268Y-285240D01*
X956425D01*
Y-271698D01*
X-12258Y-328312D02*
X-15643Y-324927D01*
X-22414D01*
X-25800Y-328312D01*
Y-341854D01*
X-22414Y-345240D01*
X-15643D01*
X-12258Y-341854D01*
X-2101Y-345240D02*
X4670D01*
X8056Y-341854D01*
Y-335083D01*
X4670Y-331698D01*
X-2101D01*
X-5487Y-335083D01*
Y-341854D01*
X-2101Y-345240D01*
X14827D02*
Y-331698D01*
X24984D01*
X28369Y-335083D01*
Y-345240D01*
X38526Y-328312D02*
Y-331698D01*
X35140D01*
X41911D01*
X38526D01*
Y-341854D01*
X41911Y-345240D01*
X55454Y-331698D02*
X62225D01*
X65610Y-335083D01*
Y-345240D01*
X55454D01*
X52068Y-341854D01*
X55454Y-338469D01*
X65610D01*
X85924Y-331698D02*
X75767D01*
X72382Y-335083D01*
Y-341854D01*
X75767Y-345240D01*
X85924D01*
X96081Y-328312D02*
Y-331698D01*
X92695D01*
X99466D01*
X96081D01*
Y-341854D01*
X99466Y-345240D01*
X109623Y-331698D02*
X113008D01*
Y-335083D01*
X109623D01*
Y-331698D01*
Y-341854D02*
X113008D01*
Y-345240D01*
X109623D01*
Y-341854D01*
X146864Y-345240D02*
Y-324927D01*
Y-338469D02*
X157021Y-331698D01*
X146864Y-338469D02*
X157021Y-345240D01*
X167178D02*
X173949D01*
X170563D01*
Y-331698D01*
X167178D01*
X184105Y-345240D02*
Y-331698D01*
X187491D01*
X190877Y-335083D01*
Y-345240D01*
Y-335083D01*
X194262Y-331698D01*
X197648Y-335083D01*
Y-345240D01*
X204419Y-324927D02*
Y-345240D01*
Y-335083D01*
X207804Y-331698D01*
X214576D01*
X217961Y-335083D01*
Y-345240D01*
X234889D02*
X228118D01*
X224732Y-341854D01*
Y-335083D01*
X228118Y-331698D01*
X234889D01*
X238274Y-335083D01*
Y-338469D01*
X224732D01*
X255202Y-345240D02*
X248431D01*
X245046Y-341854D01*
Y-335083D01*
X248431Y-331698D01*
X255202D01*
X258588Y-335083D01*
Y-338469D01*
X245046D01*
X265359Y-345240D02*
Y-331698D01*
X275516D01*
X278901Y-335083D01*
Y-345240D01*
X285672D02*
X292444D01*
X289058D01*
Y-331698D01*
X285672D01*
X302600Y-345240D02*
Y-331698D01*
X305986D01*
X309371Y-335083D01*
Y-345240D01*
Y-335083D01*
X312757Y-331698D01*
X316143Y-335083D01*
Y-345240D01*
X322914D02*
Y-341854D01*
X326299D01*
Y-345240D01*
X322914D01*
X343227D02*
Y-328312D01*
Y-335083D01*
X339842D01*
X346613D01*
X343227D01*
Y-328312D01*
X346613Y-324927D01*
X360155Y-331698D02*
X366926D01*
X370312Y-335083D01*
Y-345240D01*
X360155D01*
X356769Y-341854D01*
X360155Y-338469D01*
X370312D01*
X377083Y-345240D02*
Y-331698D01*
X387240D01*
X390625Y-335083D01*
Y-345240D01*
X407553Y-338469D02*
Y-335083D01*
X404168D01*
Y-338469D01*
X407553D01*
X410939Y-335083D01*
Y-328312D01*
X407553Y-324927D01*
X400782D01*
X397396Y-328312D01*
Y-341854D01*
X400782Y-345240D01*
X410939D01*
X424481Y-352011D02*
X427867D01*
X431252Y-348626D01*
Y-331698D01*
X421095D01*
X417710Y-335083D01*
Y-341854D01*
X421095Y-345240D01*
X431252D01*
X438023D02*
Y-331698D01*
X441409D01*
X444794Y-335083D01*
Y-345240D01*
Y-335083D01*
X448180Y-331698D01*
X451566Y-335083D01*
Y-345240D01*
X461722Y-331698D02*
X468493D01*
X471879Y-335083D01*
Y-345240D01*
X461722D01*
X458337Y-341854D01*
X461722Y-338469D01*
X471879D01*
X478650Y-345240D02*
X485421D01*
X482036D01*
Y-331698D01*
X478650D01*
X495578Y-345240D02*
X502349D01*
X498963D01*
Y-324927D01*
X495578D01*
X512506Y-345240D02*
Y-341854D01*
X515891D01*
Y-345240D01*
X512506D01*
X542976Y-331698D02*
X532819D01*
X529434Y-335083D01*
Y-341854D01*
X532819Y-345240D01*
X542976D01*
X553133D02*
X559904D01*
X563289Y-341854D01*
Y-335083D01*
X559904Y-331698D01*
X553133D01*
X549747Y-335083D01*
Y-341854D01*
X553133Y-345240D01*
X570060D02*
Y-331698D01*
X573446D01*
X576832Y-335083D01*
Y-345240D01*
Y-335083D01*
X580217Y-331698D01*
X583603Y-335083D01*
Y-345240D01*
X-32258Y-268312D02*
X-35643Y-264927D01*
X-42414D01*
X-45800Y-268312D01*
Y-281854D01*
X-42414Y-285240D01*
X-35643D01*
X-32258Y-281854D01*
X-22101Y-285240D02*
X-15330D01*
X-11944Y-281854D01*
Y-275083D01*
X-15330Y-271698D01*
X-22101D01*
X-25487Y-275083D01*
Y-281854D01*
X-22101Y-285240D01*
X-5173Y-292011D02*
Y-271698D01*
X4984D01*
X8369Y-275083D01*
Y-281854D01*
X4984Y-285240D01*
X-5173D01*
X15140Y-271698D02*
Y-281854D01*
X18526Y-285240D01*
X28683D01*
Y-288626D01*
X25297Y-292011D01*
X21911D01*
X28683Y-285240D02*
Y-271698D01*
X35454D02*
Y-285240D01*
Y-278469D01*
X38839Y-275083D01*
X42225Y-271698D01*
X45610D01*
X55767Y-285240D02*
X62538D01*
X59153D01*
Y-271698D01*
X55767D01*
X79466Y-292011D02*
X82852D01*
X86237Y-288626D01*
Y-271698D01*
X76080D01*
X72695Y-275083D01*
Y-281854D01*
X76080Y-285240D01*
X86237D01*
X93008Y-264927D02*
Y-285240D01*
Y-275083D01*
X96394Y-271698D01*
X103165D01*
X106551Y-275083D01*
Y-285240D01*
X116707Y-268312D02*
Y-271698D01*
X113322D01*
X120093D01*
X116707D01*
Y-281854D01*
X120093Y-285240D01*
X164105D02*
X150563D01*
X164105Y-271698D01*
Y-268312D01*
X160720Y-264927D01*
X153949D01*
X150563Y-268312D01*
X170877D02*
X174262Y-264927D01*
X181033D01*
X184419Y-268312D01*
Y-281854D01*
X181033Y-285240D01*
X174262D01*
X170877Y-281854D01*
Y-268312D01*
X191190Y-285240D02*
X197961D01*
X194576D01*
Y-264927D01*
X191190Y-268312D01*
X221660Y-264927D02*
X208118D01*
Y-275083D01*
X214889Y-271698D01*
X218274D01*
X221660Y-275083D01*
Y-281854D01*
X218274Y-285240D01*
X211503D01*
X208118Y-281854D01*
X262287Y-264927D02*
X248745D01*
Y-275083D01*
X255516D01*
X248745D01*
Y-285240D01*
X282600Y-264927D02*
X269058D01*
Y-285240D01*
X282600D01*
X269058Y-275083D02*
X275829D01*
X289371Y-264927D02*
Y-285240D01*
X299528D01*
X302914Y-281854D01*
Y-268312D01*
X299528Y-264927D01*
X289371D01*
X323227D02*
X309685D01*
Y-285240D01*
X323227D01*
X309685Y-275083D02*
X316456D01*
X329998Y-264927D02*
Y-278469D01*
X336769Y-285240D01*
X343541Y-278469D01*
Y-264927D01*
X363854D02*
X350312D01*
Y-285240D01*
X363854D01*
X350312Y-275083D02*
X357083D01*
X370625Y-264927D02*
Y-285240D01*
X384168D01*
X664200Y-204927D02*
Y-218469D01*
X670971Y-225240D01*
X677742Y-218469D01*
Y-204927D01*
X684513Y-225240D02*
X691285D01*
X687899D01*
Y-204927D01*
X684513Y-208312D01*
X701441Y-204927D02*
X708212D01*
X704827D01*
Y-225240D01*
X701441D01*
X708212D01*
X718369D02*
X725140D01*
X721755D01*
Y-204927D01*
X718369Y-208312D01*
D89*
X-99055Y-308646D02*
X790000D01*
X-101888Y-181446D02*
X790000D01*
X-98743Y-245046D02*
X790000D01*
X-99716Y-374790D02*
X790000D01*
D90*
X1000000Y881426D02*
X1015235D01*
X1045705Y870000D02*
Y892853D01*
X1057132D01*
X1060940Y889044D01*
Y881426D01*
X1057132Y877617D01*
X1045705D01*
X1068558Y892853D02*
Y870000D01*
X1083793D01*
X1091410D02*
Y885235D01*
X1099028Y892853D01*
X1106646Y885235D01*
Y870000D01*
Y881426D01*
X1091410D01*
X1129498Y889044D02*
X1125689Y892853D01*
X1118072D01*
X1114263Y889044D01*
Y873809D01*
X1118072Y870000D01*
X1125689D01*
X1129498Y873809D01*
X1152351Y892853D02*
X1137116D01*
Y870000D01*
X1152351D01*
X1137116Y881426D02*
X1144733D01*
X1194247Y892853D02*
X1186630D01*
X1182821Y889044D01*
Y873809D01*
X1186630Y870000D01*
X1194247D01*
X1198056Y873809D01*
Y889044D01*
X1194247Y892853D01*
X1205674Y870000D02*
Y892853D01*
X1220909Y870000D01*
Y892853D01*
X1243761D02*
X1228526D01*
Y870000D01*
X1243761D01*
X1228526Y881426D02*
X1236144D01*
X1289466Y892853D02*
X1274231D01*
Y881426D01*
X1281849D01*
X1274231D01*
Y870000D01*
X1297084Y892853D02*
X1304702D01*
X1300893D01*
Y870000D01*
X1297084D01*
X1304702D01*
X1316128Y892853D02*
Y870000D01*
X1327554D01*
X1331363Y873809D01*
Y889044D01*
X1327554Y892853D01*
X1316128D01*
X1338980D02*
Y873809D01*
X1342789Y870000D01*
X1350407D01*
X1354216Y873809D01*
Y892853D01*
X1377068Y889044D02*
X1373259Y892853D01*
X1365642D01*
X1361833Y889044D01*
Y873809D01*
X1365642Y870000D01*
X1373259D01*
X1377068Y873809D01*
X1384686Y892853D02*
X1392303D01*
X1388494D01*
Y870000D01*
X1384686D01*
X1392303D01*
X1403730D02*
Y885235D01*
X1411347Y892853D01*
X1418965Y885235D01*
Y870000D01*
Y881426D01*
X1403730D01*
X1426582Y892853D02*
Y870000D01*
X1441817D01*
X1472287Y892853D02*
X1479905D01*
X1476096D01*
Y870000D01*
X1472287D01*
X1479905D01*
X1491331D02*
Y892853D01*
X1506566Y870000D01*
Y892853D01*
X1514184D02*
X1529419D01*
X1521801D01*
Y870000D01*
X1548463Y892853D02*
X1540845D01*
X1537036Y889044D01*
Y873809D01*
X1540845Y870000D01*
X1548463D01*
X1552271Y873809D01*
Y889044D01*
X1548463Y892853D01*
X1597977D02*
X1582742D01*
Y870000D01*
X1597977D01*
X1582742Y881426D02*
X1590359D01*
X1605594Y870000D02*
Y885235D01*
X1613212Y892853D01*
X1620829Y885235D01*
Y870000D01*
Y881426D01*
X1605594D01*
X1643682Y889044D02*
X1639873Y892853D01*
X1632256D01*
X1628447Y889044D01*
Y873809D01*
X1632256Y870000D01*
X1639873D01*
X1643682Y873809D01*
X1651299Y892853D02*
Y870000D01*
Y881426D01*
X1666534D01*
Y892853D01*
Y870000D01*
X1697005D02*
Y892853D01*
X1708431D01*
X1712240Y889044D01*
Y881426D01*
X1708431Y877617D01*
X1697005D01*
X1719857Y870000D02*
Y885235D01*
X1727475Y892853D01*
X1735092Y885235D01*
Y870000D01*
Y881426D01*
X1719857D01*
X1742710Y870000D02*
Y892853D01*
X1757945Y870000D01*
Y892853D01*
X1780797D02*
X1765562D01*
Y870000D01*
X1780797D01*
X1765562Y881426D02*
X1773180D01*
X1788415Y892853D02*
Y870000D01*
X1803650D01*
X1849355Y889044D02*
X1845547Y892853D01*
X1837929D01*
X1834120Y889044D01*
Y873809D01*
X1837929Y870000D01*
X1845547D01*
X1849355Y873809D01*
X1868399Y892853D02*
X1860782D01*
X1856973Y889044D01*
Y873809D01*
X1860782Y870000D01*
X1868399D01*
X1872208Y873809D01*
Y889044D01*
X1868399Y892853D01*
X1879825Y870000D02*
Y892853D01*
X1891252D01*
X1895060Y889044D01*
Y881426D01*
X1891252Y877617D01*
X1879825D01*
X1887443D02*
X1895060Y870000D01*
X1902678D02*
Y892853D01*
X1917913Y870000D01*
Y892853D01*
X1940766D02*
X1925531D01*
Y870000D01*
X1940766D01*
X1925531Y881426D02*
X1933148D01*
X1948383Y870000D02*
Y892853D01*
X1959810D01*
X1963618Y889044D01*
Y881426D01*
X1959810Y877617D01*
X1948383D01*
X1956001D02*
X1963618Y870000D01*
X2001706D02*
X1994088Y877617D01*
Y885235D01*
X2001706Y892853D01*
X2028367D02*
X2013132D01*
Y881426D01*
X2020750D01*
X2013132D01*
Y870000D01*
X2047411Y892853D02*
X2039794D01*
X2035985Y889044D01*
Y873809D01*
X2039794Y870000D01*
X2047411D01*
X2051220Y873809D01*
Y889044D01*
X2047411Y892853D01*
X2058838D02*
Y873809D01*
X2062646Y870000D01*
X2070264D01*
X2074073Y873809D01*
Y892853D01*
X2081690Y870000D02*
Y892853D01*
X2093116D01*
X2096925Y889044D01*
Y881426D01*
X2093116Y877617D01*
X2081690D01*
X2089308D02*
X2096925Y870000D01*
X2138822Y892853D02*
X2131204D01*
X2127395Y889044D01*
Y873809D01*
X2131204Y870000D01*
X2138822D01*
X2142630Y873809D01*
Y889044D01*
X2138822Y892853D01*
X2150248Y870000D02*
Y892853D01*
X2165483Y870000D01*
Y892853D01*
X2195953D02*
X2211188D01*
X2203571D01*
Y870000D01*
X2218806Y892853D02*
Y870000D01*
Y881426D01*
X2234041D01*
Y892853D01*
Y870000D01*
X2256893Y892853D02*
X2241658D01*
Y870000D01*
X2256893D01*
X2241658Y881426D02*
X2249276D01*
X2287364Y892853D02*
X2302599D01*
X2294981D01*
Y870000D01*
X2321643Y892853D02*
X2314025D01*
X2310216Y889044D01*
Y873809D01*
X2314025Y870000D01*
X2321643D01*
X2325451Y873809D01*
Y889044D01*
X2321643Y892853D01*
X2333069Y870000D02*
Y892853D01*
X2344495D01*
X2348304Y889044D01*
Y881426D01*
X2344495Y877617D01*
X2333069D01*
X2378774Y892853D02*
Y870000D01*
X2394009D01*
X2401627D02*
Y885235D01*
X2409244Y892853D01*
X2416862Y885235D01*
Y870000D01*
Y881426D01*
X2401627D01*
X2424479Y892853D02*
Y889044D01*
X2432097Y881426D01*
X2439714Y889044D01*
Y892853D01*
X2432097Y881426D02*
Y870000D01*
X2462567Y892853D02*
X2447332D01*
Y870000D01*
X2462567D01*
X2447332Y881426D02*
X2454949D01*
X2470184Y870000D02*
Y892853D01*
X2481611D01*
X2485420Y889044D01*
Y881426D01*
X2481611Y877617D01*
X2470184D01*
X2477802D02*
X2485420Y870000D01*
X2493037D02*
X2500655Y877617D01*
Y885235D01*
X2493037Y892853D01*
X1000000Y921426D02*
X1015235D01*
X1045705Y929044D02*
X1049514Y932853D01*
X1057132D01*
X1060940Y929044D01*
Y925235D01*
X1057132Y921426D01*
X1053323D01*
X1057132D01*
X1060940Y917617D01*
Y913809D01*
X1057132Y910000D01*
X1049514D01*
X1045705Y913809D01*
X1106646Y932853D02*
X1091410D01*
Y921426D01*
X1099028D01*
X1091410D01*
Y910000D01*
X1114263Y932853D02*
X1121881D01*
X1118072D01*
Y910000D01*
X1114263D01*
X1121881D01*
X1133307Y932853D02*
Y910000D01*
X1144733D01*
X1148542Y913809D01*
Y929044D01*
X1144733Y932853D01*
X1133307D01*
X1156160D02*
Y913809D01*
X1159968Y910000D01*
X1167586D01*
X1171395Y913809D01*
Y932853D01*
X1194247Y929044D02*
X1190438Y932853D01*
X1182821D01*
X1179012Y929044D01*
Y913809D01*
X1182821Y910000D01*
X1190438D01*
X1194247Y913809D01*
X1201865Y932853D02*
X1209482D01*
X1205674D01*
Y910000D01*
X1201865D01*
X1209482D01*
X1220909D02*
Y925235D01*
X1228526Y932853D01*
X1236144Y925235D01*
Y910000D01*
Y921426D01*
X1220909D01*
X1243761Y932853D02*
Y910000D01*
X1258996D01*
X1281849Y929044D02*
X1278040Y932853D01*
X1270423D01*
X1266614Y929044D01*
Y925235D01*
X1270423Y921426D01*
X1278040D01*
X1281849Y917617D01*
Y913809D01*
X1278040Y910000D01*
X1270423D01*
X1266614Y913809D01*
X1327554Y929044D02*
X1323745Y932853D01*
X1316128D01*
X1312319Y929044D01*
Y925235D01*
X1316128Y921426D01*
X1323745D01*
X1327554Y917617D01*
Y913809D01*
X1323745Y910000D01*
X1316128D01*
X1312319Y913809D01*
X1335172Y932853D02*
Y910000D01*
Y921426D01*
X1350407D01*
Y932853D01*
Y910000D01*
X1369451Y932853D02*
X1361833D01*
X1358024Y929044D01*
Y913809D01*
X1361833Y910000D01*
X1369451D01*
X1373259Y913809D01*
Y929044D01*
X1369451Y932853D01*
X1380877D02*
Y913809D01*
X1384686Y910000D01*
X1392303D01*
X1396112Y913809D01*
Y932853D01*
X1403730D02*
Y910000D01*
X1418965D01*
X1426582Y932853D02*
Y910000D01*
X1438008D01*
X1441817Y913809D01*
Y929044D01*
X1438008Y932853D01*
X1426582D01*
X1472287D02*
Y910000D01*
X1487522D01*
X1495140Y932853D02*
X1502757D01*
X1498949D01*
Y910000D01*
X1495140D01*
X1502757D01*
X1529419Y932853D02*
X1514184D01*
Y910000D01*
X1529419D01*
X1514184Y921426D02*
X1521801D01*
X1571315Y932853D02*
X1563698D01*
X1559889Y929044D01*
Y913809D01*
X1563698Y910000D01*
X1571315D01*
X1575124Y913809D01*
Y929044D01*
X1571315Y932853D01*
X1582742Y910000D02*
Y932853D01*
X1597977Y910000D01*
Y932853D01*
X1628447D02*
X1643682D01*
X1636064D01*
Y910000D01*
X1651299Y932853D02*
Y910000D01*
X1658917Y917617D01*
X1666534Y910000D01*
Y932853D01*
X1685578D02*
X1677961D01*
X1674152Y929044D01*
Y913809D01*
X1677961Y910000D01*
X1685578D01*
X1689387Y913809D01*
Y929044D01*
X1685578Y932853D01*
X1719857D02*
Y910000D01*
X1735092D01*
X1742710Y932853D02*
X1750327D01*
X1746519D01*
Y910000D01*
X1742710D01*
X1750327D01*
X1761754D02*
Y932853D01*
X1776989Y910000D01*
Y932853D01*
X1799841D02*
X1784606D01*
Y910000D01*
X1799841D01*
X1784606Y921426D02*
X1792224D01*
X1822694Y929044D02*
X1818885Y932853D01*
X1811268D01*
X1807459Y929044D01*
Y925235D01*
X1811268Y921426D01*
X1818885D01*
X1822694Y917617D01*
Y913809D01*
X1818885Y910000D01*
X1811268D01*
X1807459Y913809D01*
X1853164Y932853D02*
X1868399D01*
X1860782D01*
Y910000D01*
X1876017Y932853D02*
Y910000D01*
Y921426D01*
X1891252D01*
Y932853D01*
Y910000D01*
X1898869D02*
Y925235D01*
X1906487Y932853D01*
X1914104Y925235D01*
Y910000D01*
Y921426D01*
X1898869D01*
X1921722Y932853D02*
X1936957D01*
X1929339D01*
Y910000D01*
X1967427Y932853D02*
X1975045D01*
X1971236D01*
Y910000D01*
X1967427D01*
X1975045D01*
X1986471D02*
Y932853D01*
X2001706Y910000D01*
Y932853D01*
X2009324D02*
X2024559D01*
X2016941D01*
Y910000D01*
X2047411Y932853D02*
X2032176D01*
Y910000D01*
X2047411D01*
X2032176Y921426D02*
X2039794D01*
X2055029Y910000D02*
Y932853D01*
X2066455D01*
X2070264Y929044D01*
Y921426D01*
X2066455Y917617D01*
X2055029D01*
X2062646D02*
X2070264Y910000D01*
X2093116Y929044D02*
X2089308Y932853D01*
X2081690D01*
X2077881Y929044D01*
Y925235D01*
X2081690Y921426D01*
X2089308D01*
X2093116Y917617D01*
Y913809D01*
X2089308Y910000D01*
X2081690D01*
X2077881Y913809D01*
X2115969Y932853D02*
X2100734D01*
Y910000D01*
X2115969D01*
X2100734Y921426D02*
X2108352D01*
X2138822Y929044D02*
X2135013Y932853D01*
X2127395D01*
X2123587Y929044D01*
Y913809D01*
X2127395Y910000D01*
X2135013D01*
X2138822Y913809D01*
X2146439Y932853D02*
X2161674D01*
X2154057D01*
Y910000D01*
X2192144D02*
Y925235D01*
X2199762Y932853D01*
X2207380Y925235D01*
Y910000D01*
Y921426D01*
X2192144D01*
X2214997Y932853D02*
X2230232D01*
X2222615D01*
Y910000D01*
X2260702D02*
Y925235D01*
X2268320Y932853D01*
X2275937Y925235D01*
Y910000D01*
Y921426D01*
X2260702D01*
X2306407Y910000D02*
Y932853D01*
X2317834D01*
X2321643Y929044D01*
Y921426D01*
X2317834Y917617D01*
X2306407D01*
X2314025D02*
X2321643Y910000D01*
X2329260Y932853D02*
X2336878D01*
X2333069D01*
Y910000D01*
X2329260D01*
X2336878D01*
X2363539Y929044D02*
X2359730Y932853D01*
X2352113D01*
X2348304Y929044D01*
Y913809D01*
X2352113Y910000D01*
X2359730D01*
X2363539Y913809D01*
Y921426D01*
X2355921D01*
X2371157Y932853D02*
Y910000D01*
Y921426D01*
X2386392D01*
Y932853D01*
Y910000D01*
X2394009Y932853D02*
X2409244D01*
X2401627D01*
Y910000D01*
X2439714D02*
Y925235D01*
X2447332Y932853D01*
X2454949Y925235D01*
Y910000D01*
Y921426D01*
X2439714D01*
X2462567Y910000D02*
Y932853D01*
X2477802Y910000D01*
Y932853D01*
X2500655Y929044D02*
X2496846Y932853D01*
X2489228D01*
X2485420Y929044D01*
Y913809D01*
X2489228Y910000D01*
X2496846D01*
X2500655Y913809D01*
Y921426D01*
X2493037D01*
X2508272Y932853D02*
Y910000D01*
X2523507D01*
X2546360Y932853D02*
X2531125D01*
Y910000D01*
X2546360D01*
X2531125Y921426D02*
X2538742D01*
X1000000Y961426D02*
X1015235D01*
X1045705Y950000D02*
Y972853D01*
X1053323Y965235D01*
X1060940Y972853D01*
Y950000D01*
X1068558Y972853D02*
X1076175D01*
X1072367D01*
Y950000D01*
X1068558D01*
X1076175D01*
X1087602D02*
Y972853D01*
X1102837Y950000D01*
Y972853D01*
X1110454D02*
X1118072D01*
X1114263D01*
Y950000D01*
X1110454D01*
X1118072D01*
X1129498D02*
Y972853D01*
X1137116Y965235D01*
X1144733Y972853D01*
Y950000D01*
X1152351Y972853D02*
Y953809D01*
X1156160Y950000D01*
X1163777D01*
X1167586Y953809D01*
Y972853D01*
X1175203Y950000D02*
Y972853D01*
X1182821Y965235D01*
X1190438Y972853D01*
Y950000D01*
X1232335D02*
Y972853D01*
X1220909Y961426D01*
X1236144D01*
X1243761Y950000D02*
Y972853D01*
X1251379Y965235D01*
X1258996Y972853D01*
Y950000D01*
X1266614D02*
Y972853D01*
X1274231Y965235D01*
X1281849Y972853D01*
Y950000D01*
X1312319Y972853D02*
Y950000D01*
X1323745D01*
X1327554Y953809D01*
Y969044D01*
X1323745Y972853D01*
X1312319D01*
X1335172D02*
X1342789D01*
X1338980D01*
Y950000D01*
X1335172D01*
X1342789D01*
X1369451Y969044D02*
X1365642Y972853D01*
X1358024D01*
X1354216Y969044D01*
Y965235D01*
X1358024Y961426D01*
X1365642D01*
X1369451Y957617D01*
Y953809D01*
X1365642Y950000D01*
X1358024D01*
X1354216Y953809D01*
X1377068Y972853D02*
X1392303D01*
X1384686D01*
Y950000D01*
X1399921D02*
Y965235D01*
X1407538Y972853D01*
X1415156Y965235D01*
Y950000D01*
Y961426D01*
X1399921D01*
X1422773Y950000D02*
Y972853D01*
X1438008Y950000D01*
Y972853D01*
X1460861Y969044D02*
X1457052Y972853D01*
X1449435D01*
X1445626Y969044D01*
Y953809D01*
X1449435Y950000D01*
X1457052D01*
X1460861Y953809D01*
X1483714Y972853D02*
X1468479D01*
Y950000D01*
X1483714D01*
X1468479Y961426D02*
X1476096D01*
X1529419Y972853D02*
X1514184D01*
Y961426D01*
X1521801D01*
X1514184D01*
Y950000D01*
X1537036D02*
Y972853D01*
X1548463D01*
X1552271Y969044D01*
Y961426D01*
X1548463Y957617D01*
X1537036D01*
X1544654D02*
X1552271Y950000D01*
X1571315Y972853D02*
X1563698D01*
X1559889Y969044D01*
Y953809D01*
X1563698Y950000D01*
X1571315D01*
X1575124Y953809D01*
Y969044D01*
X1571315Y972853D01*
X1582742Y950000D02*
Y972853D01*
X1590359Y965235D01*
X1597977Y972853D01*
Y950000D01*
X1628447Y972853D02*
X1643682D01*
X1636064D01*
Y950000D01*
X1651299Y972853D02*
Y950000D01*
Y961426D01*
X1666534D01*
Y972853D01*
Y950000D01*
X1689387Y972853D02*
X1674152D01*
Y950000D01*
X1689387D01*
X1674152Y961426D02*
X1681770D01*
X1719857Y950000D02*
Y972853D01*
X1731284D01*
X1735092Y969044D01*
Y961426D01*
X1731284Y957617D01*
X1719857D01*
X1742710Y950000D02*
Y965235D01*
X1750327Y972853D01*
X1757945Y965235D01*
Y950000D01*
Y961426D01*
X1742710D01*
X1765562Y950000D02*
Y972853D01*
X1780797Y950000D01*
Y972853D01*
X1803650D02*
X1788415D01*
Y950000D01*
X1803650D01*
X1788415Y961426D02*
X1796033D01*
X1811268Y972853D02*
Y950000D01*
X1826503D01*
X1872208Y972853D02*
X1856973D01*
Y950000D01*
X1872208D01*
X1856973Y961426D02*
X1864590D01*
X1879825Y972853D02*
Y950000D01*
X1891252D01*
X1895060Y953809D01*
Y969044D01*
X1891252Y972853D01*
X1879825D01*
X1917913Y969044D02*
X1914104Y972853D01*
X1906487D01*
X1902678Y969044D01*
Y953809D01*
X1906487Y950000D01*
X1914104D01*
X1917913Y953809D01*
Y961426D01*
X1910296D01*
X1940766Y972853D02*
X1925531D01*
Y950000D01*
X1940766D01*
X1925531Y961426D02*
X1933148D01*
X1000000Y1001426D02*
X1015235D01*
X1060940Y1012853D02*
X1045705D01*
Y1001426D01*
X1053323D01*
X1045705D01*
Y990000D01*
X1068558Y1012853D02*
X1076175D01*
X1072367D01*
Y990000D01*
X1068558D01*
X1076175D01*
X1087602Y1012853D02*
Y990000D01*
X1099028D01*
X1102837Y993809D01*
Y1009044D01*
X1099028Y1012853D01*
X1087602D01*
X1110454D02*
Y993809D01*
X1114263Y990000D01*
X1121881D01*
X1125689Y993809D01*
Y1012853D01*
X1148542Y1009044D02*
X1144733Y1012853D01*
X1137116D01*
X1133307Y1009044D01*
Y993809D01*
X1137116Y990000D01*
X1144733D01*
X1148542Y993809D01*
X1156160Y1012853D02*
X1163777D01*
X1159968D01*
Y990000D01*
X1156160D01*
X1163777D01*
X1175203D02*
Y1005235D01*
X1182821Y1012853D01*
X1190438Y1005235D01*
Y990000D01*
Y1001426D01*
X1175203D01*
X1198056Y1012853D02*
Y990000D01*
X1213291D01*
X1243761Y1012853D02*
Y990000D01*
X1255188D01*
X1258996Y993809D01*
Y1009044D01*
X1255188Y1012853D01*
X1243761D01*
X1266614D02*
X1274231D01*
X1270423D01*
Y990000D01*
X1266614D01*
X1274231D01*
X1285658D02*
Y1005235D01*
X1293275Y1012853D01*
X1300893Y1005235D01*
Y990000D01*
Y1001426D01*
X1285658D01*
X1308510Y990000D02*
Y1012853D01*
X1316128Y1005235D01*
X1323745Y1012853D01*
Y990000D01*
X1346598Y1012853D02*
X1331363D01*
Y990000D01*
X1346598D01*
X1331363Y1001426D02*
X1338980D01*
X1354216Y1012853D02*
X1369451D01*
X1361833D01*
Y990000D01*
X1392303Y1012853D02*
X1377068D01*
Y990000D01*
X1392303D01*
X1377068Y1001426D02*
X1384686D01*
X1399921Y990000D02*
Y1012853D01*
X1411347D01*
X1415156Y1009044D01*
Y1001426D01*
X1411347Y997617D01*
X1399921D01*
X1407538D02*
X1415156Y990000D01*
X1445626D02*
X1453243D01*
X1449435D01*
Y1012853D01*
X1445626Y1009044D01*
X1464670Y1001426D02*
X1479905D01*
X1487522Y990000D02*
X1495140D01*
X1491331D01*
Y1012853D01*
X1487522Y1009044D01*
X1506566Y990000D02*
Y993809D01*
X1510375D01*
Y990000D01*
X1506566D01*
X1540845Y1012853D02*
X1525610D01*
Y1001426D01*
X1533228Y1005235D01*
X1537036D01*
X1540845Y1001426D01*
Y993809D01*
X1537036Y990000D01*
X1529419D01*
X1525610Y993809D01*
X1548463Y990000D02*
Y1012853D01*
X1556080Y1005235D01*
X1563698Y1012853D01*
Y990000D01*
X1571315D02*
Y1012853D01*
X1578933Y1005235D01*
X1586550Y1012853D01*
Y990000D01*
X1597977Y986191D02*
X1601785Y990000D01*
Y993809D01*
X1597977D01*
Y990000D01*
X1601785D01*
X1597977Y986191D01*
X1594168Y982383D01*
X1655108Y1009044D02*
X1651299Y1012853D01*
X1643682D01*
X1639873Y1009044D01*
Y1005235D01*
X1643682Y1001426D01*
X1651299D01*
X1655108Y997617D01*
Y993809D01*
X1651299Y990000D01*
X1643682D01*
X1639873Y993809D01*
X1674152Y1012853D02*
X1666534D01*
X1662726Y1009044D01*
Y993809D01*
X1666534Y990000D01*
X1674152D01*
X1677961Y993809D01*
Y1009044D01*
X1674152Y1012853D01*
X1685578D02*
Y990000D01*
X1700813D01*
X1708431Y1012853D02*
Y990000D01*
X1719857D01*
X1723666Y993809D01*
Y1009044D01*
X1719857Y1012853D01*
X1708431D01*
X1746519D02*
X1731284D01*
Y990000D01*
X1746519D01*
X1731284Y1001426D02*
X1738901D01*
X1754136Y990000D02*
Y1012853D01*
X1765562D01*
X1769371Y1009044D01*
Y1001426D01*
X1765562Y997617D01*
X1754136D01*
X1761754D02*
X1769371Y990000D01*
X1799841D02*
Y1012853D01*
X1807459Y1005235D01*
X1815076Y1012853D01*
Y990000D01*
X1822694D02*
Y1005235D01*
X1830311Y1012853D01*
X1837929Y1005235D01*
Y990000D01*
Y1001426D01*
X1822694D01*
X1860782Y1009044D02*
X1856973Y1012853D01*
X1849355D01*
X1845547Y1009044D01*
Y1005235D01*
X1849355Y1001426D01*
X1856973D01*
X1860782Y997617D01*
Y993809D01*
X1856973Y990000D01*
X1849355D01*
X1845547Y993809D01*
X1868399Y1012853D02*
Y990000D01*
Y997617D01*
X1883634Y1012853D01*
X1872208Y1001426D01*
X1883634Y990000D01*
X1925531Y1012853D02*
X1917913D01*
X1914104Y1009044D01*
Y993809D01*
X1917913Y990000D01*
X1925531D01*
X1929339Y993809D01*
Y1009044D01*
X1925531Y1012853D01*
X1936957Y990000D02*
Y1012853D01*
X1948383D01*
X1952192Y1009044D01*
Y1001426D01*
X1948383Y997617D01*
X1936957D01*
X1975045Y1012853D02*
X1959810D01*
Y990000D01*
X1975045D01*
X1959810Y1001426D02*
X1967427D01*
X1982662Y990000D02*
Y1012853D01*
X1997897Y990000D01*
Y1012853D01*
X2005515D02*
X2013132D01*
X2009324D01*
Y990000D01*
X2005515D01*
X2013132D01*
X2024559D02*
Y1012853D01*
X2039794Y990000D01*
Y1012853D01*
X2062646Y1009044D02*
X2058838Y1012853D01*
X2051220D01*
X2047411Y1009044D01*
Y993809D01*
X2051220Y990000D01*
X2058838D01*
X2062646Y993809D01*
Y1001426D01*
X2055029D01*
X2115969Y990000D02*
Y1005235D01*
X2123587Y1012853D01*
X2131204Y1005235D01*
Y990000D01*
Y1001426D01*
X2115969D01*
X2138822Y1012853D02*
X2154057D01*
X2146439D01*
Y990000D01*
X2184527Y1012853D02*
Y990000D01*
X2199762D01*
X2222615Y1012853D02*
X2207380D01*
Y990000D01*
X2222615D01*
X2207380Y1001426D02*
X2214997D01*
X2230232Y990000D02*
Y1005235D01*
X2237850Y1012853D01*
X2245467Y1005235D01*
Y990000D01*
Y1001426D01*
X2230232D01*
X2268320Y1009044D02*
X2264511Y1012853D01*
X2256894D01*
X2253085Y1009044D01*
Y1005235D01*
X2256894Y1001426D01*
X2264511D01*
X2268320Y997617D01*
Y993809D01*
X2264511Y990000D01*
X2256894D01*
X2253085Y993809D01*
X2275937Y1012853D02*
X2291172D01*
X2283555D01*
Y990000D01*
X2321643D02*
X2329260D01*
X2325451D01*
Y1012853D01*
X2321643Y1009044D01*
X2340686Y990000D02*
Y1012853D01*
X2348304Y1005235D01*
X2355922Y1012853D01*
Y990000D01*
X2363539D02*
Y1012853D01*
X2371157Y1005235D01*
X2378774Y1012853D01*
Y990000D01*
X2424479Y1009044D02*
X2420671Y1012853D01*
X2413053D01*
X2409244Y1009044D01*
Y993809D01*
X2413053Y990000D01*
X2420671D01*
X2424479Y993809D01*
Y1001426D01*
X2416862D01*
X2432097Y990000D02*
Y1012853D01*
X2443523D01*
X2447332Y1009044D01*
Y1001426D01*
X2443523Y997617D01*
X2432097D01*
X2439714D02*
X2447332Y990000D01*
X2470185Y1012853D02*
X2454949D01*
Y990000D01*
X2470185D01*
X2454949Y1001426D02*
X2462567D01*
X2477802Y990000D02*
Y1005235D01*
X2485420Y1012853D01*
X2493037Y1005235D01*
Y990000D01*
Y1001426D01*
X2477802D01*
X2500655Y1012853D02*
X2515890D01*
X2508272D01*
Y990000D01*
X2538742Y1012853D02*
X2523507D01*
Y990000D01*
X2538742D01*
X2523507Y1001426D02*
X2531125D01*
X2546360Y990000D02*
Y1012853D01*
X2557786D01*
X2561595Y1009044D01*
Y1001426D01*
X2557786Y997617D01*
X2546360D01*
X2553978D02*
X2561595Y990000D01*
X2592065Y1012853D02*
X2607300D01*
X2599683D01*
Y990000D01*
X2614918Y1012853D02*
Y990000D01*
Y1001426D01*
X2630153D01*
Y1012853D01*
Y990000D01*
X2637770D02*
Y1005235D01*
X2645388Y1012853D01*
X2653005Y1005235D01*
Y990000D01*
Y1001426D01*
X2637770D01*
X2660623Y990000D02*
Y1012853D01*
X2675858Y990000D01*
Y1012853D01*
X2721563D02*
X2706328D01*
Y1001426D01*
X2713946D01*
X2706328D01*
Y990000D01*
X2729181Y1012853D02*
X2736798D01*
X2732990D01*
Y990000D01*
X2729181D01*
X2736798D01*
X2748225Y1012853D02*
Y990000D01*
X2759651D01*
X2763460Y993809D01*
Y1009044D01*
X2759651Y1012853D01*
X2748225D01*
X2771077D02*
Y993809D01*
X2774886Y990000D01*
X2782504D01*
X2786312Y993809D01*
Y1012853D01*
X2809165Y1009044D02*
X2805356Y1012853D01*
X2797739D01*
X2793930Y1009044D01*
Y993809D01*
X2797739Y990000D01*
X2805356D01*
X2809165Y993809D01*
X2816783Y1012853D02*
X2824400D01*
X2820591D01*
Y990000D01*
X2816783D01*
X2824400D01*
X2835826D02*
Y1005235D01*
X2843444Y1012853D01*
X2851061Y1005235D01*
Y990000D01*
Y1001426D01*
X2835826D01*
X2858679Y1012853D02*
Y990000D01*
X2873914D01*
X955235Y1052853D02*
X940000D01*
Y1041426D01*
X947617Y1045235D01*
X951426D01*
X955235Y1041426D01*
Y1033809D01*
X951426Y1030000D01*
X943809D01*
X940000Y1033809D01*
X962853Y1030000D02*
Y1033809D01*
X966661D01*
Y1030000D01*
X962853D01*
X1004749D02*
Y1052853D01*
X1016175D01*
X1019984Y1049044D01*
Y1041426D01*
X1016175Y1037617D01*
X1004749D01*
X1027602Y1030000D02*
Y1045235D01*
X1035219Y1052853D01*
X1042837Y1045235D01*
Y1030000D01*
Y1041426D01*
X1027602D01*
X1050454Y1030000D02*
Y1052853D01*
X1065689Y1030000D01*
Y1052853D01*
X1088542D02*
X1073307D01*
Y1030000D01*
X1088542D01*
X1073307Y1041426D02*
X1080924D01*
X1096160Y1052853D02*
Y1030000D01*
X1111395D01*
X1119012Y1052853D02*
X1126630D01*
X1122821D01*
Y1030000D01*
X1119012D01*
X1126630D01*
X1138056Y1052853D02*
X1153291D01*
Y1049044D01*
X1138056Y1033809D01*
Y1030000D01*
X1153291D01*
X1176144Y1052853D02*
X1160909D01*
Y1030000D01*
X1176144D01*
X1160909Y1041426D02*
X1168526D01*
X1206614Y1052853D02*
X1221849D01*
X1214231D01*
Y1030000D01*
X1229466Y1052853D02*
Y1030000D01*
Y1041426D01*
X1244702D01*
Y1052853D01*
Y1030000D01*
X1267554Y1052853D02*
X1252319D01*
Y1030000D01*
X1267554D01*
X1252319Y1041426D02*
X1259937D01*
X1298024Y1052853D02*
Y1030000D01*
X1309451D01*
X1313259Y1033809D01*
Y1037617D01*
X1309451Y1041426D01*
X1298024D01*
X1309451D01*
X1313259Y1045235D01*
Y1049044D01*
X1309451Y1052853D01*
X1298024D01*
X1332303D02*
X1324686D01*
X1320877Y1049044D01*
Y1033809D01*
X1324686Y1030000D01*
X1332303D01*
X1336112Y1033809D01*
Y1049044D01*
X1332303Y1052853D01*
X1343729Y1030000D02*
Y1045235D01*
X1351347Y1052853D01*
X1358965Y1045235D01*
Y1030000D01*
Y1041426D01*
X1343729D01*
X1366582Y1030000D02*
Y1052853D01*
X1378008D01*
X1381817Y1049044D01*
Y1041426D01*
X1378008Y1037617D01*
X1366582D01*
X1374200D02*
X1381817Y1030000D01*
X1389435Y1052853D02*
Y1030000D01*
X1400861D01*
X1404670Y1033809D01*
Y1049044D01*
X1400861Y1052853D01*
X1389435D01*
X1442757Y1030000D02*
X1435140Y1037617D01*
Y1045235D01*
X1442757Y1052853D01*
X1465610Y1030000D02*
Y1052853D01*
X1454184Y1041426D01*
X1469419D01*
X1477036Y1030000D02*
Y1052853D01*
X1488463D01*
X1492271Y1049044D01*
Y1041426D01*
X1488463Y1037617D01*
X1477036D01*
X1515124Y1049044D02*
X1511315Y1052853D01*
X1503698D01*
X1499889Y1049044D01*
Y1033809D01*
X1503698Y1030000D01*
X1511315D01*
X1515124Y1033809D01*
X1537977Y1049044D02*
X1534168Y1052853D01*
X1526550D01*
X1522742Y1049044D01*
Y1045235D01*
X1526550Y1041426D01*
X1534168D01*
X1537977Y1037617D01*
Y1033809D01*
X1534168Y1030000D01*
X1526550D01*
X1522742Y1033809D01*
X1568447Y1030000D02*
Y1052853D01*
X1579873D01*
X1583682Y1049044D01*
Y1041426D01*
X1579873Y1037617D01*
X1568447D01*
X1606534Y1052853D02*
X1591299D01*
Y1030000D01*
X1606534D01*
X1591299Y1041426D02*
X1598917D01*
X1614152Y1030000D02*
Y1052853D01*
X1625578D01*
X1629387Y1049044D01*
Y1041426D01*
X1625578Y1037617D01*
X1614152D01*
X1621770D02*
X1629387Y1030000D01*
X1659857D02*
Y1052853D01*
X1671284D01*
X1675092Y1049044D01*
Y1041426D01*
X1671284Y1037617D01*
X1659857D01*
X1682710Y1030000D02*
Y1045235D01*
X1690327Y1052853D01*
X1697945Y1045235D01*
Y1030000D01*
Y1041426D01*
X1682710D01*
X1705562Y1030000D02*
Y1052853D01*
X1720797Y1030000D01*
Y1052853D01*
X1743650D02*
X1728415D01*
Y1030000D01*
X1743650D01*
X1728415Y1041426D02*
X1736033D01*
X1751268Y1052853D02*
Y1030000D01*
X1766503D01*
X1774120D02*
X1781738Y1037617D01*
Y1045235D01*
X1774120Y1052853D01*
X1793164Y1030000D02*
Y1033809D01*
X1796973D01*
Y1030000D01*
X1793164D01*
X1835061D02*
Y1052853D01*
X1846487D01*
X1850296Y1049044D01*
Y1041426D01*
X1846487Y1037617D01*
X1835061D01*
X1857913Y1052853D02*
Y1030000D01*
X1873148D01*
X1880766D02*
Y1045235D01*
X1888383Y1052853D01*
X1896001Y1045235D01*
Y1030000D01*
Y1041426D01*
X1880766D01*
X1918853Y1049044D02*
X1915045Y1052853D01*
X1907427D01*
X1903618Y1049044D01*
Y1033809D01*
X1907427Y1030000D01*
X1915045D01*
X1918853Y1033809D01*
X1941706Y1052853D02*
X1926471D01*
Y1030000D01*
X1941706D01*
X1926471Y1041426D02*
X1934088D01*
X1987411Y1052853D02*
X1972176D01*
Y1041426D01*
X1979794D01*
X1972176D01*
Y1030000D01*
X1995029Y1052853D02*
X2002646D01*
X1998838D01*
Y1030000D01*
X1995029D01*
X2002646D01*
X2014073Y1052853D02*
Y1030000D01*
X2025499D01*
X2029308Y1033809D01*
Y1049044D01*
X2025499Y1052853D01*
X2014073D01*
X2036925D02*
Y1033809D01*
X2040734Y1030000D01*
X2048352D01*
X2052160Y1033809D01*
Y1052853D01*
X2075013Y1049044D02*
X2071204Y1052853D01*
X2063587D01*
X2059778Y1049044D01*
Y1033809D01*
X2063587Y1030000D01*
X2071204D01*
X2075013Y1033809D01*
X2082630Y1052853D02*
X2090248D01*
X2086439D01*
Y1030000D01*
X2082630D01*
X2090248D01*
X2101674D02*
Y1045235D01*
X2109292Y1052853D01*
X2116909Y1045235D01*
Y1030000D01*
Y1041426D01*
X2101674D01*
X2124527Y1052853D02*
Y1030000D01*
X2139762D01*
X2162615Y1049044D02*
X2158806Y1052853D01*
X2151188D01*
X2147380Y1049044D01*
Y1045235D01*
X2151188Y1041426D01*
X2158806D01*
X2162615Y1037617D01*
Y1033809D01*
X2158806Y1030000D01*
X2151188D01*
X2147380Y1033809D01*
X2204511Y1052853D02*
X2196894D01*
X2193085Y1049044D01*
Y1033809D01*
X2196894Y1030000D01*
X2204511D01*
X2208320Y1033809D01*
Y1049044D01*
X2204511Y1052853D01*
X2215937Y1030000D02*
Y1052853D01*
X2231172Y1030000D01*
Y1052853D01*
X2261643D02*
X2276878D01*
X2269260D01*
Y1030000D01*
X2284495Y1052853D02*
Y1030000D01*
Y1041426D01*
X2299730D01*
Y1052853D01*
Y1030000D01*
X2322583Y1052853D02*
X2307348D01*
Y1030000D01*
X2322583D01*
X2307348Y1041426D02*
X2314965D01*
X2353053Y1030000D02*
Y1052853D01*
X2364479D01*
X2368288Y1049044D01*
Y1041426D01*
X2364479Y1037617D01*
X2353053D01*
X2375906Y1030000D02*
Y1045235D01*
X2383523Y1052853D01*
X2391141Y1045235D01*
Y1030000D01*
Y1041426D01*
X2375906D01*
X2398758Y1030000D02*
Y1052853D01*
X2413993Y1030000D01*
Y1052853D01*
X2436846D02*
X2421611D01*
Y1030000D01*
X2436846D01*
X2421611Y1041426D02*
X2429228D01*
X2444464Y1052853D02*
Y1030000D01*
X2459699D01*
X2505404Y1049044D02*
X2501595Y1052853D01*
X2493978D01*
X2490169Y1049044D01*
Y1045235D01*
X2493978Y1041426D01*
X2501595D01*
X2505404Y1037617D01*
Y1033809D01*
X2501595Y1030000D01*
X2493978D01*
X2490169Y1033809D01*
X2513021Y1052853D02*
X2528256D01*
X2520639D01*
Y1030000D01*
X2535874D02*
Y1052853D01*
X2547300D01*
X2551109Y1049044D01*
Y1041426D01*
X2547300Y1037617D01*
X2535874D01*
X2543492D02*
X2551109Y1030000D01*
X2558727Y1052853D02*
X2566344D01*
X2562535D01*
Y1030000D01*
X2558727D01*
X2566344D01*
X2577770D02*
Y1052853D01*
X2589197D01*
X2593005Y1049044D01*
Y1041426D01*
X2589197Y1037617D01*
X2577770D01*
X2615858Y1049044D02*
X2612049Y1052853D01*
X2604432D01*
X2600623Y1049044D01*
Y1045235D01*
X2604432Y1041426D01*
X2612049D01*
X2615858Y1037617D01*
Y1033809D01*
X2612049Y1030000D01*
X2604432D01*
X2600623Y1033809D01*
X2646328Y1030000D02*
Y1045235D01*
X2653946Y1052853D01*
X2661563Y1045235D01*
Y1030000D01*
Y1041426D01*
X2646328D01*
X2684416Y1049044D02*
X2680607Y1052853D01*
X2672990D01*
X2669181Y1049044D01*
Y1045235D01*
X2672990Y1041426D01*
X2680607D01*
X2684416Y1037617D01*
Y1033809D01*
X2680607Y1030000D01*
X2672990D01*
X2669181Y1033809D01*
X2730121Y1052853D02*
X2714886D01*
Y1041426D01*
X2722504D01*
X2714886D01*
Y1030000D01*
X2749165Y1052853D02*
X2741548D01*
X2737739Y1049044D01*
Y1033809D01*
X2741548Y1030000D01*
X2749165D01*
X2752974Y1033809D01*
Y1049044D01*
X2749165Y1052853D01*
X2760591D02*
Y1030000D01*
X2775826D01*
X2783444Y1052853D02*
Y1030000D01*
X2798679D01*
X2817723Y1052853D02*
X2810105D01*
X2806296Y1049044D01*
Y1033809D01*
X2810105Y1030000D01*
X2817723D01*
X2821531Y1033809D01*
Y1049044D01*
X2817723Y1052853D01*
X2829149D02*
Y1030000D01*
X2836767Y1037617D01*
X2844384Y1030000D01*
Y1052853D01*
X2867237Y1049044D02*
X2863428Y1052853D01*
X2855811D01*
X2852002Y1049044D01*
Y1045235D01*
X2855811Y1041426D01*
X2863428D01*
X2867237Y1037617D01*
Y1033809D01*
X2863428Y1030000D01*
X2855811D01*
X2852002Y1033809D01*
X2874854Y1045235D02*
X2878663D01*
Y1041426D01*
X2874854D01*
Y1045235D01*
Y1033809D02*
X2878663D01*
Y1030000D01*
X2874854D01*
Y1033809D01*
X951426Y1100000D02*
Y1122853D01*
X940000Y1111426D01*
X955235D01*
X962853Y1100000D02*
Y1103809D01*
X966661D01*
Y1100000D01*
X962853D01*
X1019984Y1119044D02*
X1016175Y1122853D01*
X1008558D01*
X1004749Y1119044D01*
Y1103809D01*
X1008558Y1100000D01*
X1016175D01*
X1019984Y1103809D01*
X1039028Y1122853D02*
X1031411D01*
X1027602Y1119044D01*
Y1103809D01*
X1031411Y1100000D01*
X1039028D01*
X1042837Y1103809D01*
Y1119044D01*
X1039028Y1122853D01*
X1050454Y1100000D02*
Y1122853D01*
X1058072Y1115235D01*
X1065689Y1122853D01*
Y1100000D01*
X1073307D02*
Y1122853D01*
X1084733D01*
X1088542Y1119044D01*
Y1111426D01*
X1084733Y1107617D01*
X1073307D01*
X1107586Y1122853D02*
X1099968D01*
X1096160Y1119044D01*
Y1103809D01*
X1099968Y1100000D01*
X1107586D01*
X1111395Y1103809D01*
Y1119044D01*
X1107586Y1122853D01*
X1119012Y1100000D02*
Y1122853D01*
X1134247Y1100000D01*
Y1122853D01*
X1157100D02*
X1141865D01*
Y1100000D01*
X1157100D01*
X1141865Y1111426D02*
X1149482D01*
X1164717Y1100000D02*
Y1122853D01*
X1179952Y1100000D01*
Y1122853D01*
X1187570D02*
X1202805D01*
X1195188D01*
Y1100000D01*
X1233275Y1122853D02*
X1240893D01*
X1237084D01*
Y1100000D01*
X1233275D01*
X1240893D01*
X1252319Y1122853D02*
Y1100000D01*
X1263745D01*
X1267554Y1103809D01*
Y1119044D01*
X1263745Y1122853D01*
X1252319D01*
X1290407D02*
X1275172D01*
Y1100000D01*
X1290407D01*
X1275172Y1111426D02*
X1282789D01*
X1298024Y1100000D02*
Y1122853D01*
X1313259Y1100000D01*
Y1122853D01*
X1320877D02*
X1336112D01*
X1328494D01*
Y1100000D01*
X1343729Y1115235D02*
X1347538D01*
Y1111426D01*
X1343729D01*
Y1115235D01*
Y1103809D02*
X1347538D01*
Y1100000D01*
X1343729D01*
Y1103809D01*
X1400861Y1119044D02*
X1397052Y1122853D01*
X1389435D01*
X1385626Y1119044D01*
Y1103809D01*
X1389435Y1100000D01*
X1397052D01*
X1400861Y1103809D01*
X1419905Y1122853D02*
X1412287D01*
X1408479Y1119044D01*
Y1103809D01*
X1412287Y1100000D01*
X1419905D01*
X1423714Y1103809D01*
Y1119044D01*
X1419905Y1122853D01*
X1431331D02*
Y1100000D01*
X1446566D01*
X1465610Y1122853D02*
X1457993D01*
X1454184Y1119044D01*
Y1103809D01*
X1457993Y1100000D01*
X1465610D01*
X1469419Y1103809D01*
Y1119044D01*
X1465610Y1122853D01*
X1477036D02*
Y1103809D01*
X1480845Y1100000D01*
X1488463D01*
X1492271Y1103809D01*
Y1122853D01*
X1499889Y1100000D02*
Y1122853D01*
X1511315D01*
X1515124Y1119044D01*
Y1111426D01*
X1511315Y1107617D01*
X1499889D01*
X1507507D02*
X1515124Y1100000D01*
X1545594Y1122853D02*
X1560829D01*
X1553212D01*
Y1100000D01*
X1579873Y1122853D02*
X1572256D01*
X1568447Y1119044D01*
Y1103809D01*
X1572256Y1100000D01*
X1579873D01*
X1583682Y1103809D01*
Y1119044D01*
X1579873Y1122853D01*
X1614152D02*
Y1100000D01*
X1625578D01*
X1629387Y1103809D01*
Y1107617D01*
X1625578Y1111426D01*
X1614152D01*
X1625578D01*
X1629387Y1115235D01*
Y1119044D01*
X1625578Y1122853D01*
X1614152D01*
X1652240D02*
X1637005D01*
Y1100000D01*
X1652240D01*
X1637005Y1111426D02*
X1644622D01*
X1682710Y1122853D02*
Y1100000D01*
X1690327Y1107617D01*
X1697945Y1100000D01*
Y1122853D01*
X1705562D02*
Y1100000D01*
Y1111426D01*
X1720797D01*
Y1122853D01*
Y1100000D01*
X1728415Y1122853D02*
X1736033D01*
X1732224D01*
Y1100000D01*
X1728415D01*
X1736033D01*
X1747459Y1122853D02*
X1762694D01*
X1755076D01*
Y1100000D01*
X1785547Y1122853D02*
X1770311D01*
Y1100000D01*
X1785547D01*
X1770311Y1111426D02*
X1777929D01*
X940000Y1189044D02*
X943809Y1192853D01*
X951426D01*
X955235Y1189044D01*
Y1185235D01*
X951426Y1181426D01*
X947617D01*
X951426D01*
X955235Y1177617D01*
Y1173809D01*
X951426Y1170000D01*
X943809D01*
X940000Y1173809D01*
X962853Y1170000D02*
Y1173809D01*
X966661D01*
Y1170000D01*
X962853D01*
X1019984Y1189044D02*
X1016175Y1192853D01*
X1008558D01*
X1004749Y1189044D01*
Y1185235D01*
X1008558Y1181426D01*
X1016175D01*
X1019984Y1177617D01*
Y1173809D01*
X1016175Y1170000D01*
X1008558D01*
X1004749Y1173809D01*
X1039028Y1192853D02*
X1031411D01*
X1027602Y1189044D01*
Y1173809D01*
X1031411Y1170000D01*
X1039028D01*
X1042837Y1173809D01*
Y1189044D01*
X1039028Y1192853D01*
X1050454D02*
Y1170000D01*
X1065689D01*
X1073307Y1192853D02*
Y1170000D01*
X1084733D01*
X1088542Y1173809D01*
Y1189044D01*
X1084733Y1192853D01*
X1073307D01*
X1111395D02*
X1096160D01*
Y1170000D01*
X1111395D01*
X1096160Y1181426D02*
X1103777D01*
X1119012Y1170000D02*
Y1192853D01*
X1130438D01*
X1134247Y1189044D01*
Y1181426D01*
X1130438Y1177617D01*
X1119012D01*
X1126630D02*
X1134247Y1170000D01*
X1164717D02*
Y1192853D01*
X1176144D01*
X1179952Y1189044D01*
Y1181426D01*
X1176144Y1177617D01*
X1164717D01*
X1172335D02*
X1179952Y1170000D01*
X1202805Y1192853D02*
X1187570D01*
Y1170000D01*
X1202805D01*
X1187570Y1181426D02*
X1195188D01*
X1225658Y1189044D02*
X1221849Y1192853D01*
X1214231D01*
X1210423Y1189044D01*
Y1185235D01*
X1214231Y1181426D01*
X1221849D01*
X1225658Y1177617D01*
Y1173809D01*
X1221849Y1170000D01*
X1214231D01*
X1210423Y1173809D01*
X1233275Y1192853D02*
X1240893D01*
X1237084D01*
Y1170000D01*
X1233275D01*
X1240893D01*
X1267554Y1189044D02*
X1263745Y1192853D01*
X1256128D01*
X1252319Y1189044D01*
Y1185235D01*
X1256128Y1181426D01*
X1263745D01*
X1267554Y1177617D01*
Y1173809D01*
X1263745Y1170000D01*
X1256128D01*
X1252319Y1173809D01*
X1275172Y1192853D02*
X1290407D01*
X1282789D01*
Y1170000D01*
X1298024Y1185235D02*
X1301833D01*
Y1181426D01*
X1298024D01*
Y1185235D01*
Y1173809D02*
X1301833D01*
Y1170000D01*
X1298024D01*
Y1173809D01*
X1339921Y1170000D02*
Y1185235D01*
X1347538Y1192853D01*
X1355156Y1185235D01*
Y1170000D01*
Y1181426D01*
X1339921D01*
X1362773Y1170000D02*
Y1192853D01*
X1374200D01*
X1378008Y1189044D01*
Y1181426D01*
X1374200Y1177617D01*
X1362773D01*
X1385626Y1170000D02*
Y1192853D01*
X1397052D01*
X1400861Y1189044D01*
Y1181426D01*
X1397052Y1177617D01*
X1385626D01*
X1408479Y1192853D02*
Y1170000D01*
X1423714D01*
X1431331Y1192853D02*
Y1189044D01*
X1438949Y1181426D01*
X1446566Y1189044D01*
Y1192853D01*
X1438949Y1181426D02*
Y1170000D01*
X1477036Y1192853D02*
X1492271D01*
X1484654D01*
Y1170000D01*
X1511315Y1192853D02*
X1503698D01*
X1499889Y1189044D01*
Y1173809D01*
X1503698Y1170000D01*
X1511315D01*
X1515124Y1173809D01*
Y1189044D01*
X1511315Y1192853D01*
X1545594D02*
Y1170000D01*
X1557021D01*
X1560829Y1173809D01*
Y1177617D01*
X1557021Y1181426D01*
X1545594D01*
X1557021D01*
X1560829Y1185235D01*
Y1189044D01*
X1557021Y1192853D01*
X1545594D01*
X1579873D02*
X1572256D01*
X1568447Y1189044D01*
Y1173809D01*
X1572256Y1170000D01*
X1579873D01*
X1583682Y1173809D01*
Y1189044D01*
X1579873Y1192853D01*
X1591299D02*
X1606534D01*
X1598917D01*
Y1170000D01*
X1614152Y1192853D02*
Y1170000D01*
Y1181426D01*
X1629387D01*
Y1192853D01*
Y1170000D01*
X1675092Y1189044D02*
X1671284Y1192853D01*
X1663666D01*
X1659857Y1189044D01*
Y1185235D01*
X1663666Y1181426D01*
X1671284D01*
X1675092Y1177617D01*
Y1173809D01*
X1671284Y1170000D01*
X1663666D01*
X1659857Y1173809D01*
X1682710Y1192853D02*
X1690327D01*
X1686519D01*
Y1170000D01*
X1682710D01*
X1690327D01*
X1701754Y1192853D02*
Y1170000D01*
X1713180D01*
X1716989Y1173809D01*
Y1189044D01*
X1713180Y1192853D01*
X1701754D01*
X1739841D02*
X1724606D01*
Y1170000D01*
X1739841D01*
X1724606Y1181426D02*
X1732224D01*
X1762694Y1189044D02*
X1758885Y1192853D01*
X1751268D01*
X1747459Y1189044D01*
Y1185235D01*
X1751268Y1181426D01*
X1758885D01*
X1762694Y1177617D01*
Y1173809D01*
X1758885Y1170000D01*
X1751268D01*
X1747459Y1173809D01*
X1808399Y1189044D02*
X1804590Y1192853D01*
X1796973D01*
X1793164Y1189044D01*
Y1173809D01*
X1796973Y1170000D01*
X1804590D01*
X1808399Y1173809D01*
X1827443Y1192853D02*
X1819825D01*
X1816017Y1189044D01*
Y1173809D01*
X1819825Y1170000D01*
X1827443D01*
X1831252Y1173809D01*
Y1189044D01*
X1827443Y1192853D01*
X1838869D02*
Y1170000D01*
X1854104D01*
X1873148Y1192853D02*
X1865531D01*
X1861722Y1189044D01*
Y1173809D01*
X1865531Y1170000D01*
X1873148D01*
X1876957Y1173809D01*
Y1189044D01*
X1873148Y1192853D01*
X1884574D02*
Y1173809D01*
X1888383Y1170000D01*
X1896001D01*
X1899810Y1173809D01*
Y1192853D01*
X1907427Y1170000D02*
Y1192853D01*
X1918853D01*
X1922662Y1189044D01*
Y1181426D01*
X1918853Y1177617D01*
X1907427D01*
X1915045D02*
X1922662Y1170000D01*
X1953132Y1181426D02*
X1968367D01*
X1998838Y1192853D02*
Y1170000D01*
X2010264D01*
X2014073Y1173809D01*
Y1177617D01*
X2010264Y1181426D01*
X1998838D01*
X2010264D01*
X2014073Y1185235D01*
Y1189044D01*
X2010264Y1192853D01*
X1998838D01*
X2021690D02*
Y1170000D01*
X2036925D01*
X2044543Y1192853D02*
Y1173809D01*
X2048352Y1170000D01*
X2055969D01*
X2059778Y1173809D01*
Y1192853D01*
X2082630D02*
X2067395D01*
Y1170000D01*
X2082630D01*
X2067395Y1181426D02*
X2075013D01*
X955235Y1230000D02*
X940000D01*
X955235Y1245235D01*
Y1249044D01*
X951426Y1252853D01*
X943809D01*
X940000Y1249044D01*
X962853Y1230000D02*
Y1233809D01*
X966661D01*
Y1230000D01*
X962853D01*
X1004749Y1252853D02*
Y1230000D01*
X1016175D01*
X1019984Y1233809D01*
Y1237617D01*
X1016175Y1241426D01*
X1004749D01*
X1016175D01*
X1019984Y1245235D01*
Y1249044D01*
X1016175Y1252853D01*
X1004749D01*
X1039028D02*
X1031411D01*
X1027602Y1249044D01*
Y1233809D01*
X1031411Y1230000D01*
X1039028D01*
X1042837Y1233809D01*
Y1249044D01*
X1039028Y1252853D01*
X1050454Y1230000D02*
Y1245235D01*
X1058072Y1252853D01*
X1065689Y1245235D01*
Y1230000D01*
Y1241426D01*
X1050454D01*
X1073307Y1230000D02*
Y1252853D01*
X1084733D01*
X1088542Y1249044D01*
Y1241426D01*
X1084733Y1237617D01*
X1073307D01*
X1080924D02*
X1088542Y1230000D01*
X1096160Y1252853D02*
Y1230000D01*
X1107586D01*
X1111395Y1233809D01*
Y1249044D01*
X1107586Y1252853D01*
X1096160D01*
X1157100D02*
X1141865D01*
Y1241426D01*
X1149482D01*
X1141865D01*
Y1230000D01*
X1164717Y1252853D02*
X1172335D01*
X1168526D01*
Y1230000D01*
X1164717D01*
X1172335D01*
X1183761D02*
Y1252853D01*
X1198996Y1230000D01*
Y1252853D01*
X1206614D02*
X1214231D01*
X1210423D01*
Y1230000D01*
X1206614D01*
X1214231D01*
X1240893Y1249044D02*
X1237084Y1252853D01*
X1229466D01*
X1225658Y1249044D01*
Y1245235D01*
X1229466Y1241426D01*
X1237084D01*
X1240893Y1237617D01*
Y1233809D01*
X1237084Y1230000D01*
X1229466D01*
X1225658Y1233809D01*
X1248510Y1252853D02*
Y1230000D01*
Y1241426D01*
X1263745D01*
Y1252853D01*
Y1230000D01*
X1271363Y1245235D02*
X1275172D01*
Y1241426D01*
X1271363D01*
Y1245235D01*
Y1233809D02*
X1275172D01*
Y1230000D01*
X1271363D01*
Y1233809D01*
X1313259Y1252853D02*
X1320877D01*
X1317068D01*
Y1230000D01*
X1313259D01*
X1320877D01*
X1332303D02*
Y1252853D01*
X1339921Y1245235D01*
X1347538Y1252853D01*
Y1230000D01*
X1355156D02*
Y1252853D01*
X1362773Y1245235D01*
X1370391Y1252853D01*
Y1230000D01*
X1393244Y1252853D02*
X1378008D01*
Y1230000D01*
X1393244D01*
X1378008Y1241426D02*
X1385626D01*
X1400861Y1230000D02*
Y1252853D01*
X1412287D01*
X1416096Y1249044D01*
Y1241426D01*
X1412287Y1237617D01*
X1400861D01*
X1408479D02*
X1416096Y1230000D01*
X1438949Y1249044D02*
X1435140Y1252853D01*
X1427522D01*
X1423714Y1249044D01*
Y1245235D01*
X1427522Y1241426D01*
X1435140D01*
X1438949Y1237617D01*
Y1233809D01*
X1435140Y1230000D01*
X1427522D01*
X1423714Y1233809D01*
X1446566Y1252853D02*
X1454184D01*
X1450375D01*
Y1230000D01*
X1446566D01*
X1454184D01*
X1477036Y1252853D02*
X1469419D01*
X1465610Y1249044D01*
Y1233809D01*
X1469419Y1230000D01*
X1477036D01*
X1480845Y1233809D01*
Y1249044D01*
X1477036Y1252853D01*
X1488463Y1230000D02*
Y1252853D01*
X1503698Y1230000D01*
Y1252853D01*
X1534168Y1230000D02*
Y1245235D01*
X1541785Y1252853D01*
X1549403Y1245235D01*
Y1230000D01*
Y1241426D01*
X1534168D01*
X1557021Y1245235D02*
Y1233809D01*
X1560829Y1230000D01*
X1572256D01*
Y1245235D01*
X1579873Y1230000D02*
X1595108Y1245235D01*
X1617961Y1252853D02*
X1602726D01*
Y1230000D01*
X1617961D01*
X1602726Y1241426D02*
X1610343D01*
X1625578Y1252853D02*
Y1230000D01*
X1640813D01*
X1663666Y1252853D02*
X1648431D01*
Y1230000D01*
X1663666D01*
X1648431Y1241426D02*
X1656048D01*
X1686519Y1249044D02*
X1682710Y1252853D01*
X1675092D01*
X1671284Y1249044D01*
Y1233809D01*
X1675092Y1230000D01*
X1682710D01*
X1686519Y1233809D01*
X1694136Y1252853D02*
X1709371D01*
X1701754D01*
Y1230000D01*
X1716989D02*
Y1252853D01*
X1728415D01*
X1732224Y1249044D01*
Y1241426D01*
X1728415Y1237617D01*
X1716989D01*
X1724606D02*
X1732224Y1230000D01*
X1751268Y1252853D02*
X1743650D01*
X1739841Y1249044D01*
Y1233809D01*
X1743650Y1230000D01*
X1751268D01*
X1755076Y1233809D01*
Y1249044D01*
X1751268Y1252853D01*
X1762694D02*
Y1230000D01*
X1777929D01*
X1800782Y1252853D02*
X1785547D01*
Y1230000D01*
X1800782D01*
X1785547Y1241426D02*
X1793164D01*
X1823634Y1249044D02*
X1819825Y1252853D01*
X1812208D01*
X1808399Y1249044D01*
Y1245235D01*
X1812208Y1241426D01*
X1819825D01*
X1823634Y1237617D01*
Y1233809D01*
X1819825Y1230000D01*
X1812208D01*
X1808399Y1233809D01*
X1846487Y1249044D02*
X1842678Y1252853D01*
X1835061D01*
X1831252Y1249044D01*
Y1245235D01*
X1835061Y1241426D01*
X1842678D01*
X1846487Y1237617D01*
Y1233809D01*
X1842678Y1230000D01*
X1835061D01*
X1831252Y1233809D01*
X1876957Y1230000D02*
Y1252853D01*
X1892192Y1230000D01*
Y1252853D01*
X1899810Y1230000D02*
X1907427D01*
X1903618D01*
Y1245235D01*
X1899810D01*
X1918853Y1241426D02*
Y1245235D01*
X1922662D01*
Y1241426D01*
X1918853D01*
Y1233809D02*
X1922662D01*
Y1230000D01*
X1918853Y1226191D01*
X1922662Y1230000D02*
X1918853D01*
Y1233809D01*
X1960750Y1249044D02*
X1964559Y1252853D01*
X1972176D01*
X1975985Y1249044D01*
Y1233809D01*
X1972176Y1230000D01*
X1964559D01*
X1960750Y1233809D01*
Y1249044D01*
X1983603Y1230000D02*
Y1233809D01*
X1987411D01*
Y1230000D01*
X1983603D01*
X2002646Y1249044D02*
X2006455Y1252853D01*
X2014073D01*
X2017881Y1249044D01*
Y1233809D01*
X2014073Y1230000D01*
X2006455D01*
X2002646Y1233809D01*
Y1249044D01*
X2040734Y1252853D02*
X2025499D01*
Y1241426D01*
X2033117Y1245235D01*
X2036925D01*
X2040734Y1241426D01*
Y1233809D01*
X2036925Y1230000D01*
X2029308D01*
X2025499Y1233809D01*
X2048352Y1241426D02*
X2063587D01*
X2071204Y1249044D02*
X2075013Y1252853D01*
X2082631D01*
X2086439Y1249044D01*
Y1233809D01*
X2082631Y1230000D01*
X2075013D01*
X2071204Y1233809D01*
Y1249044D01*
X2094057Y1230000D02*
Y1233809D01*
X2097866D01*
Y1230000D01*
X2094057D01*
X2113101D02*
X2120718D01*
X2116909D01*
Y1252853D01*
X2113101Y1249044D01*
X2147380Y1230000D02*
X2132145D01*
X2147380Y1245235D01*
Y1249044D01*
X2143571Y1252853D01*
X2135953D01*
X2132145Y1249044D01*
X2177850Y1245235D02*
Y1233809D01*
X2181659Y1230000D01*
X2193085D01*
Y1245235D01*
X2200702Y1230000D02*
Y1245235D01*
X2204511D01*
X2208320Y1241426D01*
Y1230000D01*
Y1241426D01*
X2212129Y1245235D01*
X2215938Y1241426D01*
Y1230000D01*
X2261643Y1249044D02*
X2257834Y1252853D01*
X2250216D01*
X2246408Y1249044D01*
Y1233809D01*
X2250216Y1230000D01*
X2257834D01*
X2261643Y1233809D01*
Y1241426D01*
X2254025D01*
X2280686Y1252853D02*
X2273069D01*
X2269260Y1249044D01*
Y1233809D01*
X2273069Y1230000D01*
X2280686D01*
X2284495Y1233809D01*
Y1249044D01*
X2280686Y1252853D01*
X2292113D02*
Y1230000D01*
X2307348D01*
X2314965Y1252853D02*
Y1230000D01*
X2326392D01*
X2330201Y1233809D01*
Y1249044D01*
X2326392Y1252853D01*
X2314965D01*
X2337818Y1241426D02*
Y1245235D01*
X2341627D01*
Y1241426D01*
X2337818D01*
Y1233809D02*
X2341627D01*
Y1230000D01*
X2337818Y1226191D01*
X2341627Y1230000D02*
X2337818D01*
Y1233809D01*
X2379715Y1249044D02*
X2383523Y1252853D01*
X2391141D01*
X2394950Y1249044D01*
Y1245235D01*
X2391141Y1241426D01*
X2387332D01*
X2391141D01*
X2394950Y1237617D01*
Y1233809D01*
X2391141Y1230000D01*
X2383523D01*
X2379715Y1233809D01*
X2402567Y1241426D02*
X2417802D01*
X2440655Y1252853D02*
X2433037Y1249044D01*
X2425420Y1241426D01*
Y1233809D01*
X2429229Y1230000D01*
X2436846D01*
X2440655Y1233809D01*
Y1237617D01*
X2436846Y1241426D01*
X2425420D01*
X2448272Y1245235D02*
Y1233809D01*
X2452081Y1230000D01*
X2463507D01*
Y1245235D01*
X2471125Y1230000D02*
Y1245235D01*
X2474934D01*
X2478743Y1241426D01*
Y1230000D01*
Y1241426D01*
X2482551Y1245235D01*
X2486360Y1241426D01*
Y1230000D01*
X2516830D02*
Y1252853D01*
X2532065Y1230000D01*
Y1252853D01*
X2539683D02*
X2547300D01*
X2543492D01*
Y1230000D01*
X2539683D01*
X2547300D01*
X2573962Y1249044D02*
X2570153Y1252853D01*
X2562535D01*
X2558727Y1249044D01*
Y1233809D01*
X2562535Y1230000D01*
X2570153D01*
X2573962Y1233809D01*
X2581579Y1252853D02*
Y1230000D01*
Y1237617D01*
X2596814Y1252853D01*
X2585388Y1241426D01*
X2596814Y1230000D01*
X2619667Y1252853D02*
X2604432D01*
Y1230000D01*
X2619667D01*
X2604432Y1241426D02*
X2612049D01*
X2627285Y1252853D02*
Y1230000D01*
X2642520D01*
X940000Y1290000D02*
X947617D01*
X943809D01*
Y1312853D01*
X940000Y1309044D01*
X959044Y1290000D02*
Y1293809D01*
X962853D01*
Y1290000D01*
X959044D01*
X1016175Y1312853D02*
X1000940D01*
Y1301426D01*
X1008558D01*
X1000940D01*
Y1290000D01*
X1023793Y1312853D02*
X1031411D01*
X1027602D01*
Y1290000D01*
X1023793D01*
X1031411D01*
X1042837D02*
Y1312853D01*
X1058072Y1290000D01*
Y1312853D01*
X1065689D02*
X1073307D01*
X1069498D01*
Y1290000D01*
X1065689D01*
X1073307D01*
X1099968Y1309044D02*
X1096160Y1312853D01*
X1088542D01*
X1084733Y1309044D01*
Y1305235D01*
X1088542Y1301426D01*
X1096160D01*
X1099968Y1297617D01*
Y1293809D01*
X1096160Y1290000D01*
X1088542D01*
X1084733Y1293809D01*
X1107586Y1312853D02*
Y1290000D01*
Y1301426D01*
X1122821D01*
Y1312853D01*
Y1290000D01*
X1145674Y1312853D02*
X1130439D01*
Y1290000D01*
X1145674D01*
X1130439Y1301426D02*
X1138056D01*
X1153291Y1312853D02*
Y1290000D01*
X1164717D01*
X1168526Y1293809D01*
Y1309044D01*
X1164717Y1312853D01*
X1153291D01*
X1198996Y1290000D02*
Y1312853D01*
X1210423D01*
X1214231Y1309044D01*
Y1301426D01*
X1210423Y1297617D01*
X1198996D01*
X1221849Y1290000D02*
Y1305235D01*
X1229466Y1312853D01*
X1237084Y1305235D01*
Y1290000D01*
Y1301426D01*
X1221849D01*
X1244702Y1290000D02*
Y1312853D01*
X1259937Y1290000D01*
Y1312853D01*
X1282789D02*
X1267554D01*
Y1290000D01*
X1282789D01*
X1267554Y1301426D02*
X1275172D01*
X1290407Y1312853D02*
Y1290000D01*
X1305642D01*
X1336112Y1312853D02*
X1351347D01*
X1343730D01*
Y1290000D01*
X1358965Y1312853D02*
Y1290000D01*
Y1301426D01*
X1374200D01*
Y1312853D01*
Y1290000D01*
X1381817Y1312853D02*
X1389435D01*
X1385626D01*
Y1290000D01*
X1381817D01*
X1389435D01*
X1416096Y1309044D02*
X1412287Y1312853D01*
X1404670D01*
X1400861Y1309044D01*
Y1293809D01*
X1404670Y1290000D01*
X1412287D01*
X1416096Y1293809D01*
X1423714Y1312853D02*
Y1290000D01*
Y1297617D01*
X1438949Y1312853D01*
X1427522Y1301426D01*
X1438949Y1290000D01*
X1446566D02*
Y1312853D01*
X1461801Y1290000D01*
Y1312853D01*
X1484654D02*
X1469419D01*
Y1290000D01*
X1484654D01*
X1469419Y1301426D02*
X1477036D01*
X1507507Y1309044D02*
X1503698Y1312853D01*
X1496080D01*
X1492271Y1309044D01*
Y1305235D01*
X1496080Y1301426D01*
X1503698D01*
X1507507Y1297617D01*
Y1293809D01*
X1503698Y1290000D01*
X1496080D01*
X1492271Y1293809D01*
X1530359Y1309044D02*
X1526550Y1312853D01*
X1518933D01*
X1515124Y1309044D01*
Y1305235D01*
X1518933Y1301426D01*
X1526550D01*
X1530359Y1297617D01*
Y1293809D01*
X1526550Y1290000D01*
X1518933D01*
X1515124Y1293809D01*
X1560829Y1312853D02*
X1568447D01*
X1564638D01*
Y1290000D01*
X1560829D01*
X1568447D01*
X1595108Y1309044D02*
X1591299Y1312853D01*
X1583682D01*
X1579873Y1309044D01*
Y1305235D01*
X1583682Y1301426D01*
X1591299D01*
X1595108Y1297617D01*
Y1293809D01*
X1591299Y1290000D01*
X1583682D01*
X1579873Y1293809D01*
X1625578Y1290000D02*
Y1312853D01*
X1640813Y1290000D01*
Y1312853D01*
X1659857D02*
X1652240D01*
X1648431Y1309044D01*
Y1293809D01*
X1652240Y1290000D01*
X1659857D01*
X1663666Y1293809D01*
Y1309044D01*
X1659857Y1312853D01*
X1671284D02*
X1686519D01*
X1678901D01*
Y1290000D01*
X1732224Y1309044D02*
X1728415Y1312853D01*
X1720797D01*
X1716989Y1309044D01*
Y1293809D01*
X1720797Y1290000D01*
X1728415D01*
X1732224Y1293809D01*
X1739841Y1290000D02*
Y1312853D01*
X1751268D01*
X1755076Y1309044D01*
Y1301426D01*
X1751268Y1297617D01*
X1739841D01*
X1747459D02*
X1755076Y1290000D01*
X1762694Y1312853D02*
X1770311D01*
X1766503D01*
Y1290000D01*
X1762694D01*
X1770311D01*
X1781738Y1312853D02*
X1796973D01*
X1789355D01*
Y1290000D01*
X1804590Y1312853D02*
X1812208D01*
X1808399D01*
Y1290000D01*
X1804590D01*
X1812208D01*
X1838869Y1309044D02*
X1835061Y1312853D01*
X1827443D01*
X1823634Y1309044D01*
Y1293809D01*
X1827443Y1290000D01*
X1835061D01*
X1838869Y1293809D01*
X1846487Y1290000D02*
Y1305235D01*
X1854104Y1312853D01*
X1861722Y1305235D01*
Y1290000D01*
Y1301426D01*
X1846487D01*
X1869339Y1312853D02*
Y1290000D01*
X1884575D01*
X1892192Y1305235D02*
X1896001D01*
Y1301426D01*
X1892192D01*
Y1305235D01*
Y1293809D02*
X1896001D01*
Y1290000D01*
X1892192D01*
Y1293809D01*
X1934089Y1312853D02*
X1949324D01*
X1941706D01*
Y1290000D01*
X1968367Y1312853D02*
X1960750D01*
X1956941Y1309044D01*
Y1293809D01*
X1960750Y1290000D01*
X1968367D01*
X1972176Y1293809D01*
Y1309044D01*
X1968367Y1312853D01*
X2002646D02*
Y1290000D01*
X2014073D01*
X2017881Y1293809D01*
Y1297617D01*
X2014073Y1301426D01*
X2002646D01*
X2014073D01*
X2017881Y1305235D01*
Y1309044D01*
X2014073Y1312853D01*
X2002646D01*
X2040734D02*
X2025499D01*
Y1290000D01*
X2040734D01*
X2025499Y1301426D02*
X2033117D01*
X2071204Y1290000D02*
Y1305235D01*
X2078822Y1312853D01*
X2086439Y1305235D01*
Y1290000D01*
Y1301426D01*
X2071204D01*
X2094057Y1290000D02*
Y1312853D01*
X2105483D01*
X2109292Y1309044D01*
Y1301426D01*
X2105483Y1297617D01*
X2094057D01*
X2116909Y1290000D02*
Y1312853D01*
X2128336D01*
X2132144Y1309044D01*
Y1301426D01*
X2128336Y1297617D01*
X2116909D01*
X2139762Y1290000D02*
Y1312853D01*
X2151188D01*
X2154997Y1309044D01*
Y1301426D01*
X2151188Y1297617D01*
X2139762D01*
X2147380D02*
X2154997Y1290000D01*
X2174041Y1312853D02*
X2166423D01*
X2162615Y1309044D01*
Y1293809D01*
X2166423Y1290000D01*
X2174041D01*
X2177850Y1293809D01*
Y1309044D01*
X2174041Y1312853D01*
X2185467D02*
X2200702Y1290000D01*
Y1312853D02*
X2185467Y1290000D01*
X2208320Y1312853D02*
X2215937D01*
X2212129D01*
Y1290000D01*
X2208320D01*
X2215937D01*
X2227364D02*
Y1312853D01*
X2234981Y1305235D01*
X2242599Y1312853D01*
Y1290000D01*
X2250216D02*
Y1305235D01*
X2257834Y1312853D01*
X2265451Y1305235D01*
Y1290000D01*
Y1301426D01*
X2250216D01*
X2273069Y1312853D02*
X2288304D01*
X2280686D01*
Y1290000D01*
X2311157Y1312853D02*
X2295922D01*
Y1290000D01*
X2311157D01*
X2295922Y1301426D02*
X2303539D01*
X2318774Y1312853D02*
Y1290000D01*
X2334009D01*
X2341627Y1312853D02*
Y1309044D01*
X2349244Y1301426D01*
X2356862Y1309044D01*
Y1312853D01*
X2349244Y1301426D02*
Y1290000D01*
X2387332D02*
X2394949D01*
X2391141D01*
Y1312853D01*
X2387332Y1309044D01*
X2406376Y1290000D02*
Y1293809D01*
X2410185D01*
Y1290000D01*
X2406376D01*
X2440655Y1312853D02*
X2433037Y1309044D01*
X2425420Y1301426D01*
Y1293809D01*
X2429229Y1290000D01*
X2436846D01*
X2440655Y1293809D01*
Y1297617D01*
X2436846Y1301426D01*
X2425420D01*
X2448272Y1290000D02*
Y1305235D01*
X2452081D01*
X2455890Y1301426D01*
Y1290000D01*
Y1301426D01*
X2459699Y1305235D01*
X2463507Y1301426D01*
Y1290000D01*
X2471125D02*
Y1305235D01*
X2474934D01*
X2478743Y1301426D01*
Y1290000D01*
Y1301426D01*
X2482551Y1305235D01*
X2486360Y1301426D01*
Y1290000D01*
X940000Y1350000D02*
Y1372853D01*
X947617Y1365235D01*
X955235Y1372853D01*
Y1350000D01*
X962853D02*
X970470D01*
X966661D01*
Y1365235D01*
X962853D01*
X981897Y1350000D02*
Y1365235D01*
X993323D01*
X997132Y1361426D01*
Y1350000D01*
X1004749D02*
X1012367D01*
X1008558D01*
Y1365235D01*
X1004749D01*
X1023793Y1350000D02*
Y1365235D01*
X1027602D01*
X1031411Y1361426D01*
Y1350000D01*
Y1361426D01*
X1035219Y1365235D01*
X1039028Y1361426D01*
Y1350000D01*
X1046646Y1365235D02*
Y1353809D01*
X1050454Y1350000D01*
X1061881D01*
Y1365235D01*
X1069498Y1350000D02*
Y1365235D01*
X1073307D01*
X1077116Y1361426D01*
Y1350000D01*
Y1361426D01*
X1080925Y1365235D01*
X1084733Y1361426D01*
Y1350000D01*
X1115203Y1372853D02*
X1130438D01*
X1122821D01*
Y1350000D01*
X1138056Y1372853D02*
Y1350000D01*
Y1361426D01*
X1141865Y1365235D01*
X1149482D01*
X1153291Y1361426D01*
Y1350000D01*
X1160909Y1365235D02*
Y1350000D01*
Y1357617D01*
X1164717Y1361426D01*
X1168526Y1365235D01*
X1172335D01*
X1187570Y1350000D02*
X1195188D01*
X1198996Y1353809D01*
Y1361426D01*
X1195188Y1365235D01*
X1187570D01*
X1183761Y1361426D01*
Y1353809D01*
X1187570Y1350000D01*
X1206614Y1365235D02*
Y1353809D01*
X1210423Y1350000D01*
X1221849D01*
Y1365235D01*
X1237084Y1342383D02*
X1240893D01*
X1244702Y1346191D01*
Y1365235D01*
X1233275D01*
X1229466Y1361426D01*
Y1353809D01*
X1233275Y1350000D01*
X1244702D01*
X1252319Y1372853D02*
Y1350000D01*
Y1361426D01*
X1256128Y1365235D01*
X1263745D01*
X1267554Y1361426D01*
Y1350000D01*
X1298024Y1372853D02*
Y1350000D01*
Y1361426D01*
X1313259D01*
Y1372853D01*
Y1350000D01*
X1324686D02*
X1332303D01*
X1336112Y1353809D01*
Y1361426D01*
X1332303Y1365235D01*
X1324686D01*
X1320877Y1361426D01*
Y1353809D01*
X1324686Y1350000D01*
X1343729D02*
X1351347D01*
X1347538D01*
Y1372853D01*
X1343729D01*
X1374200Y1350000D02*
X1366582D01*
X1362773Y1353809D01*
Y1361426D01*
X1366582Y1365235D01*
X1374200D01*
X1378008Y1361426D01*
Y1357617D01*
X1362773D01*
X1408479Y1372853D02*
Y1357617D01*
X1416096Y1350000D01*
X1423714Y1357617D01*
Y1372853D01*
X1431331D02*
X1438949D01*
X1435140D01*
Y1350000D01*
X1431331D01*
X1438949D01*
X1450375D02*
Y1365235D01*
X1457993Y1372853D01*
X1465610Y1365235D01*
Y1350000D01*
Y1361426D01*
X1450375D01*
X1473228Y1365235D02*
X1477036D01*
Y1361426D01*
X1473228D01*
Y1365235D01*
Y1353809D02*
X1477036D01*
Y1350000D01*
X1473228D01*
Y1353809D01*
X1515124Y1369044D02*
X1518933Y1372853D01*
X1526550D01*
X1530359Y1369044D01*
Y1353809D01*
X1526550Y1350000D01*
X1518933D01*
X1515124Y1353809D01*
Y1369044D01*
X1537977Y1350000D02*
Y1353809D01*
X1541785D01*
Y1350000D01*
X1537977D01*
X1572256Y1372853D02*
X1564638Y1369044D01*
X1557021Y1361426D01*
Y1353809D01*
X1560829Y1350000D01*
X1568447D01*
X1572256Y1353809D01*
Y1357617D01*
X1568447Y1361426D01*
X1557021D01*
X1579873Y1350000D02*
Y1365235D01*
X1583682D01*
X1587491Y1361426D01*
Y1350000D01*
Y1361426D01*
X1591299Y1365235D01*
X1595108Y1361426D01*
Y1350000D01*
X1602726D02*
Y1365235D01*
X1606534D01*
X1610343Y1361426D01*
Y1350000D01*
Y1361426D01*
X1614152Y1365235D01*
X1617961Y1361426D01*
Y1350000D01*
X1656048D02*
X1648431Y1357617D01*
Y1365235D01*
X1656048Y1372853D01*
X1667475Y1342383D02*
Y1365235D01*
X1678901D01*
X1682710Y1361426D01*
Y1353809D01*
X1678901Y1350000D01*
X1667475D01*
X1694136Y1365235D02*
X1701754D01*
X1705562Y1361426D01*
Y1350000D01*
X1694136D01*
X1690327Y1353809D01*
X1694136Y1357617D01*
X1705562D01*
X1728415Y1372853D02*
Y1350000D01*
X1716989D01*
X1713180Y1353809D01*
Y1361426D01*
X1716989Y1365235D01*
X1728415D01*
X1736033Y1350000D02*
X1743650Y1357617D01*
Y1365235D01*
X1736033Y1372853D01*
X1777929Y1350000D02*
X1793164Y1365235D01*
X1823634Y1369044D02*
X1827443Y1372853D01*
X1835061D01*
X1838869Y1369044D01*
Y1353809D01*
X1835061Y1350000D01*
X1827443D01*
X1823634Y1353809D01*
Y1369044D01*
X1846487Y1350000D02*
Y1353809D01*
X1850296D01*
Y1350000D01*
X1846487D01*
X1865531Y1369044D02*
X1869339Y1372853D01*
X1876957D01*
X1880766Y1369044D01*
Y1365235D01*
X1876957Y1361426D01*
X1873148D01*
X1876957D01*
X1880766Y1357617D01*
Y1353809D01*
X1876957Y1350000D01*
X1869339D01*
X1865531Y1353809D01*
X1888383Y1350000D02*
Y1365235D01*
X1892192D01*
X1896001Y1361426D01*
Y1350000D01*
Y1361426D01*
X1899810Y1365235D01*
X1903618Y1361426D01*
Y1350000D01*
X1911236D02*
Y1365235D01*
X1915045D01*
X1918853Y1361426D01*
Y1350000D01*
Y1361426D01*
X1922662Y1365235D01*
X1926471Y1361426D01*
Y1350000D01*
X1964559D02*
X1956941Y1357617D01*
Y1365235D01*
X1964559Y1372853D01*
X1991220D02*
Y1350000D01*
X1979794D01*
X1975985Y1353809D01*
Y1361426D01*
X1979794Y1365235D01*
X1991220D01*
X1998838D02*
Y1350000D01*
Y1357617D01*
X2002646Y1361426D01*
X2006455Y1365235D01*
X2010264D01*
X2021690Y1350000D02*
X2029308D01*
X2025499D01*
Y1365235D01*
X2021690D01*
X2040734Y1350000D02*
X2048352D01*
X2044543D01*
Y1372853D01*
X2040734D01*
X2059778Y1350000D02*
X2067395D01*
X2063587D01*
Y1372853D01*
X2059778D01*
X2078822Y1350000D02*
X2086439Y1357617D01*
Y1365235D01*
X2078822Y1372853D01*
X2097866Y1350000D02*
Y1353809D01*
X2101674D01*
Y1350000D01*
X2097866D01*
X2139762Y1372853D02*
Y1350000D01*
X2151189D01*
X2154997Y1353809D01*
Y1369044D01*
X2151189Y1372853D01*
X2139762D01*
X2162615Y1365235D02*
Y1350000D01*
Y1357617D01*
X2166423Y1361426D01*
X2170232Y1365235D01*
X2174041D01*
X2185467Y1350000D02*
X2193085D01*
X2189276D01*
Y1365235D01*
X2185467D01*
X2204511Y1350000D02*
X2212129D01*
X2208320D01*
Y1372853D01*
X2204511D01*
X2223555Y1350000D02*
X2231173D01*
X2227364D01*
Y1372853D01*
X2223555D01*
X2242599Y1350000D02*
X2250217D01*
X2246408D01*
Y1365235D01*
X2242599D01*
X2261643Y1350000D02*
Y1365235D01*
X2273069D01*
X2276878Y1361426D01*
Y1350000D01*
X2292113Y1342383D02*
X2295922D01*
X2299731Y1346191D01*
Y1365235D01*
X2288304D01*
X2284495Y1361426D01*
Y1353809D01*
X2288304Y1350000D01*
X2299731D01*
X2307348Y1365235D02*
X2311157D01*
Y1361426D01*
X2307348D01*
Y1365235D01*
Y1353809D02*
X2311157D01*
Y1350000D01*
X2307348D01*
Y1353809D01*
X2349245Y1372853D02*
Y1350000D01*
X2364480D01*
X2372097D02*
X2379715D01*
X2375906D01*
Y1372853D01*
X2372097Y1369044D01*
X2391141Y1361426D02*
X2406376D01*
X2413994Y1372853D02*
Y1350000D01*
X2429229D01*
X2452081D02*
X2436846D01*
X2452081Y1365235D01*
Y1369044D01*
X2448272Y1372853D01*
X2440655D01*
X2436846Y1369044D01*
X940000Y1390000D02*
Y1412853D01*
X947617Y1405235D01*
X955235Y1412853D01*
Y1390000D01*
X962853D02*
X970470D01*
X966661D01*
Y1405235D01*
X962853D01*
X981897Y1390000D02*
Y1405235D01*
X993323D01*
X997132Y1401426D01*
Y1390000D01*
X1004749D02*
X1012367D01*
X1008558D01*
Y1405235D01*
X1004749D01*
X1023793Y1390000D02*
Y1405235D01*
X1027602D01*
X1031411Y1401426D01*
Y1390000D01*
Y1401426D01*
X1035219Y1405235D01*
X1039028Y1401426D01*
Y1390000D01*
X1046646Y1405235D02*
Y1393809D01*
X1050454Y1390000D01*
X1061881D01*
Y1405235D01*
X1069498Y1390000D02*
Y1405235D01*
X1073307D01*
X1077116Y1401426D01*
Y1390000D01*
Y1401426D01*
X1080925Y1405235D01*
X1084733Y1401426D01*
Y1390000D01*
X1130438Y1409044D02*
X1126630Y1412853D01*
X1119012D01*
X1115203Y1409044D01*
Y1393809D01*
X1119012Y1390000D01*
X1126630D01*
X1130438Y1393809D01*
Y1401426D01*
X1122821D01*
X1141865Y1405235D02*
X1149482D01*
X1153291Y1401426D01*
Y1390000D01*
X1141865D01*
X1138056Y1393809D01*
X1141865Y1397618D01*
X1153291D01*
X1160909Y1382383D02*
Y1405235D01*
X1172335D01*
X1176144Y1401426D01*
Y1393809D01*
X1172335Y1390000D01*
X1160909D01*
X1183761Y1405235D02*
X1187570D01*
Y1401426D01*
X1183761D01*
Y1405235D01*
Y1393809D02*
X1187570D01*
Y1390000D01*
X1183761D01*
Y1393809D01*
X1240893Y1390000D02*
X1225658D01*
X1240893Y1405235D01*
Y1409044D01*
X1237084Y1412853D01*
X1229466D01*
X1225658Y1409044D01*
X1248510D02*
X1252319Y1412853D01*
X1259937D01*
X1263745Y1409044D01*
Y1393809D01*
X1259937Y1390000D01*
X1252319D01*
X1248510Y1393809D01*
Y1409044D01*
X1271363D02*
X1275172Y1412853D01*
X1282789D01*
X1286598Y1409044D01*
Y1393809D01*
X1282789Y1390000D01*
X1275172D01*
X1271363Y1393809D01*
Y1409044D01*
X1294216Y1405235D02*
Y1393809D01*
X1298024Y1390000D01*
X1309451D01*
Y1405235D01*
X1317068Y1390000D02*
Y1405235D01*
X1320877D01*
X1324686Y1401426D01*
Y1390000D01*
Y1401426D01*
X1328494Y1405235D01*
X1332303Y1401426D01*
Y1390000D01*
X940000Y1430000D02*
Y1452853D01*
X947617Y1445235D01*
X955235Y1452853D01*
Y1430000D01*
X962853D02*
X970470D01*
X966661D01*
Y1445235D01*
X962853D01*
X981897Y1430000D02*
Y1445235D01*
X993323D01*
X997132Y1441426D01*
Y1430000D01*
X1004749D02*
X1012367D01*
X1008558D01*
Y1445235D01*
X1004749D01*
X1023793Y1430000D02*
Y1445235D01*
X1027602D01*
X1031411Y1441426D01*
Y1430000D01*
Y1441426D01*
X1035219Y1445235D01*
X1039028Y1441426D01*
Y1430000D01*
X1046646Y1445235D02*
Y1433809D01*
X1050454Y1430000D01*
X1061881D01*
Y1445235D01*
X1069498Y1430000D02*
Y1445235D01*
X1073307D01*
X1077116Y1441426D01*
Y1430000D01*
Y1441426D01*
X1080925Y1445235D01*
X1084733Y1441426D01*
Y1430000D01*
X1115203Y1452853D02*
X1130438D01*
X1122821D01*
Y1430000D01*
X1138056Y1445235D02*
Y1430000D01*
Y1437617D01*
X1141865Y1441426D01*
X1145674Y1445235D01*
X1149482D01*
X1164717D02*
X1172335D01*
X1176144Y1441426D01*
Y1430000D01*
X1164717D01*
X1160909Y1433809D01*
X1164717Y1437617D01*
X1176144D01*
X1198996Y1445235D02*
X1187570D01*
X1183761Y1441426D01*
Y1433809D01*
X1187570Y1430000D01*
X1198996D01*
X1206614D02*
Y1452853D01*
Y1437617D02*
X1218040Y1445235D01*
X1206614Y1437617D02*
X1218040Y1430000D01*
X1229466Y1445235D02*
X1233275D01*
Y1441426D01*
X1229466D01*
Y1445235D01*
Y1433809D02*
X1233275D01*
Y1430000D01*
X1229466D01*
Y1433809D01*
X1286598Y1430000D02*
X1271363D01*
X1286598Y1445235D01*
Y1449044D01*
X1282789Y1452853D01*
X1275172D01*
X1271363Y1449044D01*
X1294216D02*
X1298024Y1452853D01*
X1305642D01*
X1309451Y1449044D01*
Y1433809D01*
X1305642Y1430000D01*
X1298024D01*
X1294216Y1433809D01*
Y1449044D01*
X1317068D02*
X1320877Y1452853D01*
X1328494D01*
X1332303Y1449044D01*
Y1433809D01*
X1328494Y1430000D01*
X1320877D01*
X1317068Y1433809D01*
Y1449044D01*
X1339921Y1445235D02*
Y1433809D01*
X1343730Y1430000D01*
X1355156D01*
Y1445235D01*
X1362773Y1430000D02*
Y1445235D01*
X1366582D01*
X1370391Y1441426D01*
Y1430000D01*
Y1441426D01*
X1374200Y1445235D01*
X1378008Y1441426D01*
Y1430000D01*
X940000Y1492853D02*
Y1470000D01*
X951426D01*
X955235Y1473809D01*
Y1477617D01*
X951426Y1481426D01*
X940000D01*
X951426D01*
X955235Y1485235D01*
Y1489044D01*
X951426Y1492853D01*
X940000D01*
X966661Y1470000D02*
X974279D01*
X978088Y1473809D01*
Y1481426D01*
X974279Y1485235D01*
X966661D01*
X962853Y1481426D01*
Y1473809D01*
X966661Y1470000D01*
X989514Y1485235D02*
X997132D01*
X1000940Y1481426D01*
Y1470000D01*
X989514D01*
X985705Y1473809D01*
X989514Y1477617D01*
X1000940D01*
X1008558Y1485235D02*
Y1470000D01*
Y1477617D01*
X1012367Y1481426D01*
X1016175Y1485235D01*
X1019984D01*
X1046646Y1492853D02*
Y1470000D01*
X1035219D01*
X1031410Y1473809D01*
Y1481426D01*
X1035219Y1485235D01*
X1046646D01*
X1077116Y1470000D02*
X1084733D01*
X1080924D01*
Y1485235D01*
X1077116D01*
X1096160Y1470000D02*
Y1485235D01*
X1107586D01*
X1111395Y1481426D01*
Y1470000D01*
X1122821D02*
Y1489044D01*
Y1481426D01*
X1119012D01*
X1126630D01*
X1122821D01*
Y1489044D01*
X1126630Y1492853D01*
X1141865Y1470000D02*
X1149482D01*
X1153291Y1473809D01*
Y1481426D01*
X1149482Y1485235D01*
X1141865D01*
X1138056Y1481426D01*
Y1473809D01*
X1141865Y1470000D01*
X-344765Y1472853D02*
X-360000D01*
Y1461426D01*
X-352383D01*
X-360000D01*
Y1450000D01*
X-337147D02*
X-329530D01*
X-333339D01*
Y1465235D01*
X-337147D01*
X-318104Y1450000D02*
X-310486D01*
X-314295D01*
Y1472853D01*
X-318104D01*
X-287633Y1450000D02*
X-295251D01*
X-299060Y1453809D01*
Y1461426D01*
X-295251Y1465235D01*
X-287633D01*
X-283825Y1461426D01*
Y1457617D01*
X-299060D01*
X-276207Y1450000D02*
X-264781D01*
X-260972Y1453809D01*
X-264781Y1457617D01*
X-272398D01*
X-276207Y1461426D01*
X-272398Y1465235D01*
X-260972D01*
X-360000Y1429044D02*
X-344765Y1413809D01*
X-360000D02*
X-344765Y1429044D01*
X-360000Y1421426D02*
X-344765D01*
X-352383Y1413809D02*
Y1429044D01*
X-337147Y1410000D02*
Y1413809D01*
X-333339D01*
Y1410000D01*
X-337147D01*
X-302868Y1429044D02*
X-306677Y1432853D01*
X-314295D01*
X-318104Y1429044D01*
Y1413809D01*
X-314295Y1410000D01*
X-306677D01*
X-302868Y1413809D01*
Y1421426D01*
X-310486D01*
X-295251Y1432853D02*
X-280016D01*
X-287633D01*
Y1410000D01*
X-260972Y1432853D02*
X-268589D01*
X-272398Y1429044D01*
Y1413809D01*
X-268589Y1410000D01*
X-260972D01*
X-257163Y1413809D01*
Y1429044D01*
X-260972Y1432853D01*
X-226693Y1421426D02*
X-211458D01*
X-180988Y1432853D02*
X-165753D01*
X-173370D01*
Y1410000D01*
X-154326D02*
X-146709D01*
X-142900Y1413809D01*
Y1421426D01*
X-146709Y1425235D01*
X-154326D01*
X-158135Y1421426D01*
Y1413809D01*
X-154326Y1410000D01*
X-135283Y1402383D02*
Y1425235D01*
X-123856D01*
X-120048Y1421426D01*
Y1413809D01*
X-123856Y1410000D01*
X-135283D01*
X-78151Y1432853D02*
X-85769D01*
X-89577Y1429044D01*
Y1413809D01*
X-85769Y1410000D01*
X-78151D01*
X-74342Y1413809D01*
Y1429044D01*
X-78151Y1432853D01*
X-66725Y1425235D02*
X-59107Y1410000D01*
X-51490Y1425235D01*
X-32446Y1410000D02*
X-40063D01*
X-43872Y1413809D01*
Y1421426D01*
X-40063Y1425235D01*
X-32446D01*
X-28637Y1421426D01*
Y1417617D01*
X-43872D01*
X-21020Y1425235D02*
Y1410000D01*
Y1417617D01*
X-17211Y1421426D01*
X-13402Y1425235D01*
X-9593D01*
X1833Y1410000D02*
X9451D01*
X5642D01*
Y1432853D01*
X1833D01*
X24686Y1425235D02*
X32303D01*
X36112Y1421426D01*
Y1410000D01*
X24686D01*
X20877Y1413809D01*
X24686Y1417617D01*
X36112D01*
X43730Y1425235D02*
Y1413809D01*
X47538Y1410000D01*
X58965D01*
Y1406191D01*
X55156Y1402383D01*
X51347D01*
X58965Y1410000D02*
Y1425235D01*
X-360000Y1389044D02*
X-344765Y1373809D01*
X-360000D02*
X-344765Y1389044D01*
X-360000Y1381426D02*
X-344765D01*
X-352383Y1373809D02*
Y1389044D01*
X-337147Y1370000D02*
Y1373809D01*
X-333339D01*
Y1370000D01*
X-337147D01*
X-302868Y1389044D02*
X-306677Y1392853D01*
X-314295D01*
X-318104Y1389044D01*
Y1373809D01*
X-314295Y1370000D01*
X-306677D01*
X-302868Y1373809D01*
Y1381426D01*
X-310486D01*
X-295251Y1392853D02*
X-280016D01*
X-287633D01*
Y1370000D01*
X-272398D02*
Y1392853D01*
X-260972D01*
X-257163Y1389044D01*
Y1381426D01*
X-260972Y1377617D01*
X-272398D01*
X-226693Y1381426D02*
X-211458D01*
X-180988Y1392853D02*
X-165753D01*
X-173370D01*
Y1370000D01*
X-154326D02*
X-146709D01*
X-142900Y1373809D01*
Y1381426D01*
X-146709Y1385235D01*
X-154326D01*
X-158135Y1381426D01*
Y1373809D01*
X-154326Y1370000D01*
X-135283Y1362383D02*
Y1385235D01*
X-123856D01*
X-120048Y1381426D01*
Y1373809D01*
X-123856Y1370000D01*
X-135283D01*
X-89577D02*
Y1392853D01*
X-78151D01*
X-74342Y1389044D01*
Y1381426D01*
X-78151Y1377617D01*
X-89577D01*
X-62916Y1385235D02*
X-55299D01*
X-51490Y1381426D01*
Y1370000D01*
X-62916D01*
X-66725Y1373809D01*
X-62916Y1377617D01*
X-51490D01*
X-43872Y1370000D02*
X-32446D01*
X-28637Y1373809D01*
X-32446Y1377617D01*
X-40063D01*
X-43872Y1381426D01*
X-40063Y1385235D01*
X-28637D01*
X-17211Y1389044D02*
Y1385235D01*
X-21020D01*
X-13402D01*
X-17211D01*
Y1373809D01*
X-13402Y1370000D01*
X9451D02*
X1833D01*
X-1976Y1373809D01*
Y1381426D01*
X1833Y1385235D01*
X9451D01*
X13259Y1381426D01*
Y1377617D01*
X-1976D01*
X-361000Y1029044D02*
X-345765Y1013809D01*
X-361000D02*
X-345765Y1029044D01*
X-361000Y1021426D02*
X-345765D01*
X-353382Y1013809D02*
Y1029044D01*
X-338147Y1010000D02*
Y1013809D01*
X-334339D01*
Y1010000D01*
X-338147D01*
X-303869Y1029044D02*
X-307677Y1032853D01*
X-315295D01*
X-319104Y1029044D01*
Y1013809D01*
X-315295Y1010000D01*
X-307677D01*
X-303869Y1013809D01*
Y1021426D01*
X-311486D01*
X-296251Y1010000D02*
Y1032853D01*
X-288633Y1025235D01*
X-281016Y1032853D01*
Y1010000D01*
X-258163D02*
X-273398D01*
X-258163Y1025235D01*
Y1029044D01*
X-261972Y1032853D01*
X-269590D01*
X-273398Y1029044D01*
X-250546D02*
X-246737Y1032853D01*
X-239119D01*
X-235311Y1029044D01*
Y1025235D01*
X-239119Y1021426D01*
X-235311Y1017617D01*
Y1013809D01*
X-239119Y1010000D01*
X-246737D01*
X-250546Y1013809D01*
Y1017617D01*
X-246737Y1021426D01*
X-250546Y1025235D01*
Y1029044D01*
X-246737Y1021426D02*
X-239119D01*
X-204841D02*
X-189605D01*
X-159135Y1032853D02*
Y1010000D01*
X-147709D01*
X-143900Y1013809D01*
Y1017617D01*
X-147709Y1021426D01*
X-159135D01*
X-147709D01*
X-143900Y1025235D01*
Y1029044D01*
X-147709Y1032853D01*
X-159135D01*
X-132474Y1010000D02*
X-124856D01*
X-121048Y1013809D01*
Y1021426D01*
X-124856Y1025235D01*
X-132474D01*
X-136283Y1021426D01*
Y1013809D01*
X-132474Y1010000D01*
X-109621Y1025235D02*
X-102004D01*
X-98195Y1021426D01*
Y1010000D01*
X-109621D01*
X-113430Y1013809D01*
X-109621Y1017617D01*
X-98195D01*
X-90577Y1025235D02*
Y1010000D01*
Y1017617D01*
X-86769Y1021426D01*
X-82960Y1025235D01*
X-79151D01*
X-52490Y1032853D02*
Y1010000D01*
X-63916D01*
X-67725Y1013809D01*
Y1021426D01*
X-63916Y1025235D01*
X-52490D01*
X-10593Y1032853D02*
X-18211D01*
X-22020Y1029044D01*
Y1013809D01*
X-18211Y1010000D01*
X-10593D01*
X-6784Y1013809D01*
Y1029044D01*
X-10593Y1032853D01*
X833Y1025235D02*
Y1013809D01*
X4642Y1010000D01*
X16068D01*
Y1025235D01*
X27494Y1029044D02*
Y1025235D01*
X23686D01*
X31303D01*
X27494D01*
Y1013809D01*
X31303Y1010000D01*
X42730D02*
X50347D01*
X46538D01*
Y1032853D01*
X42730D01*
X61773Y1010000D02*
X69391D01*
X65582D01*
Y1025235D01*
X61773D01*
X80817Y1010000D02*
Y1025235D01*
X92243D01*
X96052Y1021426D01*
Y1010000D01*
X115096D02*
X107479D01*
X103670Y1013809D01*
Y1021426D01*
X107479Y1025235D01*
X115096D01*
X118905Y1021426D01*
Y1017617D01*
X103670D01*
X-360000Y1069044D02*
X-344765Y1053809D01*
X-360000D02*
X-344765Y1069044D01*
X-360000Y1061426D02*
X-344765D01*
X-352383Y1053809D02*
Y1069044D01*
X-337147Y1050000D02*
Y1053809D01*
X-333339D01*
Y1050000D01*
X-337147D01*
X-302868Y1069044D02*
X-306677Y1072853D01*
X-314295D01*
X-318104Y1069044D01*
Y1053809D01*
X-314295Y1050000D01*
X-306677D01*
X-302868Y1053809D01*
Y1061426D01*
X-310486D01*
X-295251Y1050000D02*
Y1072853D01*
X-287633Y1065235D01*
X-280016Y1072853D01*
Y1050000D01*
X-260972D02*
Y1072853D01*
X-272398Y1061426D01*
X-257163D01*
X-226693D02*
X-211458D01*
X-180988Y1072853D02*
Y1050000D01*
X-165753D01*
X-158135D02*
X-150518D01*
X-154326D01*
Y1065235D01*
X-158135D01*
X-123856D02*
X-135283D01*
X-139091Y1061426D01*
Y1053809D01*
X-135283Y1050000D01*
X-123856D01*
X-104812D02*
X-112430D01*
X-116239Y1053809D01*
Y1061426D01*
X-112430Y1065235D01*
X-104812D01*
X-101004Y1061426D01*
Y1057617D01*
X-116239D01*
X-93386Y1050000D02*
Y1065235D01*
X-81960D01*
X-78151Y1061426D01*
Y1050000D01*
X-55299Y1065235D02*
X-66725D01*
X-70534Y1061426D01*
Y1053809D01*
X-66725Y1050000D01*
X-55299D01*
X-36255D02*
X-43872D01*
X-47681Y1053809D01*
Y1061426D01*
X-43872Y1065235D01*
X-36255D01*
X-32446Y1061426D01*
Y1057617D01*
X-47681D01*
X-360000Y1109044D02*
X-344765Y1093809D01*
X-360000D02*
X-344765Y1109044D01*
X-360000Y1101426D02*
X-344765D01*
X-352383Y1093809D02*
Y1109044D01*
X-337147Y1090000D02*
Y1093809D01*
X-333339D01*
Y1090000D01*
X-337147D01*
X-302868Y1109044D02*
X-306677Y1112853D01*
X-314295D01*
X-318104Y1109044D01*
Y1093809D01*
X-314295Y1090000D01*
X-306677D01*
X-302868Y1093809D01*
Y1101426D01*
X-310486D01*
X-295251Y1090000D02*
Y1112853D01*
X-287633Y1105235D01*
X-280016Y1112853D01*
Y1090000D01*
X-272398Y1109044D02*
X-268589Y1112853D01*
X-260972D01*
X-257163Y1109044D01*
Y1105235D01*
X-260972Y1101426D01*
X-264781D01*
X-260972D01*
X-257163Y1097617D01*
Y1093809D01*
X-260972Y1090000D01*
X-268589D01*
X-272398Y1093809D01*
X-226693Y1101426D02*
X-211458D01*
X-180988Y1090000D02*
Y1112853D01*
X-173370Y1105235D01*
X-165753Y1112853D01*
Y1090000D01*
X-154326Y1105235D02*
X-146709D01*
X-142900Y1101426D01*
Y1090000D01*
X-154326D01*
X-158135Y1093809D01*
X-154326Y1097617D01*
X-142900D01*
X-135283Y1090000D02*
Y1105235D01*
X-123856D01*
X-120048Y1101426D01*
Y1090000D01*
X-112430Y1105235D02*
Y1093809D01*
X-108621Y1090000D01*
X-97195D01*
Y1105235D01*
X-85769Y1090000D02*
Y1109044D01*
Y1101426D01*
X-89577D01*
X-81960D01*
X-85769D01*
Y1109044D01*
X-81960Y1112853D01*
X-66725Y1105235D02*
X-59107D01*
X-55299Y1101426D01*
Y1090000D01*
X-66725D01*
X-70534Y1093809D01*
X-66725Y1097617D01*
X-55299D01*
X-32446Y1105235D02*
X-43872D01*
X-47681Y1101426D01*
Y1093809D01*
X-43872Y1090000D01*
X-32446D01*
X-21020Y1109044D02*
Y1105235D01*
X-24828D01*
X-17211D01*
X-21020D01*
Y1093809D01*
X-17211Y1090000D01*
X-5785Y1105235D02*
Y1093809D01*
X-1976Y1090000D01*
X9451D01*
Y1105235D01*
X17068D02*
Y1090000D01*
Y1097617D01*
X20877Y1101426D01*
X24686Y1105235D01*
X28494D01*
X39921Y1090000D02*
X47538D01*
X43730D01*
Y1105235D01*
X39921D01*
X58965Y1090000D02*
Y1105235D01*
X70391D01*
X74200Y1101426D01*
Y1090000D01*
X89435Y1082382D02*
X93244D01*
X97052Y1086191D01*
Y1105235D01*
X85626D01*
X81817Y1101426D01*
Y1093809D01*
X85626Y1090000D01*
X97052D01*
X127522D02*
Y1112853D01*
X142757Y1090000D01*
Y1112853D01*
X154184Y1090000D02*
X161801D01*
X165610Y1093809D01*
Y1101426D01*
X161801Y1105235D01*
X154184D01*
X150375Y1101426D01*
Y1093809D01*
X154184Y1090000D01*
X177036Y1109044D02*
Y1105235D01*
X173228D01*
X180845D01*
X177036D01*
Y1093809D01*
X180845Y1090000D01*
X203698D02*
X196080D01*
X192271Y1093809D01*
Y1101426D01*
X196080Y1105235D01*
X203698D01*
X207507Y1101426D01*
Y1097617D01*
X192271D01*
X215124Y1090000D02*
X226550D01*
X230359Y1093809D01*
X226550Y1097617D01*
X218933D01*
X215124Y1101426D01*
X218933Y1105235D01*
X230359D01*
X-360000Y1149044D02*
X-344765Y1133809D01*
X-360000D02*
X-344765Y1149044D01*
X-360000Y1141426D02*
X-344765D01*
X-352383Y1133809D02*
Y1149044D01*
X-337147Y1130000D02*
Y1133809D01*
X-333339D01*
Y1130000D01*
X-337147D01*
X-302868Y1149044D02*
X-306677Y1152853D01*
X-314295D01*
X-318104Y1149044D01*
Y1133809D01*
X-314295Y1130000D01*
X-306677D01*
X-302868Y1133809D01*
Y1141426D01*
X-310486D01*
X-295251Y1130000D02*
Y1152853D01*
X-287633Y1145235D01*
X-280016Y1152853D01*
Y1130000D01*
X-257163D02*
X-272398D01*
X-257163Y1145235D01*
Y1149044D01*
X-260972Y1152853D01*
X-268589D01*
X-272398Y1149044D01*
X-226693Y1141426D02*
X-211458D01*
X-180988Y1130000D02*
Y1152853D01*
X-173370Y1145235D01*
X-165753Y1152853D01*
Y1130000D01*
X-146709D02*
X-154326D01*
X-158135Y1133809D01*
Y1141426D01*
X-154326Y1145235D01*
X-146709D01*
X-142900Y1141426D01*
Y1137617D01*
X-158135D01*
X-120048Y1145235D02*
X-131474D01*
X-135283Y1141426D01*
Y1133809D01*
X-131474Y1130000D01*
X-120048D01*
X-112430Y1152853D02*
Y1130000D01*
Y1141426D01*
X-108621Y1145235D01*
X-101004D01*
X-97195Y1141426D01*
Y1130000D01*
X-85769Y1145235D02*
X-78151D01*
X-74342Y1141426D01*
Y1130000D01*
X-85769D01*
X-89577Y1133809D01*
X-85769Y1137617D01*
X-74342D01*
X-66725Y1130000D02*
Y1145235D01*
X-55299D01*
X-51490Y1141426D01*
Y1130000D01*
X-43872D02*
X-36255D01*
X-40063D01*
Y1145235D01*
X-43872D01*
X-9593D02*
X-21020D01*
X-24828Y1141426D01*
Y1133809D01*
X-21020Y1130000D01*
X-9593D01*
X1833Y1145235D02*
X9451D01*
X13259Y1141426D01*
Y1130000D01*
X1833D01*
X-1976Y1133809D01*
X1833Y1137617D01*
X13259D01*
X20877Y1130000D02*
X28494D01*
X24686D01*
Y1152853D01*
X20877D01*
X62773D02*
Y1130000D01*
X74200D01*
X78008Y1133809D01*
Y1149044D01*
X74200Y1152853D01*
X62773D01*
X85626Y1145235D02*
Y1130000D01*
Y1137617D01*
X89435Y1141426D01*
X93244Y1145235D01*
X97052D01*
X112287D02*
X119905D01*
X123714Y1141426D01*
Y1130000D01*
X112287D01*
X108478Y1133809D01*
X112287Y1137617D01*
X123714D01*
X131331Y1145235D02*
Y1133809D01*
X135140Y1130000D01*
X138949Y1133809D01*
X142757Y1130000D01*
X146566Y1133809D01*
Y1145235D01*
X154184Y1130000D02*
X161801D01*
X157992D01*
Y1145235D01*
X154184D01*
X173228Y1130000D02*
Y1145235D01*
X184654D01*
X188463Y1141426D01*
Y1130000D01*
X203698Y1122383D02*
X207507D01*
X211315Y1126191D01*
Y1145235D01*
X199889D01*
X196080Y1141426D01*
Y1133809D01*
X199889Y1130000D01*
X211315D01*
X-360000Y1189044D02*
X-344765Y1173809D01*
X-360000D02*
X-344765Y1189044D01*
X-360000Y1181426D02*
X-344765D01*
X-352383Y1173809D02*
Y1189044D01*
X-337147Y1170000D02*
Y1173809D01*
X-333339D01*
Y1170000D01*
X-337147D01*
X-302868Y1189044D02*
X-306677Y1192853D01*
X-314295D01*
X-318104Y1189044D01*
Y1173809D01*
X-314295Y1170000D01*
X-306677D01*
X-302868Y1173809D01*
Y1181426D01*
X-310486D01*
X-295251Y1192853D02*
Y1170000D01*
X-283825D01*
X-280016Y1173809D01*
Y1177617D01*
X-283825Y1181426D01*
X-295251D01*
X-283825D01*
X-280016Y1185235D01*
Y1189044D01*
X-283825Y1192853D01*
X-295251D01*
X-260972D02*
X-268589D01*
X-272398Y1189044D01*
Y1173809D01*
X-268589Y1170000D01*
X-260972D01*
X-257163Y1173809D01*
Y1189044D01*
X-260972Y1192853D01*
X-226693Y1181426D02*
X-211458D01*
X-180988Y1192853D02*
Y1170000D01*
X-169562D01*
X-165753Y1173809D01*
Y1177617D01*
X-169562Y1181426D01*
X-180988D01*
X-169562D01*
X-165753Y1185235D01*
Y1189044D01*
X-169562Y1192853D01*
X-180988D01*
X-154326Y1170000D02*
X-146709D01*
X-142900Y1173809D01*
Y1181426D01*
X-146709Y1185235D01*
X-154326D01*
X-158135Y1181426D01*
Y1173809D01*
X-154326Y1170000D01*
X-131474Y1189044D02*
Y1185235D01*
X-135283D01*
X-127665D01*
X-131474D01*
Y1173809D01*
X-127665Y1170000D01*
X-112430Y1189044D02*
Y1185235D01*
X-116239D01*
X-108621D01*
X-112430D01*
Y1173809D01*
X-108621Y1170000D01*
X-93386D02*
X-85769D01*
X-81960Y1173809D01*
Y1181426D01*
X-85769Y1185235D01*
X-93386D01*
X-97195Y1181426D01*
Y1173809D01*
X-93386Y1170000D01*
X-74342D02*
Y1185235D01*
X-70534D01*
X-66725Y1181426D01*
Y1170000D01*
Y1181426D01*
X-62916Y1185235D01*
X-59107Y1181426D01*
Y1170000D01*
X-17211Y1192853D02*
X-24828D01*
X-28637Y1189044D01*
Y1173809D01*
X-24828Y1170000D01*
X-17211D01*
X-13402Y1173809D01*
Y1189044D01*
X-17211Y1192853D01*
X-5785Y1185235D02*
X1833Y1170000D01*
X9451Y1185235D01*
X28494Y1170000D02*
X20877D01*
X17068Y1173809D01*
Y1181426D01*
X20877Y1185235D01*
X28494D01*
X32303Y1181426D01*
Y1177617D01*
X17068D01*
X39921Y1185235D02*
Y1170000D01*
Y1177617D01*
X43730Y1181426D01*
X47538Y1185235D01*
X51347D01*
X62773Y1170000D02*
X70391D01*
X66582D01*
Y1192853D01*
X62773D01*
X85626Y1185235D02*
X93244D01*
X97052Y1181426D01*
Y1170000D01*
X85626D01*
X81817Y1173809D01*
X85626Y1177617D01*
X97052D01*
X104670Y1185235D02*
Y1173809D01*
X108478Y1170000D01*
X119905D01*
Y1166191D01*
X116096Y1162383D01*
X112287D01*
X119905Y1170000D02*
Y1185235D01*
X-360000Y1229044D02*
X-344765Y1213809D01*
X-360000D02*
X-344765Y1229044D01*
X-360000Y1221426D02*
X-344765D01*
X-352383Y1213809D02*
Y1229044D01*
X-337147Y1210000D02*
Y1213809D01*
X-333339D01*
Y1210000D01*
X-337147D01*
X-302868Y1229044D02*
X-306677Y1232853D01*
X-314295D01*
X-318104Y1229044D01*
Y1213809D01*
X-314295Y1210000D01*
X-306677D01*
X-302868Y1213809D01*
Y1221426D01*
X-310486D01*
X-295251Y1232853D02*
Y1210000D01*
X-283825D01*
X-280016Y1213809D01*
Y1217617D01*
X-283825Y1221426D01*
X-295251D01*
X-283825D01*
X-280016Y1225235D01*
Y1229044D01*
X-283825Y1232853D01*
X-295251D01*
X-257163Y1229044D02*
X-260972Y1232853D01*
X-268589D01*
X-272398Y1229044D01*
Y1225235D01*
X-268589Y1221426D01*
X-260972D01*
X-257163Y1217617D01*
Y1213809D01*
X-260972Y1210000D01*
X-268589D01*
X-272398Y1213809D01*
X-226693Y1221426D02*
X-211458D01*
X-180988Y1232853D02*
Y1210000D01*
X-169562D01*
X-165753Y1213809D01*
Y1217617D01*
X-169562Y1221426D01*
X-180988D01*
X-169562D01*
X-165753Y1225235D01*
Y1229044D01*
X-169562Y1232853D01*
X-180988D01*
X-154326Y1210000D02*
X-146709D01*
X-142900Y1213809D01*
Y1221426D01*
X-146709Y1225235D01*
X-154326D01*
X-158135Y1221426D01*
Y1213809D01*
X-154326Y1210000D01*
X-131474Y1229044D02*
Y1225235D01*
X-135283D01*
X-127665D01*
X-131474D01*
Y1213809D01*
X-127665Y1210000D01*
X-112430Y1229044D02*
Y1225235D01*
X-116239D01*
X-108621D01*
X-112430D01*
Y1213809D01*
X-108621Y1210000D01*
X-93386D02*
X-85769D01*
X-81960Y1213809D01*
Y1221426D01*
X-85769Y1225235D01*
X-93386D01*
X-97195Y1221426D01*
Y1213809D01*
X-93386Y1210000D01*
X-74342D02*
Y1225235D01*
X-70534D01*
X-66725Y1221426D01*
Y1210000D01*
Y1221426D01*
X-62916Y1225235D01*
X-59107Y1221426D01*
Y1210000D01*
X-13402Y1229044D02*
X-17211Y1232853D01*
X-24828D01*
X-28637Y1229044D01*
Y1225235D01*
X-24828Y1221426D01*
X-17211D01*
X-13402Y1217617D01*
Y1213809D01*
X-17211Y1210000D01*
X-24828D01*
X-28637Y1213809D01*
X-1976Y1210000D02*
X5642D01*
X9451Y1213809D01*
Y1221426D01*
X5642Y1225235D01*
X-1976D01*
X-5785Y1221426D01*
Y1213809D01*
X-1976Y1210000D01*
X17068D02*
X24686D01*
X20877D01*
Y1232853D01*
X17068D01*
X51347D02*
Y1210000D01*
X39921D01*
X36112Y1213809D01*
Y1221426D01*
X39921Y1225235D01*
X51347D01*
X70391Y1210000D02*
X62773D01*
X58965Y1213809D01*
Y1221426D01*
X62773Y1225235D01*
X70391D01*
X74200Y1221426D01*
Y1217617D01*
X58965D01*
X81817Y1225235D02*
Y1210000D01*
Y1217617D01*
X85626Y1221426D01*
X89435Y1225235D01*
X93244D01*
X-360000Y1269044D02*
X-344765Y1253809D01*
X-360000D02*
X-344765Y1269044D01*
X-360000Y1261426D02*
X-344765D01*
X-352383Y1253809D02*
Y1269044D01*
X-337147Y1250000D02*
Y1253809D01*
X-333339D01*
Y1250000D01*
X-337147D01*
X-302868Y1269044D02*
X-306677Y1272853D01*
X-314295D01*
X-318104Y1269044D01*
Y1253809D01*
X-314295Y1250000D01*
X-306677D01*
X-302868Y1253809D01*
Y1261426D01*
X-310486D01*
X-295251Y1272853D02*
Y1250000D01*
X-283825D01*
X-280016Y1253809D01*
Y1257617D01*
X-283825Y1261426D01*
X-295251D01*
X-283825D01*
X-280016Y1265235D01*
Y1269044D01*
X-283825Y1272853D01*
X-295251D01*
X-272398D02*
Y1250000D01*
X-257163D01*
X-226693Y1261426D02*
X-211458D01*
X-180988Y1272853D02*
Y1250000D01*
X-165753D01*
X-142900D02*
X-158135D01*
X-142900Y1265235D01*
Y1269044D01*
X-146709Y1272853D01*
X-154326D01*
X-158135Y1269044D01*
X-104812Y1250000D02*
X-112430Y1257617D01*
Y1265235D01*
X-104812Y1272853D01*
X-93386Y1250000D02*
Y1272853D01*
X-81960D01*
X-78151Y1269044D01*
Y1261426D01*
X-81960Y1257617D01*
X-93386D01*
X-66725Y1250000D02*
X-59107D01*
X-55299Y1253809D01*
Y1261426D01*
X-59107Y1265235D01*
X-66725D01*
X-70534Y1261426D01*
Y1253809D01*
X-66725Y1250000D01*
X-47681D02*
X-36255D01*
X-32446Y1253809D01*
X-36255Y1257617D01*
X-43872D01*
X-47681Y1261426D01*
X-43872Y1265235D01*
X-32446D01*
X-24828Y1250000D02*
X-17211D01*
X-21020D01*
Y1265235D01*
X-24828D01*
X-1976Y1269044D02*
Y1265235D01*
X-5785D01*
X1833D01*
X-1976D01*
Y1253809D01*
X1833Y1250000D01*
X13259D02*
X20877D01*
X17068D01*
Y1265235D01*
X13259D01*
X32303D02*
X39921Y1250000D01*
X47538Y1265235D01*
X66582Y1250000D02*
X58965D01*
X55156Y1253809D01*
Y1261426D01*
X58965Y1265235D01*
X66582D01*
X70391Y1261426D01*
Y1257617D01*
X55156D01*
X78008Y1250000D02*
X85626Y1257617D01*
Y1265235D01*
X78008Y1272853D01*
X-360000Y1309044D02*
X-344765Y1293809D01*
X-360000D02*
X-344765Y1309044D01*
X-360000Y1301426D02*
X-344765D01*
X-352383Y1293809D02*
Y1309044D01*
X-337147Y1290000D02*
Y1293809D01*
X-333339D01*
Y1290000D01*
X-337147D01*
X-302868Y1309044D02*
X-306677Y1312853D01*
X-314295D01*
X-318104Y1309044D01*
Y1293809D01*
X-314295Y1290000D01*
X-306677D01*
X-302868Y1293809D01*
Y1301426D01*
X-310486D01*
X-295251Y1312853D02*
X-280016D01*
X-287633D01*
Y1290000D01*
X-272398Y1312853D02*
Y1290000D01*
X-257163D01*
X-226693Y1301426D02*
X-211458D01*
X-180988Y1312853D02*
Y1290000D01*
X-165753D01*
X-158135D02*
X-150518D01*
X-154326D01*
Y1312853D01*
X-158135Y1309044D01*
X-108621Y1290000D02*
X-116239Y1297617D01*
Y1305235D01*
X-108621Y1312853D01*
X-97195Y1290000D02*
Y1312853D01*
X-85769D01*
X-81960Y1309044D01*
Y1301426D01*
X-85769Y1297617D01*
X-97195D01*
X-70534Y1290000D02*
X-62916D01*
X-59107Y1293809D01*
Y1301426D01*
X-62916Y1305235D01*
X-70534D01*
X-74342Y1301426D01*
Y1293809D01*
X-70534Y1290000D01*
X-51490D02*
X-40063D01*
X-36255Y1293809D01*
X-40063Y1297617D01*
X-47681D01*
X-51490Y1301426D01*
X-47681Y1305235D01*
X-36255D01*
X-28637Y1290000D02*
X-21020D01*
X-24828D01*
Y1305235D01*
X-28637D01*
X-5785Y1309044D02*
Y1305235D01*
X-9593D01*
X-1976D01*
X-5785D01*
Y1293809D01*
X-1976Y1290000D01*
X9451D02*
X17068D01*
X13259D01*
Y1305235D01*
X9451D01*
X28494D02*
X36112Y1290000D01*
X43730Y1305235D01*
X62773Y1290000D02*
X55156D01*
X51347Y1293809D01*
Y1301426D01*
X55156Y1305235D01*
X62773D01*
X66582Y1301426D01*
Y1297617D01*
X51347D01*
X74200Y1290000D02*
X81817Y1297617D01*
Y1305235D01*
X74200Y1312853D01*
X-360000Y1349044D02*
X-344765Y1333809D01*
X-360000D02*
X-344765Y1349044D01*
X-360000Y1341426D02*
X-344765D01*
X-352383Y1333809D02*
Y1349044D01*
X-337147Y1330000D02*
Y1333809D01*
X-333339D01*
Y1330000D01*
X-337147D01*
X-302868Y1349044D02*
X-306677Y1352853D01*
X-314295D01*
X-318104Y1349044D01*
Y1333809D01*
X-314295Y1330000D01*
X-306677D01*
X-302868Y1333809D01*
Y1341426D01*
X-310486D01*
X-295251Y1352853D02*
X-280016D01*
X-287633D01*
Y1330000D01*
X-257163Y1349044D02*
X-260972Y1352853D01*
X-268589D01*
X-272398Y1349044D01*
Y1345235D01*
X-268589Y1341426D01*
X-260972D01*
X-257163Y1337617D01*
Y1333809D01*
X-260972Y1330000D01*
X-268589D01*
X-272398Y1333809D01*
X-226693Y1341426D02*
X-211458D01*
X-180988Y1352853D02*
X-165753D01*
X-173370D01*
Y1330000D01*
X-154326D02*
X-146709D01*
X-142900Y1333809D01*
Y1341426D01*
X-146709Y1345235D01*
X-154326D01*
X-158135Y1341426D01*
Y1333809D01*
X-154326Y1330000D01*
X-135283Y1322382D02*
Y1345235D01*
X-123856D01*
X-120048Y1341426D01*
Y1333809D01*
X-123856Y1330000D01*
X-135283D01*
X-74342Y1349044D02*
X-78151Y1352853D01*
X-85769D01*
X-89577Y1349044D01*
Y1345235D01*
X-85769Y1341426D01*
X-78151D01*
X-74342Y1337617D01*
Y1333809D01*
X-78151Y1330000D01*
X-85769D01*
X-89577Y1333809D01*
X-62916Y1330000D02*
X-55299D01*
X-51490Y1333809D01*
Y1341426D01*
X-55299Y1345235D01*
X-62916D01*
X-66725Y1341426D01*
Y1333809D01*
X-62916Y1330000D01*
X-43872D02*
X-36255D01*
X-40063D01*
Y1352853D01*
X-43872D01*
X-9593D02*
Y1330000D01*
X-21020D01*
X-24828Y1333809D01*
Y1341426D01*
X-21020Y1345235D01*
X-9593D01*
X9451Y1330000D02*
X1833D01*
X-1976Y1333809D01*
Y1341426D01*
X1833Y1345235D01*
X9451D01*
X13259Y1341426D01*
Y1337617D01*
X-1976D01*
X20877Y1345235D02*
Y1330000D01*
Y1337617D01*
X24686Y1341426D01*
X28494Y1345235D01*
X32303D01*
M02*
