G04*
G04 #@! TF.GenerationSoftware,Altium Limited,Altium Designer,18.1.7 (191)*
G04*
G04 Layer_Color=65535*
%FSLAX44Y44*%
%MOMM*%
G71*
G01*
G75*
%ADD10C,0.2000*%
%ADD11C,0.5000*%
%ADD12C,0.4000*%
%ADD13C,0.2540*%
G36*
X136096Y68269D02*
Y68259D01*
Y68230D01*
Y68191D01*
Y68142D01*
Y68074D01*
X136087Y67996D01*
X136077Y67820D01*
X136058Y67616D01*
X136038Y67411D01*
X135999Y67216D01*
X135950Y67040D01*
Y67030D01*
X135940Y67021D01*
X135931Y66991D01*
X135911Y66952D01*
X135862Y66845D01*
X135794Y66718D01*
X135706Y66582D01*
X135580Y66426D01*
X135443Y66279D01*
X135267Y66143D01*
X135258D01*
X135248Y66133D01*
X135219Y66114D01*
X135180Y66094D01*
X135131Y66065D01*
X135072Y66035D01*
X135004Y66006D01*
X134926Y65977D01*
X134741Y65918D01*
X134516Y65860D01*
X134263Y65821D01*
X133970Y65811D01*
X133882D01*
X133814Y65821D01*
X133736Y65831D01*
X133648Y65840D01*
X133541Y65860D01*
X133434Y65879D01*
X133200Y65938D01*
X132956Y66035D01*
X132839Y66094D01*
X132722Y66162D01*
X132605Y66250D01*
X132507Y66338D01*
X132497Y66348D01*
X132488Y66367D01*
X132458Y66396D01*
X132429Y66435D01*
X132390Y66494D01*
X132351Y66562D01*
X132302Y66640D01*
X132254Y66728D01*
X132205Y66835D01*
X132156Y66952D01*
X132117Y67079D01*
X132078Y67216D01*
X132049Y67372D01*
X132020Y67537D01*
X132010Y67713D01*
X132000Y67898D01*
X133229Y68035D01*
Y68025D01*
Y68015D01*
Y67986D01*
X133239Y67947D01*
Y67850D01*
X133258Y67733D01*
X133278Y67596D01*
X133307Y67469D01*
X133336Y67352D01*
X133385Y67255D01*
X133395Y67245D01*
X133424Y67206D01*
X133473Y67147D01*
X133541Y67089D01*
X133629Y67021D01*
X133736Y66972D01*
X133863Y66933D01*
X134009Y66913D01*
X134078D01*
X134156Y66923D01*
X134243Y66943D01*
X134351Y66972D01*
X134448Y67021D01*
X134536Y67079D01*
X134614Y67157D01*
X134624Y67167D01*
X134643Y67206D01*
X134672Y67274D01*
X134712Y67382D01*
X134721Y67440D01*
X134741Y67518D01*
X134760Y67596D01*
X134770Y67694D01*
X134780Y67801D01*
X134789Y67918D01*
X134799Y68045D01*
Y68181D01*
Y72336D01*
X136096D01*
Y68269D01*
D02*
G37*
G36*
X146767Y68289D02*
X147557D01*
Y67216D01*
X146767D01*
Y65928D01*
X145577D01*
Y67216D01*
X142953D01*
Y68279D01*
X145733Y72356D01*
X146767D01*
Y68289D01*
D02*
G37*
G36*
X140047Y72327D02*
X140174D01*
X140437Y72317D01*
X140690Y72297D01*
X140808Y72288D01*
X140915Y72268D01*
X141003Y72258D01*
X141081Y72239D01*
X141090D01*
X141110Y72229D01*
X141129Y72219D01*
X141168Y72210D01*
X141276Y72171D01*
X141403Y72102D01*
X141549Y72024D01*
X141695Y71907D01*
X141851Y71771D01*
X141997Y71605D01*
Y71595D01*
X142017Y71585D01*
X142036Y71556D01*
X142056Y71517D01*
X142085Y71468D01*
X142114Y71410D01*
X142192Y71273D01*
X142261Y71088D01*
X142319Y70873D01*
X142358Y70629D01*
X142378Y70356D01*
Y70347D01*
Y70327D01*
Y70298D01*
Y70259D01*
X142368Y70152D01*
X142349Y70015D01*
X142329Y69859D01*
X142290Y69693D01*
X142232Y69527D01*
X142163Y69371D01*
X142154Y69352D01*
X142124Y69303D01*
X142076Y69235D01*
X142017Y69147D01*
X141939Y69040D01*
X141841Y68932D01*
X141734Y68835D01*
X141617Y68737D01*
X141607Y68727D01*
X141559Y68698D01*
X141490Y68659D01*
X141412Y68620D01*
X141305Y68562D01*
X141198Y68513D01*
X141071Y68474D01*
X140944Y68435D01*
X140925D01*
X140895Y68425D01*
X140856D01*
X140808Y68415D01*
X140749Y68406D01*
X140681Y68396D01*
X140603D01*
X140515Y68386D01*
X140417Y68376D01*
X140310Y68367D01*
X140183Y68357D01*
X140056D01*
X139920Y68347D01*
X138769D01*
Y65928D01*
X137472D01*
Y72336D01*
X139930D01*
X140047Y72327D01*
D02*
G37*
G36*
X52775Y148019D02*
Y148014D01*
Y148000D01*
Y147980D01*
Y147951D01*
X52770Y147917D01*
Y147878D01*
X52765Y147790D01*
X52751Y147688D01*
X52736Y147585D01*
X52712Y147483D01*
X52678Y147395D01*
X52673Y147385D01*
X52658Y147361D01*
X52634Y147322D01*
X52604Y147273D01*
X52561Y147215D01*
X52507Y147161D01*
X52439Y147107D01*
X52365Y147058D01*
X52356Y147054D01*
X52326Y147039D01*
X52283Y147024D01*
X52224Y147005D01*
X52151Y146980D01*
X52068Y146966D01*
X51971Y146951D01*
X51868Y146946D01*
X51829D01*
X51800Y146951D01*
X51766Y146956D01*
X51722Y146961D01*
X51629Y146976D01*
X51527Y147005D01*
X51419Y147049D01*
X51366Y147073D01*
X51317Y147107D01*
X51268Y147141D01*
X51224Y147185D01*
Y147190D01*
X51215Y147195D01*
X51205Y147210D01*
X51190Y147229D01*
X51171Y147259D01*
X51156Y147288D01*
X51132Y147327D01*
X51112Y147366D01*
X51093Y147415D01*
X51073Y147468D01*
X51054Y147527D01*
X51039Y147595D01*
X51024Y147663D01*
X51015Y147741D01*
X51010Y147819D01*
Y147907D01*
X51390Y147961D01*
Y147956D01*
Y147946D01*
Y147927D01*
X51395Y147902D01*
Y147873D01*
X51400Y147839D01*
X51415Y147761D01*
X51429Y147673D01*
X51454Y147590D01*
X51488Y147517D01*
X51507Y147483D01*
X51527Y147454D01*
X51532Y147449D01*
X51551Y147434D01*
X51575Y147410D01*
X51614Y147390D01*
X51663Y147366D01*
X51722Y147341D01*
X51790Y147327D01*
X51868Y147322D01*
X51897D01*
X51927Y147327D01*
X51961Y147332D01*
X52005Y147341D01*
X52053Y147351D01*
X52097Y147371D01*
X52141Y147395D01*
X52146Y147400D01*
X52161Y147410D01*
X52180Y147424D01*
X52205Y147449D01*
X52234Y147473D01*
X52258Y147507D01*
X52283Y147546D01*
X52302Y147590D01*
Y147595D01*
X52312Y147614D01*
X52317Y147644D01*
X52326Y147688D01*
X52336Y147746D01*
X52341Y147814D01*
X52351Y147897D01*
Y147995D01*
Y150204D01*
X52775D01*
Y148019D01*
D02*
G37*
G36*
X55404Y149858D02*
X55399Y149853D01*
X55389Y149843D01*
X55374Y149824D01*
X55350Y149799D01*
X55326Y149765D01*
X55292Y149726D01*
X55253Y149677D01*
X55214Y149629D01*
X55170Y149570D01*
X55121Y149502D01*
X55067Y149433D01*
X55019Y149355D01*
X54965Y149273D01*
X54906Y149185D01*
X54853Y149087D01*
X54794Y148990D01*
X54789Y148985D01*
X54780Y148965D01*
X54765Y148936D01*
X54745Y148897D01*
X54721Y148848D01*
X54692Y148790D01*
X54658Y148722D01*
X54623Y148648D01*
X54589Y148570D01*
X54550Y148483D01*
X54511Y148390D01*
X54472Y148292D01*
X54399Y148092D01*
X54331Y147878D01*
Y147873D01*
X54326Y147858D01*
X54321Y147839D01*
X54311Y147810D01*
X54302Y147771D01*
X54292Y147727D01*
X54282Y147673D01*
X54268Y147619D01*
X54258Y147556D01*
X54243Y147488D01*
X54219Y147341D01*
X54199Y147176D01*
X54185Y147000D01*
X53780D01*
Y147005D01*
Y147020D01*
Y147039D01*
X53785Y147068D01*
Y147102D01*
X53790Y147146D01*
X53794Y147200D01*
X53799Y147254D01*
X53809Y147317D01*
X53819Y147390D01*
X53829Y147463D01*
X53843Y147541D01*
X53858Y147629D01*
X53877Y147717D01*
X53926Y147912D01*
Y147917D01*
X53931Y147936D01*
X53941Y147966D01*
X53951Y148005D01*
X53965Y148053D01*
X53985Y148107D01*
X54004Y148170D01*
X54029Y148244D01*
X54058Y148317D01*
X54087Y148400D01*
X54155Y148575D01*
X54238Y148760D01*
X54331Y148946D01*
X54336Y148951D01*
X54345Y148970D01*
X54360Y148995D01*
X54380Y149029D01*
X54404Y149073D01*
X54433Y149121D01*
X54467Y149175D01*
X54502Y149239D01*
X54589Y149370D01*
X54687Y149512D01*
X54789Y149653D01*
X54901Y149789D01*
X53331D01*
Y150165D01*
X55404D01*
Y149858D01*
D02*
G37*
%LPC*%
G36*
X145577Y70483D02*
X144094Y68289D01*
X145577D01*
Y70483D01*
D02*
G37*
G36*
X139735Y71254D02*
X138769D01*
Y69430D01*
X139657D01*
X139725Y69440D01*
X139881D01*
X140056Y69449D01*
X140222Y69469D01*
X140369Y69498D01*
X140437Y69508D01*
X140486Y69527D01*
X140495Y69537D01*
X140525Y69547D01*
X140573Y69566D01*
X140632Y69605D01*
X140700Y69644D01*
X140768Y69703D01*
X140837Y69761D01*
X140895Y69839D01*
X140905Y69849D01*
X140915Y69878D01*
X140944Y69927D01*
X140973Y69986D01*
X140993Y70054D01*
X141022Y70142D01*
X141032Y70239D01*
X141042Y70337D01*
Y70356D01*
Y70395D01*
X141032Y70464D01*
X141012Y70542D01*
X140993Y70629D01*
X140954Y70727D01*
X140905Y70824D01*
X140837Y70912D01*
X140827Y70922D01*
X140798Y70951D01*
X140759Y70990D01*
X140690Y71039D01*
X140622Y71088D01*
X140525Y71137D01*
X140427Y71176D01*
X140310Y71205D01*
X140300D01*
X140261Y71215D01*
X140203Y71224D01*
X140115Y71234D01*
X139988D01*
X139822Y71244D01*
X139735Y71254D01*
D02*
G37*
%LPD*%
D10*
X633550Y170180D02*
G03*
X633550Y157480I0J-6350D01*
G01*
X122591Y529918D02*
G03*
X187134Y495251I29809J-21918D01*
G01*
X78780Y281840D02*
Y302160D01*
X57050Y281840D02*
X65500D01*
X43220D02*
Y302160D01*
X103500Y75300D02*
X179700D01*
X103500Y100700D02*
X179700D01*
X103500Y75300D02*
Y100700D01*
X179700Y75300D02*
Y100700D01*
X133300Y357100D02*
X158700D01*
X133300Y458700D02*
X158700D01*
Y357100D02*
Y458700D01*
X133300Y357100D02*
Y458700D01*
X12700Y303900D02*
X63500D01*
X12700D02*
Y354700D01*
X63500D01*
Y303900D02*
Y354700D01*
X649300Y405500D02*
Y481700D01*
X674700Y405500D02*
Y481700D01*
X649300D02*
X674700D01*
X649300Y405500D02*
X674700D01*
X34370Y240000D02*
X37370D01*
X50370Y218000D02*
Y222000D01*
Y180000D02*
Y184000D01*
X-6630Y241000D02*
X10370D01*
X-6630Y162000D02*
Y241000D01*
Y162000D02*
X10370D01*
X34370D02*
X37370D01*
X-630D02*
Y241000D01*
X7370Y162000D02*
Y241000D01*
X-14630Y146000D02*
Y256000D01*
X-26630D02*
X-14630D01*
X-26630Y146000D02*
X-14630D01*
X-26630Y201000D02*
X-14630D01*
Y236000D02*
X-10630D01*
X-14630Y166000D02*
X-10630D01*
X-19630Y206000D02*
X-14630Y201000D01*
X-15630Y200000D02*
Y201000D01*
X-19630Y196000D02*
X-15630Y200000D01*
X12700Y424180D02*
X88900D01*
Y373380D02*
Y424180D01*
X12700Y373380D02*
X88900D01*
X12700D02*
Y424180D01*
Y510540D02*
X88900D01*
Y459740D02*
Y510540D01*
X12700Y459740D02*
X88900D01*
X12700D02*
Y510540D01*
X172720Y520700D02*
X431800D01*
X172720Y495300D02*
Y520700D01*
Y495300D02*
X431800D01*
Y520700D01*
X441960D02*
X650240D01*
X441960Y495300D02*
X650240D01*
Y520700D01*
X441960Y495300D02*
Y520700D01*
X492760Y12700D02*
X650240D01*
X492760Y38100D02*
X650240D01*
X492760Y12700D02*
Y38100D01*
X650240Y12700D02*
Y38100D01*
X264160Y12700D02*
X472440D01*
X264160Y38100D02*
X472440D01*
X264160Y12700D02*
Y38100D01*
X472440Y12700D02*
Y38100D01*
X633550Y170180D02*
Y215830D01*
Y111830D02*
Y157480D01*
X277550Y111830D02*
X633350D01*
X277550D02*
Y215830D01*
X633350D01*
X472780Y242840D02*
Y263160D01*
X437220Y242840D02*
X472780D01*
X437220D02*
Y263160D01*
X472780D01*
X126400Y126000D02*
X129400D01*
X191400D02*
X194400D01*
Y164000D01*
X180400D02*
X194400D01*
X126400D02*
X139400D01*
X126400Y126000D02*
Y164000D01*
X479000Y266000D02*
Y304000D01*
X395000Y266000D02*
X479000D01*
X395000D02*
Y304000D01*
X479000D01*
X229000Y250000D02*
X267000D01*
X229000D02*
Y334000D01*
X267000D01*
Y250000D02*
Y334000D01*
X171500Y454500D02*
X189500D01*
X171500Y422500D02*
X189500D01*
Y434500D02*
Y442500D01*
X45000Y253500D02*
Y271500D01*
X77000Y253500D02*
Y271500D01*
X57000D02*
X65000D01*
X677000Y148500D02*
Y166500D01*
X645000Y148500D02*
Y166500D01*
X657000Y148500D02*
X665000D01*
X210500Y165500D02*
X228500D01*
X210500Y133500D02*
X228500D01*
Y145500D02*
Y153500D01*
X89500Y88500D02*
X99500Y98500D01*
X84500Y88500D02*
X89500D01*
X44500Y98500D02*
X54500Y88500D01*
X59500D01*
X44500Y98500D02*
Y143500D01*
X59500D01*
X84500D02*
X99500D01*
Y98500D02*
Y143500D01*
X89500Y14500D02*
X99500Y24500D01*
X84500Y14500D02*
X89500D01*
X44500Y24500D02*
X54500Y14500D01*
X59500D01*
X44500Y24500D02*
Y69500D01*
X59500D01*
X84500D02*
X99500D01*
Y24500D02*
Y69500D01*
X209840Y209220D02*
Y244780D01*
Y209220D02*
X230160D01*
Y244780D01*
X209840D02*
X230160D01*
X103840Y103220D02*
Y138780D01*
Y103220D02*
X124160D01*
Y138780D01*
X103840D02*
X124160D01*
X197840Y95220D02*
Y130780D01*
Y95220D02*
X218160D01*
Y130780D01*
X197840D02*
X218160D01*
X458220Y64840D02*
X493780D01*
Y85160D01*
X458220D02*
X493780D01*
X458220Y64840D02*
Y85160D01*
X235720Y493160D02*
X271280D01*
X235720Y472840D02*
Y493160D01*
Y472840D02*
X271280D01*
Y493160D01*
X397220Y64840D02*
X432780D01*
Y85160D01*
X397220D02*
X432780D01*
X397220Y64840D02*
Y85160D01*
X580220Y339910D02*
X615780D01*
X580220Y319590D02*
Y339910D01*
Y319590D02*
X615780D01*
Y339910D01*
X6000Y56000D02*
Y114000D01*
Y56000D02*
X38000D01*
Y114000D01*
X6000D02*
X38000D01*
X612500Y276500D02*
Y295500D01*
X672500Y276500D02*
Y295500D01*
X621500Y315500D02*
X663500D01*
X621500Y255500D02*
X663500D01*
X212500Y19250D02*
X231500D01*
X212500Y79250D02*
X231500D01*
X192500Y28250D02*
Y70250D01*
X252500Y28250D02*
Y70250D01*
X580220Y364380D02*
X582760D01*
X580220Y379620D02*
X582760D01*
Y364380D02*
Y379620D01*
X613240D01*
Y364380D02*
Y379620D01*
X582760Y364380D02*
X613240D01*
X580220D02*
Y379620D01*
X226220Y419380D02*
X228760D01*
X226220Y434620D02*
X228760D01*
Y419380D02*
Y434620D01*
X259240D01*
Y419380D02*
Y434620D01*
X228760Y419380D02*
X259240D01*
X226220D02*
Y434620D01*
Y396380D02*
X228760D01*
X226220Y411620D02*
X228760D01*
Y396380D02*
Y411620D01*
X259240D01*
Y396380D02*
Y411620D01*
X228760Y396380D02*
X259240D01*
X226220D02*
Y411620D01*
Y378460D02*
X228760D01*
X226220Y393700D02*
X228760D01*
Y378460D02*
Y393700D01*
X259240D01*
Y378460D02*
Y393700D01*
X228760Y378460D02*
X259240D01*
X226220D02*
Y393700D01*
X189000Y333000D02*
Y335000D01*
Y333000D02*
Y335000D01*
X187000D02*
X189000D01*
X119000Y333000D02*
Y335000D01*
X121000D01*
X119000D02*
X121000D01*
X119000Y265000D02*
X121000D01*
X119000D02*
Y267000D01*
Y265000D02*
Y267000D01*
X188000Y264000D02*
X190000Y266000D01*
X18000D02*
Y302000D01*
X4000Y266000D02*
X18000D01*
X4000D02*
Y302000D01*
X596000Y251000D02*
X632000D01*
Y237000D02*
Y251000D01*
X596000Y237000D02*
X632000D01*
X161840Y383220D02*
X182160D01*
X161840D02*
Y418780D01*
X182160D01*
Y383220D02*
Y418780D01*
X267220Y437590D02*
Y457910D01*
X302780D01*
Y437590D02*
Y457910D01*
X267220Y437590D02*
X302780D01*
X267220Y414590D02*
Y434910D01*
X302780D01*
Y414590D02*
Y434910D01*
X267220Y414590D02*
X302780D01*
X80840Y290780D02*
X101160D01*
Y255220D02*
Y290780D01*
X80840Y255220D02*
X101160D01*
X80840D02*
Y290780D01*
X105280Y340840D02*
Y361160D01*
X69720Y340840D02*
X105280D01*
X69720D02*
Y361160D01*
X105280D01*
X79220Y202840D02*
Y223160D01*
X114780D01*
Y202840D02*
Y223160D01*
X79220Y202840D02*
X114780D01*
X79220Y179840D02*
Y200160D01*
X114780D01*
Y179840D02*
Y200160D01*
X79220Y179840D02*
X114780D01*
X78970Y157340D02*
Y177660D01*
Y157340D02*
X114530D01*
Y177660D01*
X78970D02*
X114530D01*
X206840Y256220D02*
X227160D01*
X206840D02*
Y291780D01*
X227160D01*
Y256220D02*
Y291780D01*
X603080Y445160D02*
X623400D01*
X603080D02*
Y480720D01*
X623400D01*
Y445160D02*
Y480720D01*
X574040Y445160D02*
X594360D01*
X574040D02*
Y480720D01*
X594360D01*
Y445160D02*
Y480720D01*
X626680Y404520D02*
X647000D01*
X626680D02*
Y440080D01*
X647000D01*
Y404520D02*
Y440080D01*
X394780Y87840D02*
Y108160D01*
X359220Y87840D02*
X394780D01*
X359220D02*
Y108160D01*
X394780D01*
X596220Y216840D02*
Y237160D01*
X631780D01*
Y216840D02*
Y237160D01*
X596220Y216840D02*
X631780D01*
X261780Y437840D02*
Y458160D01*
X226220Y437840D02*
X261780D01*
X226220D02*
Y458160D01*
X261780D01*
X432780Y219840D02*
Y240160D01*
X397220Y219840D02*
X432780D01*
X397220D02*
Y240160D01*
X432780D01*
X615780Y341840D02*
Y362160D01*
X580220Y341840D02*
X615780D01*
X580220D02*
Y362160D01*
X615780D01*
X659840Y178220D02*
X680160D01*
X659840D02*
Y213780D01*
X680160D01*
Y178220D02*
Y213780D01*
X20840Y266220D02*
X41160D01*
X20840D02*
Y301780D01*
X41160D01*
Y266220D02*
Y301780D01*
X659920Y250780D02*
X680240D01*
Y215220D02*
Y250780D01*
X659920Y215220D02*
X680240D01*
X659920D02*
Y250780D01*
X263840Y76780D02*
X284160D01*
Y41220D02*
Y76780D01*
X263840Y41220D02*
X284160D01*
X263840D02*
Y76780D01*
X242840Y135220D02*
X263160D01*
X242840D02*
Y170780D01*
X263160D01*
Y135220D02*
Y170780D01*
X5220Y243840D02*
Y264160D01*
X40780D01*
Y243840D02*
Y264160D01*
X5220Y243840D02*
X40780D01*
X636840Y250780D02*
X657160D01*
Y215220D02*
Y250780D01*
X636840Y215220D02*
X657160D01*
X636840D02*
Y250780D01*
X298780Y79840D02*
Y100160D01*
X263220Y79840D02*
X298780D01*
X263220D02*
Y100160D01*
X298780D01*
X123470Y201840D02*
Y222160D01*
X159030D01*
Y201840D02*
Y222160D01*
X123470Y201840D02*
X159030D01*
X322840Y94780D02*
X343160D01*
Y59220D02*
Y94780D01*
X322840Y59220D02*
X343160D01*
X322840D02*
Y94780D01*
Y75780D02*
X343160D01*
Y40220D02*
Y75780D01*
X322840Y40220D02*
X343160D01*
X322840D02*
Y75780D01*
X61380Y203530D02*
Y231470D01*
Y203530D02*
X76620D01*
Y231470D01*
X61380D02*
X76620D01*
Y173530D02*
Y201470D01*
X61380D02*
X76620D01*
X61380Y173530D02*
Y201470D01*
Y173530D02*
X76620D01*
X186840Y209220D02*
X207160D01*
X186840D02*
Y244780D01*
X207160D01*
Y209220D02*
Y244780D01*
X206840Y329780D02*
X227160D01*
Y294220D02*
Y329780D01*
X206840Y294220D02*
X227160D01*
X206840D02*
Y329780D01*
X163840Y209220D02*
X184160D01*
X163840D02*
Y244780D01*
X184160D01*
Y209220D02*
Y244780D01*
X158780Y224840D02*
Y245160D01*
X123220Y224840D02*
X158780D01*
X123220D02*
Y245160D01*
X158780D01*
X15840Y459780D02*
X36160D01*
Y424220D02*
Y459780D01*
X15840Y424220D02*
X36160D01*
X15840D02*
Y459780D01*
X264780Y335840D02*
Y356160D01*
X229220Y335840D02*
X264780D01*
X229220D02*
Y356160D01*
X264780D01*
X267780Y227840D02*
Y248160D01*
X232220Y227840D02*
X267780D01*
X232220D02*
Y248160D01*
X267780D01*
X626680Y445160D02*
X647000D01*
X626680D02*
Y480720D01*
X647000D01*
Y445160D02*
Y480720D01*
X410780Y39840D02*
Y60160D01*
X375220Y39840D02*
X410780D01*
X375220D02*
Y60160D01*
X410780D01*
X294840Y75780D02*
X315160D01*
Y40220D02*
Y75780D01*
X294840Y40220D02*
X315160D01*
X294840D02*
Y75780D01*
X345840D02*
X366160D01*
Y40220D02*
Y75780D01*
X345840Y40220D02*
X366160D01*
X345840D02*
Y75780D01*
X48780Y511840D02*
Y532160D01*
X13220Y511840D02*
X48780D01*
X13220D02*
Y532160D01*
X48780D01*
X437220Y219840D02*
Y240160D01*
X472780D01*
Y219840D02*
Y240160D01*
X437220Y219840D02*
X472780D01*
X397220Y87840D02*
Y108160D01*
X432780D01*
Y87840D02*
Y108160D01*
X397220Y87840D02*
X432780D01*
X470780D02*
Y108160D01*
X435220Y87840D02*
X470780D01*
X435220D02*
Y108160D01*
X470780D01*
X397220Y242840D02*
Y263160D01*
X432780D01*
Y242840D02*
Y263160D01*
X397220Y242840D02*
X432780D01*
X202840Y419220D02*
X223160D01*
X202840D02*
Y454780D01*
X223160D01*
Y419220D02*
Y454780D01*
X678780Y116276D02*
Y136596D01*
X643220Y116276D02*
X678780D01*
X643220D02*
Y136596D01*
X678780D01*
X209840Y206780D02*
X230160D01*
Y171220D02*
Y206780D01*
X209840Y171220D02*
X230160D01*
X209840D02*
Y206780D01*
X43220Y302160D02*
X78780D01*
X114780Y225840D02*
Y246160D01*
X79220Y225840D02*
X114780D01*
X79220D02*
Y246160D01*
X114780D01*
X636840Y178220D02*
X657160D01*
X636840D02*
Y213780D01*
X657160D01*
Y178220D02*
Y213780D01*
X220840Y130780D02*
X241160D01*
Y95220D02*
Y130780D01*
X220840Y95220D02*
X241160D01*
X220840D02*
Y130780D01*
X186840Y171220D02*
X207160D01*
X186840D02*
Y206780D01*
X207160D01*
Y171220D02*
Y206780D01*
X458220Y41840D02*
Y62160D01*
X493780D01*
Y41840D02*
Y62160D01*
X458220Y41840D02*
X493780D01*
X435340Y49720D02*
X455660D01*
X435340D02*
Y85280D01*
X455660D01*
Y49720D02*
Y85280D01*
X226220Y471247D02*
Y462916D01*
X227886Y461250D01*
X231218D01*
X232885Y462916D01*
Y471247D01*
X262620Y409497D02*
X269285D01*
X265952D01*
Y399500D01*
X263620Y380500D02*
Y390497D01*
X268619D01*
X270285Y388831D01*
Y385498D01*
X268619Y383832D01*
X263620D01*
X266952D02*
X270285Y380500D01*
X548929Y97164D02*
Y90500D01*
X542264Y97164D01*
X540598D01*
X538932Y95498D01*
Y92166D01*
X540598Y90500D01*
X538932Y107161D02*
Y100497D01*
X543931D01*
X542264Y103829D01*
Y105495D01*
X543931Y107161D01*
X547263D01*
X548929Y105495D01*
Y102163D01*
X547263Y100497D01*
X318000Y93000D02*
Y96332D01*
Y94666D01*
X308003D01*
X309669Y93000D01*
X308003Y107995D02*
X309669Y104663D01*
X313002Y101331D01*
X316334D01*
X318000Y102997D01*
Y106329D01*
X316334Y107995D01*
X314668D01*
X313002Y106329D01*
Y101331D01*
X294250Y220780D02*
Y224112D01*
Y222446D01*
X284253D01*
X285919Y220780D01*
X294250Y234109D02*
X284253D01*
X289252Y229111D01*
Y235775D01*
X394000Y221980D02*
Y225312D01*
Y223646D01*
X384003D01*
X385669Y221980D01*
Y230311D02*
X384003Y231977D01*
Y235309D01*
X385669Y236975D01*
X392334D01*
X394000Y235309D01*
Y231977D01*
X392334Y230311D01*
X385669D01*
X511503Y226285D02*
Y219620D01*
X516502D01*
X514836Y222952D01*
Y224619D01*
X516502Y226285D01*
X519834D01*
X521500Y224619D01*
Y221286D01*
X519834Y219620D01*
X7619Y311500D02*
Y321497D01*
X2620Y316498D01*
X9285D01*
X2120Y347581D02*
X3786Y349247D01*
X7119D01*
X8785Y347581D01*
Y345914D01*
X7119Y344248D01*
X5452D01*
X7119D01*
X8785Y342582D01*
Y340916D01*
X7119Y339250D01*
X3786D01*
X2120Y340916D01*
X73464Y309000D02*
X66799D01*
X73464Y315665D01*
Y317331D01*
X71798Y318997D01*
X68465D01*
X66799Y317331D01*
X40000Y437497D02*
X43332D01*
X41666D01*
Y427500D01*
X40000D01*
X43332D01*
X54995Y435831D02*
X53329Y437497D01*
X49997D01*
X48331Y435831D01*
Y429166D01*
X49997Y427500D01*
X53329D01*
X54995Y429166D01*
X64992Y435831D02*
X63326Y437497D01*
X59994D01*
X58327Y435831D01*
Y434165D01*
X59994Y432498D01*
X63326D01*
X64992Y430832D01*
Y429166D01*
X63326Y427500D01*
X59994D01*
X58327Y429166D01*
X68324Y427500D02*
Y437497D01*
X73323D01*
X74989Y435831D01*
Y432498D01*
X73323Y430832D01*
X68324D01*
X78321Y427500D02*
X81653D01*
X79987D01*
Y437497D01*
X78321Y435831D01*
X52000Y523997D02*
X55332D01*
X53666D01*
Y514000D01*
X52000D01*
X55332D01*
X66995Y522331D02*
X65329Y523997D01*
X61997D01*
X60331Y522331D01*
Y515666D01*
X61997Y514000D01*
X65329D01*
X66995Y515666D01*
X76992Y522331D02*
X75326Y523997D01*
X71994D01*
X70327Y522331D01*
Y520664D01*
X71994Y518998D01*
X75326D01*
X76992Y517332D01*
Y515666D01*
X75326Y514000D01*
X71994D01*
X70327Y515666D01*
X80324Y514000D02*
Y523997D01*
X85323D01*
X86989Y522331D01*
Y518998D01*
X85323Y517332D01*
X80324D01*
X178753Y28000D02*
X187084D01*
X188750Y29666D01*
Y32998D01*
X187084Y34664D01*
X178753D01*
X180419Y44661D02*
X178753Y42995D01*
Y39663D01*
X180419Y37997D01*
X182085D01*
X183752Y39663D01*
Y42995D01*
X185418Y44661D01*
X187084D01*
X188750Y42995D01*
Y39663D01*
X187084Y37997D01*
X178753Y54658D02*
Y47994D01*
X188750D01*
Y54658D01*
X183752Y47994D02*
Y51326D01*
X188750Y57990D02*
X178753D01*
Y62989D01*
X180419Y64655D01*
X183752D01*
X185418Y62989D01*
Y57990D01*
Y61323D02*
X188750Y64655D01*
X597000Y256000D02*
X587003D01*
Y260998D01*
X588669Y262665D01*
X592002D01*
X593668Y260998D01*
Y256000D01*
Y259332D02*
X597000Y262665D01*
X587003Y272661D02*
Y265997D01*
X597000D01*
Y272661D01*
X592002Y265997D02*
Y269329D01*
X588669Y282658D02*
X587003Y280992D01*
Y277660D01*
X588669Y275994D01*
X590336D01*
X592002Y277660D01*
Y280992D01*
X593668Y282658D01*
X595334D01*
X597000Y280992D01*
Y277660D01*
X595334Y275994D01*
X587003Y292655D02*
Y285990D01*
X597000D01*
Y292655D01*
X592002Y285990D02*
Y289323D01*
X587003Y295987D02*
Y302652D01*
Y299319D01*
X597000D01*
X96000Y81000D02*
X99332D01*
X97666D01*
Y90997D01*
X96000Y89331D01*
X125680Y443460D02*
X129012D01*
X127346D01*
Y453457D01*
X125680Y451791D01*
X67000Y327000D02*
X70332D01*
X68666D01*
Y336997D01*
X67000Y335331D01*
X678000Y467750D02*
X681332D01*
X679666D01*
Y477747D01*
X678000Y476081D01*
X5000Y382000D02*
X8332D01*
X6666D01*
Y391997D01*
X5000Y390331D01*
X5500Y464250D02*
X8832D01*
X7166D01*
Y474247D01*
X5500Y472581D01*
X420000Y525000D02*
Y528332D01*
Y526666D01*
X410003D01*
X411669Y525000D01*
X638000Y526000D02*
Y529332D01*
Y527666D01*
X628003D01*
X629669Y526000D01*
X510540Y5080D02*
Y8412D01*
Y6746D01*
X500543D01*
X502209Y5080D01*
X281940D02*
Y8412D01*
Y6746D01*
X271943D01*
X273609Y5080D01*
X170665Y374997D02*
X167332D01*
X168998D01*
Y366666D01*
X167332Y365000D01*
X165666D01*
X164000Y366666D01*
X173997Y365000D02*
Y374997D01*
X178995D01*
X180661Y373331D01*
Y369998D01*
X178995Y368332D01*
X173997D01*
X183994Y373331D02*
X185660Y374997D01*
X188992D01*
X190658Y373331D01*
Y371665D01*
X188992Y369998D01*
X187326D01*
X188992D01*
X190658Y368332D01*
Y366666D01*
X188992Y365000D01*
X185660D01*
X183994Y366666D01*
X32664Y367997D02*
X29332D01*
X30998D01*
Y359666D01*
X29332Y358000D01*
X27666D01*
X26000Y359666D01*
X35997Y358000D02*
Y367997D01*
X40995D01*
X42661Y366331D01*
Y362998D01*
X40995Y361332D01*
X35997D01*
X52658Y358000D02*
X45994D01*
X52658Y364664D01*
Y366331D01*
X50992Y367997D01*
X47660D01*
X45994Y366331D01*
X657664Y494997D02*
X654332D01*
X655998D01*
Y486666D01*
X654332Y485000D01*
X652666D01*
X651000Y486666D01*
X660997Y485000D02*
Y494997D01*
X665995D01*
X667661Y493331D01*
Y489998D01*
X665995Y488332D01*
X660997D01*
X670994Y485000D02*
X674326D01*
X672660D01*
Y494997D01*
X670994Y493331D01*
X101165Y407997D02*
X97832D01*
X99498D01*
Y399666D01*
X97832Y398000D01*
X96166D01*
X94500Y399666D01*
X111161Y407997D02*
X107829Y406331D01*
X104497Y402998D01*
Y399666D01*
X106163Y398000D01*
X109495D01*
X111161Y399666D01*
Y401332D01*
X109495Y402998D01*
X104497D01*
X103665Y490997D02*
X100332D01*
X101998D01*
Y482666D01*
X100332Y481000D01*
X98666D01*
X97000Y482666D01*
X113661Y490997D02*
X106997D01*
Y485998D01*
X110329Y487664D01*
X111995D01*
X113661Y485998D01*
Y482666D01*
X111995Y481000D01*
X108663D01*
X106997Y482666D01*
X309445Y487997D02*
X306112D01*
X307778D01*
Y479666D01*
X306112Y478000D01*
X304446D01*
X302780Y479666D01*
X317775Y478000D02*
Y487997D01*
X312777Y482998D01*
X319441D01*
X551115Y488997D02*
X547782D01*
X549448D01*
Y480666D01*
X547782Y479000D01*
X546116D01*
X544450Y480666D01*
X554447Y487331D02*
X556113Y488997D01*
X559445D01*
X561111Y487331D01*
Y485664D01*
X559445Y483998D01*
X557779D01*
X559445D01*
X561111Y482332D01*
Y480666D01*
X559445Y479000D01*
X556113D01*
X554447Y480666D01*
X577664Y53997D02*
X574332D01*
X575998D01*
Y45666D01*
X574332Y44000D01*
X572666D01*
X571000Y45666D01*
X587661Y44000D02*
X580997D01*
X587661Y50665D01*
Y52331D01*
X585995Y53997D01*
X582663D01*
X580997Y52331D01*
X423224Y52997D02*
X419892D01*
X421558D01*
Y44666D01*
X419892Y43000D01*
X418226D01*
X416560Y44666D01*
X426557Y43000D02*
X429889D01*
X428223D01*
Y52997D01*
X426557Y51331D01*
D11*
X201000Y263000D02*
G03*
X201000Y263000I-1000J0D01*
G01*
D12*
X8000Y304000D02*
X14000D01*
X594000Y241000D02*
Y247000D01*
D13*
X346744Y341000D02*
Y351157D01*
X351823Y356235D01*
X356901Y351157D01*
Y341000D01*
Y348618D01*
X346744D01*
X361979Y341000D02*
Y356235D01*
X369597D01*
X372136Y353696D01*
Y348618D01*
X369597Y346078D01*
X361979D01*
X367058D02*
X372136Y341000D01*
X377215Y356235D02*
Y341000D01*
X384832D01*
X387371Y343539D01*
Y353696D01*
X384832Y356235D01*
X377215D01*
X392449D02*
Y343539D01*
X394989Y341000D01*
X400067D01*
X402606Y343539D01*
Y356235D01*
X407685D02*
X412763D01*
X410224D01*
Y341000D01*
X407685D01*
X412763D01*
X420381D02*
Y356235D01*
X430537Y341000D01*
Y356235D01*
X443233D02*
X438155D01*
X435616Y353696D01*
Y343539D01*
X438155Y341000D01*
X443233D01*
X445772Y343539D01*
Y353696D01*
X443233Y356235D01*
X476242Y341000D02*
X466086D01*
X476242Y351157D01*
Y353696D01*
X473703Y356235D01*
X468625D01*
X466086Y353696D01*
X481321D02*
X483860Y356235D01*
X488938D01*
X491478Y353696D01*
Y351157D01*
X488938Y348618D01*
X491478Y346078D01*
Y343539D01*
X488938Y341000D01*
X483860D01*
X481321Y343539D01*
Y346078D01*
X483860Y348618D01*
X481321Y351157D01*
Y353696D01*
X483860Y348618D02*
X488938D01*
X511791Y341000D02*
Y356235D01*
X519408D01*
X521948Y353696D01*
Y348618D01*
X519408Y346078D01*
X511791D01*
X527026Y356235D02*
X532104D01*
X529565D01*
Y341000D01*
X527026D01*
X532104D01*
X539722D02*
Y356235D01*
X549879Y341000D01*
Y356235D01*
X565114Y353696D02*
X562575Y356235D01*
X557496D01*
X554957Y353696D01*
Y351157D01*
X557496Y348618D01*
X562575D01*
X565114Y346078D01*
Y343539D01*
X562575Y341000D01*
X557496D01*
X554957Y343539D01*
X410157Y431696D02*
X407617Y434235D01*
X402539D01*
X400000Y431696D01*
Y429157D01*
X402539Y426618D01*
X407617D01*
X410157Y424078D01*
Y421539D01*
X407617Y419000D01*
X402539D01*
X400000Y421539D01*
X415235Y434235D02*
Y421539D01*
X417774Y419000D01*
X422853D01*
X425392Y421539D01*
Y434235D01*
X430470D02*
Y419000D01*
X438088D01*
X440627Y421539D01*
Y431696D01*
X438088Y434235D01*
X430470D01*
X445705D02*
Y419000D01*
Y426618D01*
X455862D01*
Y434235D01*
Y419000D01*
X460940D02*
Y429157D01*
X466019Y434235D01*
X471097Y429157D01*
Y419000D01*
Y426618D01*
X460940D01*
X476175Y419000D02*
Y434235D01*
X486332Y419000D01*
Y434235D01*
X501567Y431696D02*
X499028Y434235D01*
X493950D01*
X491410Y431696D01*
Y429157D01*
X493950Y426618D01*
X499028D01*
X501567Y424078D01*
Y421539D01*
X499028Y419000D01*
X493950D01*
X491410Y421539D01*
X506646Y434235D02*
Y419000D01*
Y426618D01*
X516802D01*
Y434235D01*
Y419000D01*
X521881Y434235D02*
Y421539D01*
X524420Y419000D01*
X529498D01*
X532037Y421539D01*
Y434235D01*
M02*
