G04*
G04 #@! TF.GenerationSoftware,Altium Limited,Altium Designer,18.1.7 (191)*
G04*
G04 Layer_Color=16711935*
%FSLAX44Y44*%
%MOMM*%
G71*
G01*
G75*
%ADD36R,2.1000X2.1000*%
%ADD57O,1.8000X2.2000*%
%ADD58R,1.8000X2.2000*%
%ADD59R,2.2000X1.8000*%
%ADD60O,2.2000X1.8000*%
%ADD61C,1.9000*%
%ADD62R,1.9000X1.9000*%
G04:AMPARAMS|DCode=63|XSize=2.2mm|YSize=1.4mm|CornerRadius=0.46mm|HoleSize=0mm|Usage=FLASHONLY|Rotation=0.000|XOffset=0mm|YOffset=0mm|HoleType=Round|Shape=RoundedRectangle|*
%AMROUNDEDRECTD63*
21,1,2.2000,0.4800,0,0,0.0*
21,1,1.2800,1.4000,0,0,0.0*
1,1,0.9200,0.6400,-0.2400*
1,1,0.9200,-0.6400,-0.2400*
1,1,0.9200,-0.6400,0.2400*
1,1,0.9200,0.6400,0.2400*
%
%ADD63ROUNDEDRECTD63*%
%ADD64C,3.4000*%
%ADD65C,4.2000*%
%ADD66C,7.6000*%
%ADD67C,2.1000*%
%ADD68R,2.1000X2.1000*%
G36*
X761768Y-173040D02*
Y-174368D01*
X762432D01*
Y-175032D01*
X761768D01*
X761104D01*
Y-173040D01*
X761768D01*
D02*
G37*
G36*
X753800Y-149136D02*
Y-148472D01*
X754464D01*
Y-149136D01*
X753800D01*
Y-149800D01*
X753136D01*
Y-149136D01*
X753800D01*
D02*
G37*
G36*
X763096Y-139176D02*
X765088D01*
Y-139840D01*
X766416D01*
Y-140504D01*
X764424D01*
Y-139840D01*
X763096D01*
Y-139176D01*
X761768D01*
Y-138512D01*
X763096D01*
Y-139176D01*
D02*
G37*
D36*
X245000Y81750D02*
D03*
D57*
X167000Y88000D02*
D03*
X141600D02*
D03*
X187960Y508000D02*
D03*
X213360D02*
D03*
X238760D02*
D03*
X264160D02*
D03*
X289560D02*
D03*
X314960D02*
D03*
X340360D02*
D03*
X365760D02*
D03*
X391160D02*
D03*
X457200D02*
D03*
X482600D02*
D03*
X508000D02*
D03*
X533400D02*
D03*
X558800D02*
D03*
X584200D02*
D03*
X609600D02*
D03*
X635000Y25400D02*
D03*
X609600D02*
D03*
X584200D02*
D03*
X558800D02*
D03*
X533400D02*
D03*
X457200D02*
D03*
X431800D02*
D03*
X406400D02*
D03*
X381000D02*
D03*
X355600D02*
D03*
X330200D02*
D03*
X304800D02*
D03*
X595250Y201930D02*
D03*
X569850D02*
D03*
X544450D02*
D03*
X519050D02*
D03*
X493650D02*
D03*
X468250D02*
D03*
X442850D02*
D03*
X417450D02*
D03*
X392050D02*
D03*
X366650D02*
D03*
X341250D02*
D03*
X315850D02*
D03*
X290450D02*
D03*
X620650Y125730D02*
D03*
X595250D02*
D03*
X569850D02*
D03*
X544450D02*
D03*
X519050D02*
D03*
X493650D02*
D03*
X468250D02*
D03*
X442850D02*
D03*
X417450D02*
D03*
X392050D02*
D03*
X366650D02*
D03*
X341250D02*
D03*
X315850D02*
D03*
X290450D02*
D03*
D58*
X116200Y88000D02*
D03*
X416560Y508000D02*
D03*
X635000D02*
D03*
X508000Y25400D02*
D03*
X279400D02*
D03*
X620650Y201930D02*
D03*
D59*
X146000Y446000D02*
D03*
X662000Y469000D02*
D03*
D60*
X146000Y420600D02*
D03*
Y395200D02*
D03*
Y369800D02*
D03*
X662000Y418200D02*
D03*
Y443600D02*
D03*
D61*
X25400Y316600D02*
D03*
X50800D02*
D03*
X25400Y342000D02*
D03*
X76200Y411480D02*
D03*
X50800D02*
D03*
X25400D02*
D03*
X76200Y386080D02*
D03*
X50800D02*
D03*
X76200Y497840D02*
D03*
X50800D02*
D03*
X25400D02*
D03*
X76200Y472440D02*
D03*
X50800D02*
D03*
D62*
Y342000D02*
D03*
X25400Y386080D02*
D03*
Y472440D02*
D03*
D63*
X21995Y234000D02*
D03*
Y168000D02*
D03*
D64*
X152400Y508000D02*
D03*
D65*
X21000Y30000D02*
D03*
Y137000D02*
D03*
D66*
X139700Y25400D02*
D03*
X660400Y76200D02*
D03*
Y355600D02*
D03*
D67*
X610000Y263000D02*
D03*
Y308000D02*
D03*
X675000D02*
D03*
X245000Y16750D02*
D03*
X200000D02*
D03*
Y81750D02*
D03*
D68*
X675000Y263000D02*
D03*
M02*
