G04*
G04 #@! TF.GenerationSoftware,Altium Limited,Altium Designer,18.1.7 (191)*
G04*
G04 Layer_Physical_Order=2*
G04 Layer_Color=16711680*
%FSLAX44Y44*%
%MOMM*%
G71*
G01*
G75*
%ADD10C,0.2000*%
%ADD11C,0.5000*%
%ADD15R,1.9000X1.9000*%
%ADD61C,1.9000*%
%ADD62R,1.9000X1.9000*%
%ADD70C,1.0000*%
%ADD72C,0.6000*%
%ADD73O,1.6000X2.0000*%
%ADD74R,1.6000X2.0000*%
%ADD75R,2.0000X1.6000*%
%ADD76O,2.0000X1.6000*%
%ADD77C,1.7000*%
%ADD78R,1.7000X1.7000*%
G04:AMPARAMS|DCode=79|XSize=2mm|YSize=1.2mm|CornerRadius=0.36mm|HoleSize=0mm|Usage=FLASHONLY|Rotation=0.000|XOffset=0mm|YOffset=0mm|HoleType=Round|Shape=RoundedRectangle|*
%AMROUNDEDRECTD79*
21,1,2.0000,0.4800,0,0,0.0*
21,1,1.2800,1.2000,0,0,0.0*
1,1,0.7200,0.6400,-0.2400*
1,1,0.7200,-0.6400,-0.2400*
1,1,0.7200,-0.6400,0.2400*
1,1,0.7200,0.6400,0.2400*
%
%ADD79ROUNDEDRECTD79*%
%ADD80C,3.2000*%
%ADD81C,4.0000*%
%ADD82C,7.4000*%
%ADD83C,0.6000*%
G36*
X680000Y481000D02*
X532000D01*
X529000Y478000D01*
X335078D01*
Y478250D01*
X334768Y479811D01*
X333884Y481134D01*
X332561Y482018D01*
X331000Y482328D01*
X312331D01*
X311673Y482768D01*
X310113Y483078D01*
X310112Y483078D01*
X308642D01*
X308116Y484348D01*
X317844Y494076D01*
X317844Y494076D01*
X318728Y495399D01*
X318783Y495677D01*
X320508Y496391D01*
X322805Y498155D01*
X324568Y500452D01*
X325677Y503128D01*
X326055Y506000D01*
Y510000D01*
X325677Y512872D01*
X324568Y515547D01*
X322805Y517845D01*
X320508Y519608D01*
X317832Y520717D01*
X314960Y521095D01*
X312088Y520717D01*
X309412Y519608D01*
X307115Y517845D01*
X305352Y515547D01*
X304243Y512872D01*
X303865Y510000D01*
Y506000D01*
X304243Y503128D01*
X305352Y500452D01*
X307115Y498155D01*
X308202Y497320D01*
X308285Y496053D01*
X302811Y490578D01*
X281741D01*
X281576Y490826D01*
X279591Y492152D01*
X277250Y492617D01*
X274909Y492152D01*
X272924Y490826D01*
X271598Y488841D01*
X271325Y487471D01*
X269947Y487052D01*
X256738Y500262D01*
Y512590D01*
X256738Y512590D01*
X256428Y514151D01*
X255544Y515474D01*
X255544Y515474D01*
X255000Y516018D01*
Y528000D01*
X680000D01*
Y481000D01*
D02*
G37*
G36*
X89000Y473049D02*
X87730Y472966D01*
X87404Y475442D01*
X86245Y478240D01*
X84402Y480642D01*
X82000Y482485D01*
X79202Y483644D01*
X76200Y484039D01*
X73198Y483644D01*
X70400Y482485D01*
X67998Y480642D01*
X66155Y478240D01*
X64996Y475442D01*
X64601Y472440D01*
X64996Y469438D01*
X66155Y466640D01*
X67998Y464238D01*
X70400Y462395D01*
X73198Y461236D01*
X76200Y460841D01*
X79202Y461236D01*
X82000Y462395D01*
X84342Y464192D01*
X89000D01*
Y398738D01*
X91430Y396308D01*
X117367D01*
X118000Y395674D01*
Y384078D01*
X117000Y383078D01*
X121578Y378500D01*
X124001D01*
X124337Y377996D01*
X124932Y377599D01*
X125329Y377333D01*
X126503Y376847D01*
X127673Y376614D01*
X128417Y376763D01*
X128844Y376847D01*
X129404Y377222D01*
X134394D01*
X134956Y376083D01*
X134391Y375347D01*
X133283Y372672D01*
X132905Y369800D01*
X133283Y366928D01*
X134391Y364253D01*
X136155Y361955D01*
X138453Y360191D01*
X141128Y359083D01*
X144000Y358705D01*
X148000D01*
X150872Y359083D01*
X153547Y360191D01*
X155845Y361955D01*
X157608Y364253D01*
X158717Y366928D01*
X159095Y369800D01*
X158717Y372672D01*
X157608Y375347D01*
X157229Y375842D01*
X157941Y377000D01*
X172000D01*
Y378009D01*
X172163Y378117D01*
X172826Y379110D01*
X173059Y380280D01*
Y402733D01*
X186163Y415837D01*
X186826Y416829D01*
X187059Y418000D01*
X187059Y418000D01*
Y425733D01*
X196065Y434739D01*
X196232Y434990D01*
X196445Y435203D01*
X196561Y435481D01*
X196728Y435731D01*
X196787Y436027D01*
X196902Y436306D01*
X196902Y436502D01*
X197229Y438148D01*
X197880Y439120D01*
X198852Y439771D01*
X200000Y439999D01*
X201251Y439750D01*
X201552D01*
X201848Y439691D01*
X205941D01*
Y432941D01*
X199750Y426750D01*
Y381750D01*
X198660Y380660D01*
X198660Y380660D01*
X198000Y380000D01*
X198610Y379390D01*
X199186Y379390D01*
X199186Y379390D01*
X206500D01*
Y378500D01*
X227000Y358000D01*
X324000D01*
X326000Y356000D01*
X339000Y369000D01*
X553000D01*
X563000Y379000D01*
X577000D01*
Y282355D01*
X566645Y272000D01*
X581000Y257645D01*
Y209074D01*
X579730Y208822D01*
X579459Y209478D01*
X577695Y211775D01*
X575397Y213538D01*
X572722Y214647D01*
X569850Y215025D01*
X566978Y214647D01*
X564302Y213538D01*
X562005Y211775D01*
X560242Y209478D01*
X559133Y206802D01*
X558755Y203930D01*
Y199930D01*
X559133Y197058D01*
X560242Y194382D01*
X562005Y192085D01*
X564302Y190322D01*
X566978Y189213D01*
X569850Y188835D01*
X572722Y189213D01*
X575397Y190322D01*
X577695Y192085D01*
X579459Y194382D01*
X579730Y195038D01*
X581000Y194785D01*
Y132874D01*
X579730Y132622D01*
X579459Y133278D01*
X577695Y135575D01*
X575397Y137338D01*
X572722Y138447D01*
X569850Y138825D01*
X566978Y138447D01*
X564302Y137338D01*
X562005Y135575D01*
X560242Y133278D01*
X559133Y130602D01*
X558755Y127730D01*
Y123730D01*
X559133Y120858D01*
X560242Y118182D01*
X562005Y115885D01*
X564302Y114122D01*
X566978Y113013D01*
X569850Y112635D01*
X572722Y113013D01*
X575397Y114122D01*
X577695Y115885D01*
X579459Y118182D01*
X579730Y118838D01*
X581000Y118586D01*
Y115000D01*
X583000Y113000D01*
X584000Y114000D01*
X589996D01*
X592378Y113013D01*
X595250Y112635D01*
X598122Y113013D01*
X600504Y114000D01*
X604053D01*
Y117132D01*
X604859Y118182D01*
X605967Y120858D01*
X606345Y123730D01*
Y127730D01*
X605967Y130602D01*
X604859Y133278D01*
X604053Y134328D01*
Y140947D01*
X603380Y141620D01*
X631134Y169374D01*
X631134Y169374D01*
X632018Y170697D01*
X632328Y172258D01*
X632328Y172258D01*
Y183953D01*
X638741Y190366D01*
X638741Y190366D01*
X639165Y191000D01*
X650000D01*
X650922Y190078D01*
Y161769D01*
X626363Y137211D01*
X626198Y137338D01*
X623522Y138447D01*
X620650Y138825D01*
X617778Y138447D01*
X615103Y137338D01*
X614661Y137000D01*
X609600D01*
Y128071D01*
X609555Y127730D01*
Y123730D01*
X609600Y123389D01*
Y115872D01*
X606728Y113000D01*
X607728Y112000D01*
X634000D01*
Y130750D01*
X646250Y143000D01*
X685000D01*
Y4500D01*
X683500Y3000D01*
X628000D01*
Y3500D01*
X626949Y4551D01*
X626826Y5171D01*
X626163Y6163D01*
X626163Y6163D01*
X624059Y8267D01*
Y17751D01*
X625329Y18004D01*
X625392Y17852D01*
X627155Y15555D01*
X629453Y13792D01*
X632128Y12683D01*
X635000Y12305D01*
X637872Y12683D01*
X640547Y13792D01*
X642845Y15555D01*
X644609Y17852D01*
X645717Y20528D01*
X646095Y23400D01*
Y27400D01*
X645717Y30272D01*
X644609Y32947D01*
X642845Y35245D01*
X640547Y37009D01*
X637872Y38117D01*
X635000Y38495D01*
X632128Y38117D01*
X629453Y37009D01*
X627155Y35245D01*
X625392Y32947D01*
X625329Y32796D01*
X624059Y33049D01*
Y68966D01*
X623988Y69320D01*
X623974Y69681D01*
X623801Y70403D01*
X623344Y76200D01*
X623473Y77827D01*
X623465Y77888D01*
X623480Y77947D01*
X623396Y78478D01*
X623332Y79013D01*
X623302Y79066D01*
X623293Y79126D01*
X623012Y79584D01*
X622749Y80054D01*
X622701Y80092D01*
X622669Y80144D01*
X622000Y80868D01*
Y85160D01*
X510238D01*
X509559Y86430D01*
X509826Y86830D01*
X510059Y88000D01*
Y115496D01*
X510269Y115567D01*
X511329Y115789D01*
X513503Y114122D01*
X516178Y113013D01*
X519050Y112635D01*
X521922Y113013D01*
X524598Y114122D01*
X526895Y115885D01*
X528658Y118182D01*
X529767Y120858D01*
X530145Y123730D01*
Y127730D01*
X529767Y130602D01*
X528658Y133278D01*
X526895Y135575D01*
X524598Y137338D01*
X521922Y138447D01*
X519050Y138825D01*
X516178Y138447D01*
X513503Y137338D01*
X511329Y135670D01*
X510269Y135893D01*
X510059Y135964D01*
Y150000D01*
X510059Y150000D01*
X509826Y151171D01*
X509163Y152163D01*
X509163Y152163D01*
X508163Y153163D01*
X507170Y153826D01*
X506000Y154059D01*
X506000Y154059D01*
X456693D01*
X455074Y155677D01*
X454525Y156044D01*
X454082Y156340D01*
X454082Y156340D01*
X454081Y156340D01*
X453482Y156459D01*
X452911Y156573D01*
X452911Y156573D01*
X452911Y156573D01*
X452339Y156459D01*
X451741Y156340D01*
X451740Y156340D01*
X451740Y156340D01*
X451225Y155995D01*
X450748Y155677D01*
X450748Y155676D01*
X450748Y155676D01*
X450748Y155676D01*
X445837Y150765D01*
X445837Y150765D01*
X445452Y150188D01*
X445174Y149773D01*
X445174Y149773D01*
X445174Y149773D01*
X445075Y149278D01*
X444941Y148602D01*
X444941Y148602D01*
X444941Y145205D01*
X445057Y144624D01*
X445171Y144042D01*
X445173Y144038D01*
X445174Y144034D01*
X445506Y143538D01*
X445832Y143048D01*
X448791Y140073D01*
X448792Y140072D01*
X448793Y140071D01*
X449285Y139741D01*
X449781Y139408D01*
X449783Y139407D01*
X449785Y139406D01*
X450360Y139291D01*
X450951Y139172D01*
X450953Y139172D01*
X450955Y139172D01*
X452225Y139170D01*
X452227Y139171D01*
X452229Y139170D01*
X452819Y139288D01*
X453396Y139402D01*
X453398Y139403D01*
X453400Y139403D01*
X453886Y139728D01*
X454206Y139941D01*
X474441D01*
Y133745D01*
X474519Y133352D01*
X474546Y132953D01*
X474635Y132772D01*
X474674Y132574D01*
X474896Y132241D01*
X475073Y131882D01*
X475187Y131735D01*
X475987Y129803D01*
X476286Y127529D01*
Y123931D01*
X475987Y121657D01*
X475074Y119453D01*
X474841Y118283D01*
X475074Y117112D01*
X475322Y116740D01*
X475737Y116120D01*
X476267Y115590D01*
Y110267D01*
X471043Y105043D01*
X469951Y104826D01*
X468959Y104163D01*
X468296Y103170D01*
X468063Y102000D01*
Y96267D01*
X467837Y96041D01*
X467174Y95049D01*
X466941Y93878D01*
X466941Y93878D01*
Y89122D01*
X466941Y89122D01*
X467174Y87951D01*
X467837Y86959D01*
X468959Y85837D01*
X469951Y85174D01*
X471122Y84941D01*
X471122Y84941D01*
X496532D01*
X497018Y83768D01*
X479000Y65750D01*
Y65326D01*
X478733Y65059D01*
X430000D01*
X428829Y64826D01*
X427837Y64163D01*
X426798Y63123D01*
X426630Y62873D01*
X426417Y62660D01*
X426302Y62382D01*
X426135Y62131D01*
X426076Y61835D01*
X425961Y61557D01*
X425771Y60602D01*
X425121Y59630D01*
X424148Y58979D01*
X423193Y58790D01*
X422915Y58674D01*
X422619Y58615D01*
X422368Y58448D01*
X422090Y58333D01*
X421877Y58120D01*
X421627Y57952D01*
X420611Y56937D01*
X420000Y57059D01*
X420000Y57059D01*
X412059D01*
Y58580D01*
X412059Y58580D01*
X411948Y59140D01*
Y63828D01*
X412000Y63881D01*
X408025D01*
X406917Y64989D01*
X406439Y65308D01*
X405966Y65634D01*
X405944Y65639D01*
X405925Y65652D01*
X405360Y65764D01*
X404799Y65884D01*
X375675Y66313D01*
X375356Y66255D01*
X375033D01*
X374775Y66148D01*
X374501Y66097D01*
X374229Y65922D01*
X373930Y65798D01*
X373796Y65664D01*
X372398Y64729D01*
X371250Y64501D01*
X370102Y64729D01*
X369018Y65454D01*
X368978Y65516D01*
X368712Y65699D01*
X368483Y65928D01*
X368225Y66035D01*
X367995Y66193D01*
X367679Y66261D01*
X367380Y66385D01*
X367101D01*
X366828Y66443D01*
X364000Y66485D01*
Y67941D01*
X363656Y68285D01*
X327370D01*
X327015Y70356D01*
X326893Y70675D01*
X326826Y71010D01*
X326681Y71227D01*
X326588Y71471D01*
X326353Y71719D01*
X326163Y72003D01*
X324003Y74163D01*
X323010Y74826D01*
X321840Y75059D01*
X321840Y75059D01*
X321104D01*
X316047Y80116D01*
X306210D01*
X305437Y80889D01*
X305187Y81056D01*
X304974Y81269D01*
X304695Y81384D01*
X304445Y81552D01*
X304149Y81610D01*
X303871Y81726D01*
X303852Y81729D01*
X302874Y82383D01*
X302596Y82499D01*
X302345Y82666D01*
X302050Y82725D01*
X301771Y82840D01*
X301470Y82840D01*
X301175Y82899D01*
X281101D01*
X241160Y122840D01*
Y128000D01*
X233326D01*
X233261Y128065D01*
X233011Y128232D01*
X232797Y128445D01*
X232519Y128561D01*
X232269Y128728D01*
X231973Y128787D01*
X231695Y128902D01*
X231499D01*
X231006Y129000D01*
X230704D01*
X230409Y129059D01*
X209848D01*
X209552Y129000D01*
X209251D01*
X208000Y128751D01*
X206749Y129000D01*
X206576D01*
X206294Y129282D01*
X206043Y129449D01*
X205912Y129580D01*
X205912Y129580D01*
X205699Y129793D01*
X205532Y130044D01*
X199096Y136480D01*
X198846Y136647D01*
X198633Y136860D01*
X198354Y136975D01*
X198104Y137143D01*
X197808Y137201D01*
X197530Y137317D01*
X197229D01*
X196933Y137375D01*
X196638Y137317D01*
X196337D01*
X194750Y137001D01*
X193602Y137229D01*
X193133Y137543D01*
X192854Y137659D01*
X192604Y137826D01*
X192308Y137885D01*
X192030Y138000D01*
X191729D01*
X191433Y138059D01*
X183456D01*
X183456Y138059D01*
X182285Y137826D01*
X181293Y137163D01*
X181293Y137163D01*
X173189Y129059D01*
X163717D01*
X163421Y129000D01*
X163120D01*
X162842Y128885D01*
X162546Y128826D01*
X162296Y128659D01*
X162017Y128543D01*
X161548Y128229D01*
X160400Y128001D01*
X159252Y128229D01*
X158783Y128543D01*
X158504Y128659D01*
X158254Y128826D01*
X157958Y128885D01*
X157680Y129000D01*
X157379D01*
X157083Y129059D01*
X154059D01*
Y132941D01*
X157083D01*
X157379Y133000D01*
X157680Y133000D01*
X157958Y133115D01*
X158254Y133174D01*
X158504Y133342D01*
X158783Y133457D01*
X159252Y133771D01*
X160400Y133999D01*
X161548Y133771D01*
X162017Y133457D01*
X162296Y133342D01*
X162546Y133174D01*
X162842Y133115D01*
X163120Y133000D01*
X163421Y133000D01*
X163717Y132941D01*
X173565D01*
X174736Y133174D01*
X175728Y133837D01*
X176391Y134830D01*
X176624Y136000D01*
Y148435D01*
X176391Y149605D01*
X176319Y149714D01*
X176605Y150000D01*
X174605Y152000D01*
X173296D01*
X173000Y152059D01*
X173000Y152059D01*
X113000D01*
X113000Y152059D01*
X112704Y152000D01*
X98250D01*
Y161500D01*
X91750Y168000D01*
X86000D01*
Y211000D01*
X80250Y216750D01*
X75576D01*
X74500Y217826D01*
Y240000D01*
X72500Y242000D01*
X55000D01*
Y305892D01*
X56600Y306555D01*
X59002Y308398D01*
X60845Y310800D01*
X62004Y313598D01*
X62399Y316600D01*
X62004Y319602D01*
X60845Y322400D01*
X59002Y324802D01*
X56600Y326645D01*
X55000Y327308D01*
Y330500D01*
X62300D01*
Y353500D01*
X55000D01*
Y375372D01*
X56600Y376035D01*
X59002Y377878D01*
X60845Y380280D01*
X62004Y383078D01*
X62399Y386080D01*
X62004Y389082D01*
X60845Y391880D01*
X59002Y394282D01*
X56600Y396125D01*
X55000Y396788D01*
Y400772D01*
X56600Y401435D01*
X59002Y403278D01*
X60845Y405680D01*
X62004Y408478D01*
X62399Y411480D01*
X62004Y414482D01*
X60845Y417280D01*
X59002Y419682D01*
X56600Y421525D01*
X55000Y422188D01*
Y461732D01*
X56600Y462395D01*
X59002Y464238D01*
X60845Y466640D01*
X62004Y469438D01*
X62399Y472440D01*
X62004Y475442D01*
X60845Y478240D01*
X59002Y480642D01*
X56600Y482485D01*
X55000Y483148D01*
Y487132D01*
X56600Y487795D01*
X59002Y489638D01*
X60845Y492040D01*
X62004Y494838D01*
X62399Y497840D01*
X62004Y500842D01*
X60845Y503640D01*
X59002Y506042D01*
X56600Y507885D01*
X55000Y508548D01*
Y512000D01*
X59000Y516000D01*
X48881D01*
X48586Y516059D01*
X3000D01*
Y531000D01*
X89000D01*
Y473049D01*
D02*
G37*
G36*
X247000Y448000D02*
Y445000D01*
X306000D01*
X307000Y444000D01*
Y413000D01*
X284692D01*
X284091Y413402D01*
X281750Y413867D01*
X279409Y413402D01*
X278808Y413000D01*
X216750D01*
X209000Y420750D01*
Y442750D01*
X201848D01*
X200000Y443117D01*
X197659Y442652D01*
X195674Y441326D01*
X194348Y439341D01*
X193883Y437000D01*
X193902Y436902D01*
X184000Y427000D01*
Y418000D01*
X170000Y404000D01*
Y380280D01*
X151442D01*
X150872Y380517D01*
X148000Y380895D01*
X144000D01*
X141128Y380517D01*
X140558Y380280D01*
X128280D01*
X127673Y379673D01*
X126500Y380159D01*
Y391500D01*
X117000Y401000D01*
X93000D01*
Y435000D01*
X162000D01*
Y451000D01*
X242000D01*
X247000Y448000D01*
D02*
G37*
G36*
X49000Y512000D02*
Y509202D01*
X47798Y509044D01*
X45000Y507885D01*
X42598Y506042D01*
X40755Y503640D01*
X39596Y500842D01*
X39201Y497840D01*
X39596Y494838D01*
X40755Y492040D01*
X42598Y489638D01*
X45000Y487795D01*
X47798Y486636D01*
X49000Y486478D01*
Y483802D01*
X47798Y483644D01*
X45000Y482485D01*
X42598Y480642D01*
X40755Y478240D01*
X39596Y475442D01*
X39201Y472440D01*
X39596Y469438D01*
X40755Y466640D01*
X42598Y464238D01*
X45000Y462395D01*
X47798Y461236D01*
X49000Y461078D01*
Y422842D01*
X47798Y422684D01*
X45000Y421525D01*
X42598Y419682D01*
X40755Y417280D01*
X39596Y414482D01*
X39201Y411480D01*
X39596Y408478D01*
X40755Y405680D01*
X42598Y403278D01*
X45000Y401435D01*
X47798Y400276D01*
X49000Y400118D01*
Y397442D01*
X47798Y397284D01*
X45000Y396125D01*
X42598Y394282D01*
X40755Y391880D01*
X39596Y389082D01*
X39201Y386080D01*
X39596Y383078D01*
X40755Y380280D01*
X42598Y377878D01*
X45000Y376035D01*
X47798Y374876D01*
X49000Y374718D01*
Y353500D01*
X39300D01*
Y330500D01*
X49000D01*
Y327962D01*
X47798Y327804D01*
X45000Y326645D01*
X42598Y324802D01*
X40755Y322400D01*
X39596Y319602D01*
X39201Y316600D01*
X39596Y313598D01*
X40755Y310800D01*
X42598Y308398D01*
X45000Y306555D01*
X47798Y305396D01*
X49000Y305238D01*
Y160000D01*
X51000Y158000D01*
X59000D01*
Y140000D01*
X73000Y126000D01*
X72000Y125000D01*
Y95500D01*
X77783D01*
X77837Y95419D01*
X78829Y94756D01*
X80000Y94523D01*
X91000D01*
X92170Y94756D01*
X93163Y95419D01*
X93163Y95419D01*
X93244Y95500D01*
X93500D01*
X97000Y99000D01*
Y133000D01*
X113000Y149000D01*
X173000D01*
X173565Y148435D01*
Y136000D01*
X163717D01*
X162741Y136652D01*
X160400Y137118D01*
X158059Y136652D01*
X157083Y136000D01*
X152000D01*
X151000Y135000D01*
Y126000D01*
X157083D01*
X158059Y125348D01*
X160400Y124882D01*
X162741Y125348D01*
X163717Y126000D01*
X173916D01*
X174186Y125730D01*
X183456Y135000D01*
X191433D01*
X192409Y134348D01*
X194750Y133883D01*
X196933Y134317D01*
X203369Y127881D01*
X203674Y127424D01*
X204131Y127119D01*
X205250Y126000D01*
X206152D01*
X208000Y125632D01*
X209848Y126000D01*
X230409D01*
X231000Y125883D01*
X231098Y125902D01*
X276000Y81000D01*
Y79840D01*
X301175D01*
X302659Y78848D01*
X303274Y78726D01*
X310000Y72000D01*
X321840D01*
X324000Y69840D01*
X325000Y64000D01*
X366783Y63385D01*
X366924Y63174D01*
X368909Y61848D01*
X371250Y61382D01*
X373591Y61848D01*
X375576Y63174D01*
X375630Y63255D01*
X404754Y62826D01*
X409000Y58580D01*
Y54000D01*
X420000D01*
X421000Y53000D01*
X423789Y55789D01*
X425341Y56098D01*
X427326Y57424D01*
X428652Y59409D01*
X428960Y60960D01*
X430000Y62000D01*
X480000D01*
X497000Y79000D01*
X619561D01*
X620423Y78067D01*
X620276Y76200D01*
X620770Y69923D01*
X621000Y68966D01*
Y31941D01*
X619730Y31688D01*
X619208Y32947D01*
X617445Y35245D01*
X615148Y37009D01*
X612472Y38117D01*
X609600Y38495D01*
X606728Y38117D01*
X604053Y37009D01*
X601755Y35245D01*
X599991Y32947D01*
X598883Y30272D01*
X598505Y27400D01*
Y23400D01*
X598883Y20528D01*
X599991Y17852D01*
X601755Y15555D01*
X604053Y13792D01*
X606728Y12683D01*
X609600Y12305D01*
X612472Y12683D01*
X615148Y13792D01*
X617445Y15555D01*
X619208Y17852D01*
X619730Y19112D01*
X621000Y18859D01*
Y7000D01*
X624000Y4000D01*
X623000Y3000D01*
X398059D01*
Y14334D01*
X399329Y14961D01*
X400853Y13792D01*
X403528Y12683D01*
X406400Y12305D01*
X409272Y12683D01*
X411948Y13792D01*
X414245Y15555D01*
X416008Y17852D01*
X417117Y20528D01*
X417495Y23400D01*
Y27400D01*
X417117Y30272D01*
X416008Y32947D01*
X414245Y35245D01*
X411948Y37009D01*
X409272Y38117D01*
X406400Y38495D01*
X403528Y38117D01*
X400853Y37009D01*
X399206Y35745D01*
X397863Y36159D01*
X397777Y36244D01*
X397163Y37163D01*
X397000Y37326D01*
Y41000D01*
X393000Y45000D01*
X365545D01*
X365250Y45059D01*
X356941D01*
X350000Y52000D01*
X334326Y52000D01*
X322595Y63731D01*
X322345Y63898D01*
X322132Y64111D01*
X321853Y64226D01*
X321603Y64394D01*
X321307Y64453D01*
X321029Y64568D01*
X320728D01*
X320432Y64627D01*
X320136Y64568D01*
X319835D01*
X319500Y64501D01*
X319165Y64568D01*
X318863D01*
X318568Y64627D01*
X318272Y64568D01*
X317971D01*
X317693Y64453D01*
X317397Y64394D01*
X317147Y64226D01*
X316868Y64111D01*
X316816Y64059D01*
X290591D01*
X290296Y64000D01*
X289704D01*
X289409Y64059D01*
X276267D01*
X269163Y71163D01*
X268171Y71826D01*
X267000Y72059D01*
X267000Y72059D01*
X257500D01*
Y94250D01*
X234081D01*
Y97000D01*
X223500Y107581D01*
Y111000D01*
X218326D01*
X218163Y111163D01*
X217171Y111826D01*
X216000Y112059D01*
X214830Y111826D01*
X213837Y111163D01*
X213837Y111163D01*
X213674Y111000D01*
X158000D01*
X154000Y107000D01*
Y97878D01*
X153941Y97582D01*
X153941Y97582D01*
Y80116D01*
X154000Y79821D01*
Y78059D01*
X142321D01*
X142123Y78019D01*
X141922Y78033D01*
X141600Y77990D01*
X141278Y78033D01*
X141077Y78019D01*
X140879Y78059D01*
X129941D01*
X129000Y79000D01*
Y100700D01*
X127200D01*
Y101000D01*
X124357D01*
X124000Y101071D01*
X108000D01*
X107643Y101000D01*
X105200D01*
Y99222D01*
X105174Y99183D01*
X105112Y98873D01*
X81000Y74761D01*
Y69000D01*
X4000D01*
X3000Y69796D01*
Y120793D01*
X4196Y121221D01*
X4658Y120658D01*
X8160Y117784D01*
X12156Y115648D01*
X16491Y114333D01*
X21000Y113889D01*
X25509Y114333D01*
X29844Y115648D01*
X33840Y117784D01*
X37342Y120658D01*
X40216Y124160D01*
X42352Y128156D01*
X43667Y132491D01*
X44111Y137000D01*
X43667Y141509D01*
X42352Y145844D01*
X40216Y149840D01*
X37342Y153342D01*
X33840Y156216D01*
X30509Y157997D01*
X30620Y159378D01*
X31723Y159835D01*
X33102Y160893D01*
X34160Y162271D01*
X34825Y163877D01*
X35052Y165600D01*
Y170400D01*
X34825Y172123D01*
X34160Y173728D01*
X33102Y175107D01*
X31723Y176165D01*
X30118Y176830D01*
X28395Y177057D01*
X15595D01*
X13872Y176830D01*
X12266Y176165D01*
X10888Y175107D01*
X9830Y173728D01*
X9165Y172123D01*
X8938Y170400D01*
Y165600D01*
X9165Y163877D01*
X9830Y162271D01*
X10888Y160893D01*
X12266Y159835D01*
X12437Y159764D01*
X12371Y158417D01*
X12156Y158352D01*
X8160Y156216D01*
X4658Y153342D01*
X4196Y152779D01*
X3000Y153207D01*
Y513000D01*
X48586D01*
X49000Y512000D01*
D02*
G37*
G36*
X71000Y232000D02*
Y217000D01*
X78000Y210000D01*
Y166500D01*
X84500Y160000D01*
X91430D01*
Y98012D01*
X91000Y97582D01*
X80000D01*
Y118000D01*
X77000Y121000D01*
X80000Y124000D01*
X81204Y124000D01*
X82500D01*
X82500Y124500D01*
X81730Y125270D01*
X81730Y125270D01*
X68000Y139000D01*
Y156500D01*
X60000Y164500D01*
Y182500D01*
X54000Y188500D01*
Y234000D01*
X69000D01*
X71000Y232000D01*
D02*
G37*
G36*
X455426Y151000D02*
X506000D01*
X507000Y150000D01*
Y88000D01*
X471122D01*
X470000Y89122D01*
Y93878D01*
X471122Y95000D01*
Y102000D01*
X472326D01*
X479326Y109000D01*
Y116857D01*
X477900Y118283D01*
X478967Y120858D01*
X479345Y123730D01*
Y127730D01*
X478967Y130602D01*
X477859Y133278D01*
X477500Y133745D01*
Y143000D01*
X453000D01*
X452229Y142229D01*
X450959Y142231D01*
X448000Y145205D01*
X448000Y148602D01*
X452911Y153514D01*
X455426Y151000D01*
D02*
G37*
G36*
X231000Y94000D02*
Y79000D01*
X223000Y71000D01*
X225000Y69000D01*
X267000D01*
X275000Y61000D01*
X289409D01*
X290000Y60883D01*
X290591Y61000D01*
X318000D01*
X318568Y61568D01*
X319500Y61382D01*
X320432Y61568D01*
X333000Y49000D01*
Y48500D01*
X346000D01*
X352500Y42000D01*
X365250D01*
Y39439D01*
X364837Y39163D01*
X364174Y38170D01*
X363941Y37000D01*
Y16000D01*
X346000D01*
Y31000D01*
X337000Y40000D01*
X277000D01*
X276000Y39000D01*
X252500Y62500D01*
X247758D01*
X247271Y62826D01*
X246100Y63059D01*
X246100Y63059D01*
X207441D01*
X202215Y68285D01*
X202623Y69488D01*
X203263Y69572D01*
X206304Y70831D01*
X208915Y72835D01*
X210919Y75446D01*
X212178Y78487D01*
X212608Y81750D01*
X212178Y85013D01*
X210919Y88054D01*
X208915Y90665D01*
X206304Y92669D01*
X203263Y93928D01*
X200000Y94358D01*
X196737Y93928D01*
X193696Y92669D01*
X191085Y90665D01*
X189081Y88054D01*
X187822Y85013D01*
X187392Y81750D01*
X187703Y79386D01*
X186681Y78116D01*
X159000D01*
X159000Y78116D01*
Y78116D01*
X158151Y78966D01*
X157000Y80116D01*
Y97582D01*
X166418Y107000D01*
X214000D01*
X216000Y109000D01*
X231000Y94000D01*
D02*
G37*
G36*
X124000Y75000D02*
X140879D01*
X141600Y74905D01*
X142321Y75000D01*
X166279Y75000D01*
X167000Y74905D01*
X167721Y75000D01*
X184500D01*
X199500Y60000D01*
X246100D01*
X268400Y37700D01*
Y12400D01*
X269000D01*
Y12000D01*
X367204D01*
Y12000D01*
X367600Y12000D01*
X368300Y12700D01*
X367822Y13178D01*
Y13178D01*
X367000Y14021D01*
Y37000D01*
X393000D01*
X395000Y35000D01*
Y3000D01*
X246054D01*
X245971Y4270D01*
X248263Y4572D01*
X251304Y5831D01*
X253915Y7835D01*
X255919Y10446D01*
X257178Y13487D01*
X257608Y16750D01*
X257178Y20013D01*
X255919Y23054D01*
X253915Y25665D01*
X251304Y27669D01*
X248263Y28928D01*
X245000Y29358D01*
X241737Y28928D01*
X238696Y27669D01*
X236085Y25665D01*
X234081Y23054D01*
X232822Y20013D01*
X232392Y16750D01*
X232822Y13487D01*
X234081Y10446D01*
X236085Y7835D01*
X238696Y5831D01*
X241737Y4572D01*
X244029Y4270D01*
X243946Y3000D01*
X201054D01*
X200971Y4270D01*
X203263Y4572D01*
X206304Y5831D01*
X208915Y7835D01*
X210919Y10446D01*
X212178Y13487D01*
X212608Y16750D01*
X212178Y20013D01*
X210919Y23054D01*
X208915Y25665D01*
X206304Y27669D01*
X203263Y28928D01*
X200000Y29358D01*
X196737Y28928D01*
X193696Y27669D01*
X191085Y25665D01*
X189081Y23054D01*
X187822Y20013D01*
X187392Y16750D01*
X187822Y13487D01*
X189081Y10446D01*
X191085Y7835D01*
X193696Y5831D01*
X196737Y4572D01*
X199029Y4270D01*
X198946Y3000D01*
X174186D01*
X173565Y4108D01*
X175450Y7184D01*
X177860Y13001D01*
X179330Y19123D01*
X179824Y25400D01*
X179330Y31677D01*
X177860Y37799D01*
X175450Y43616D01*
X172161Y48984D01*
X168072Y53772D01*
X163284Y57861D01*
X157916Y61150D01*
X152099Y63560D01*
X145977Y65030D01*
X139700Y65524D01*
X133423Y65030D01*
X127301Y63560D01*
X121484Y61150D01*
X116116Y57861D01*
X111328Y53772D01*
X107239Y48984D01*
X103949Y43616D01*
X101540Y37799D01*
X100070Y31677D01*
X99576Y25400D01*
X100070Y19123D01*
X101540Y13001D01*
X103949Y7184D01*
X105835Y4108D01*
X105214Y3000D01*
X3000D01*
Y65000D01*
X82500D01*
X108000Y90500D01*
Y98012D01*
X124000D01*
Y75000D01*
D02*
G37*
%LPC*%
G36*
X646000Y521000D02*
X624000D01*
Y495000D01*
X646000D01*
Y521000D01*
D02*
G37*
G36*
X427560D02*
X405560D01*
Y495000D01*
X427560D01*
Y521000D01*
D02*
G37*
G36*
X609600Y521095D02*
X606728Y520717D01*
X604053Y519608D01*
X601755Y517845D01*
X599991Y515547D01*
X598883Y512872D01*
X598505Y510000D01*
Y506000D01*
X598883Y503128D01*
X599991Y500452D01*
X601755Y498155D01*
X604053Y496391D01*
X606728Y495283D01*
X609600Y494905D01*
X612472Y495283D01*
X615148Y496391D01*
X617445Y498155D01*
X619208Y500452D01*
X620317Y503128D01*
X620695Y506000D01*
Y510000D01*
X620317Y512872D01*
X619208Y515547D01*
X617445Y517845D01*
X615148Y519608D01*
X612472Y520717D01*
X609600Y521095D01*
D02*
G37*
G36*
X584200D02*
X581328Y520717D01*
X578652Y519608D01*
X576355Y517845D01*
X574591Y515547D01*
X573483Y512872D01*
X573105Y510000D01*
Y506000D01*
X573483Y503128D01*
X574591Y500452D01*
X576355Y498155D01*
X578652Y496391D01*
X581328Y495283D01*
X584200Y494905D01*
X587072Y495283D01*
X589748Y496391D01*
X592045Y498155D01*
X593809Y500452D01*
X594917Y503128D01*
X595295Y506000D01*
Y510000D01*
X594917Y512872D01*
X593809Y515547D01*
X592045Y517845D01*
X589748Y519608D01*
X587072Y520717D01*
X584200Y521095D01*
D02*
G37*
G36*
X558800D02*
X555928Y520717D01*
X553252Y519608D01*
X550955Y517845D01*
X549192Y515547D01*
X548083Y512872D01*
X547705Y510000D01*
Y506000D01*
X548083Y503128D01*
X549192Y500452D01*
X550955Y498155D01*
X553252Y496391D01*
X555928Y495283D01*
X558800Y494905D01*
X561672Y495283D01*
X564347Y496391D01*
X566645Y498155D01*
X568409Y500452D01*
X569517Y503128D01*
X569895Y506000D01*
Y510000D01*
X569517Y512872D01*
X568409Y515547D01*
X566645Y517845D01*
X564347Y519608D01*
X561672Y520717D01*
X558800Y521095D01*
D02*
G37*
G36*
X533400D02*
X530528Y520717D01*
X527853Y519608D01*
X525555Y517845D01*
X523792Y515547D01*
X522683Y512872D01*
X522305Y510000D01*
Y506000D01*
X522683Y503128D01*
X523792Y500452D01*
X525555Y498155D01*
X527853Y496391D01*
X530528Y495283D01*
X533400Y494905D01*
X536272Y495283D01*
X538947Y496391D01*
X541245Y498155D01*
X543008Y500452D01*
X544117Y503128D01*
X544495Y506000D01*
Y510000D01*
X544117Y512872D01*
X543008Y515547D01*
X541245Y517845D01*
X538947Y519608D01*
X536272Y520717D01*
X533400Y521095D01*
D02*
G37*
G36*
X508000D02*
X505128Y520717D01*
X502453Y519608D01*
X500155Y517845D01*
X498391Y515547D01*
X497283Y512872D01*
X496905Y510000D01*
Y506000D01*
X497283Y503128D01*
X498391Y500452D01*
X500155Y498155D01*
X502453Y496391D01*
X505128Y495283D01*
X508000Y494905D01*
X510872Y495283D01*
X513548Y496391D01*
X515845Y498155D01*
X517608Y500452D01*
X518717Y503128D01*
X519095Y506000D01*
Y510000D01*
X518717Y512872D01*
X517608Y515547D01*
X515845Y517845D01*
X513548Y519608D01*
X510872Y520717D01*
X508000Y521095D01*
D02*
G37*
G36*
X482600D02*
X479728Y520717D01*
X477052Y519608D01*
X474755Y517845D01*
X472991Y515547D01*
X471883Y512872D01*
X471505Y510000D01*
Y506000D01*
X471883Y503128D01*
X472991Y500452D01*
X474755Y498155D01*
X477052Y496391D01*
X479728Y495283D01*
X482600Y494905D01*
X485472Y495283D01*
X488148Y496391D01*
X490445Y498155D01*
X492209Y500452D01*
X493317Y503128D01*
X493695Y506000D01*
Y510000D01*
X493317Y512872D01*
X492209Y515547D01*
X490445Y517845D01*
X488148Y519608D01*
X485472Y520717D01*
X482600Y521095D01*
D02*
G37*
G36*
X457200D02*
X454328Y520717D01*
X451652Y519608D01*
X449355Y517845D01*
X447592Y515547D01*
X446483Y512872D01*
X446105Y510000D01*
Y506000D01*
X446483Y503128D01*
X447592Y500452D01*
X449355Y498155D01*
X451652Y496391D01*
X454328Y495283D01*
X457200Y494905D01*
X460072Y495283D01*
X462747Y496391D01*
X465045Y498155D01*
X466809Y500452D01*
X467917Y503128D01*
X468295Y506000D01*
Y510000D01*
X467917Y512872D01*
X466809Y515547D01*
X465045Y517845D01*
X462747Y519608D01*
X460072Y520717D01*
X457200Y521095D01*
D02*
G37*
G36*
X391160D02*
X388288Y520717D01*
X385612Y519608D01*
X383315Y517845D01*
X381552Y515547D01*
X380443Y512872D01*
X380065Y510000D01*
Y506000D01*
X380443Y503128D01*
X381552Y500452D01*
X383315Y498155D01*
X385612Y496391D01*
X388288Y495283D01*
X391160Y494905D01*
X394032Y495283D01*
X396707Y496391D01*
X399005Y498155D01*
X400769Y500452D01*
X401877Y503128D01*
X402255Y506000D01*
Y510000D01*
X401877Y512872D01*
X400769Y515547D01*
X399005Y517845D01*
X396707Y519608D01*
X394032Y520717D01*
X391160Y521095D01*
D02*
G37*
G36*
X365760D02*
X362888Y520717D01*
X360213Y519608D01*
X357915Y517845D01*
X356152Y515547D01*
X355043Y512872D01*
X354665Y510000D01*
Y506000D01*
X355043Y503128D01*
X356152Y500452D01*
X357915Y498155D01*
X360213Y496391D01*
X362888Y495283D01*
X365760Y494905D01*
X368632Y495283D01*
X371307Y496391D01*
X373605Y498155D01*
X375368Y500452D01*
X376477Y503128D01*
X376855Y506000D01*
Y510000D01*
X376477Y512872D01*
X375368Y515547D01*
X373605Y517845D01*
X371307Y519608D01*
X368632Y520717D01*
X365760Y521095D01*
D02*
G37*
G36*
X340360D02*
X337488Y520717D01*
X334813Y519608D01*
X332515Y517845D01*
X330751Y515547D01*
X329643Y512872D01*
X329265Y510000D01*
Y506000D01*
X329643Y503128D01*
X330751Y500452D01*
X332515Y498155D01*
X334813Y496391D01*
X337488Y495283D01*
X340360Y494905D01*
X343232Y495283D01*
X345908Y496391D01*
X348205Y498155D01*
X349968Y500452D01*
X351077Y503128D01*
X351455Y506000D01*
Y510000D01*
X351077Y512872D01*
X349968Y515547D01*
X348205Y517845D01*
X345908Y519608D01*
X343232Y520717D01*
X340360Y521095D01*
D02*
G37*
G36*
X289560D02*
X286688Y520717D01*
X284013Y519608D01*
X281715Y517845D01*
X279951Y515547D01*
X278843Y512872D01*
X278465Y510000D01*
Y506000D01*
X278843Y503128D01*
X279951Y500452D01*
X281715Y498155D01*
X284013Y496391D01*
X286688Y495283D01*
X289560Y494905D01*
X292432Y495283D01*
X295107Y496391D01*
X297405Y498155D01*
X299168Y500452D01*
X300277Y503128D01*
X300655Y506000D01*
Y510000D01*
X300277Y512872D01*
X299168Y515547D01*
X297405Y517845D01*
X295107Y519608D01*
X292432Y520717D01*
X289560Y521095D01*
D02*
G37*
G36*
X76200Y397679D02*
X73198Y397284D01*
X70400Y396125D01*
X67998Y394282D01*
X66155Y391880D01*
X64996Y389082D01*
X64601Y386080D01*
X64996Y383078D01*
X66155Y380280D01*
X67998Y377878D01*
X70400Y376035D01*
X73198Y374876D01*
X76200Y374481D01*
X79202Y374876D01*
X82000Y376035D01*
X84402Y377878D01*
X86245Y380280D01*
X87404Y383078D01*
X87799Y386080D01*
X87404Y389082D01*
X86245Y391880D01*
X84402Y394282D01*
X82000Y396125D01*
X79202Y397284D01*
X76200Y397679D01*
D02*
G37*
G36*
X88500Y377868D02*
X86159Y377402D01*
X84174Y376076D01*
X82848Y374091D01*
X82382Y371750D01*
X82848Y369409D01*
X84174Y367424D01*
X84422Y367259D01*
Y324491D01*
X84174Y324326D01*
X82848Y322341D01*
X82382Y320000D01*
X82848Y317659D01*
X84174Y315674D01*
X86159Y314348D01*
X88500Y313883D01*
X90841Y314348D01*
X92826Y315674D01*
X93712Y317000D01*
X97422D01*
Y281203D01*
X95909Y280902D01*
X93924Y279576D01*
X92598Y277591D01*
X92133Y275250D01*
X92598Y272909D01*
X93924Y270924D01*
X95909Y269598D01*
X98250Y269132D01*
X100591Y269598D01*
X102576Y270924D01*
X103902Y272909D01*
X104368Y275250D01*
X104310Y275542D01*
X104384Y275616D01*
X105268Y276939D01*
X105578Y278500D01*
X105578Y278500D01*
Y337311D01*
X113884Y345616D01*
X113884Y345616D01*
X114768Y346939D01*
X115078Y348500D01*
X115078Y348500D01*
Y365259D01*
X115326Y365424D01*
X116652Y367409D01*
X117118Y369750D01*
X116652Y372091D01*
X115326Y374076D01*
X113341Y375402D01*
X111000Y375868D01*
X92965D01*
X92826Y376076D01*
X90841Y377402D01*
X88500Y377868D01*
D02*
G37*
G36*
X304000Y246618D02*
X301659Y246152D01*
X299674Y244826D01*
X298348Y242841D01*
X297882Y240500D01*
X298348Y238159D01*
X299674Y236174D01*
X301659Y234848D01*
X304000Y234382D01*
X306341Y234848D01*
X308326Y236174D01*
X308537Y236195D01*
X325672Y219061D01*
Y211286D01*
X324402Y210855D01*
X323695Y211775D01*
X321398Y213538D01*
X318722Y214647D01*
X315850Y215025D01*
X312978Y214647D01*
X310303Y213538D01*
X308005Y211775D01*
X306977Y210436D01*
X306620Y210384D01*
X305494Y210589D01*
X304834Y211577D01*
X298097Y218314D01*
X296774Y219198D01*
X295213Y219508D01*
X295213Y219508D01*
X293816D01*
X293617Y219750D01*
X293152Y222091D01*
X291826Y224076D01*
X289841Y225402D01*
X287500Y225868D01*
X285159Y225402D01*
X283174Y224076D01*
X281848Y222091D01*
X281383Y219750D01*
X281848Y217409D01*
X283174Y215424D01*
X284346Y214641D01*
X284400Y214533D01*
X284499Y213986D01*
X284189Y212991D01*
X282605Y211775D01*
X280842Y209478D01*
X279733Y206802D01*
X279355Y203930D01*
Y199930D01*
X279733Y197058D01*
X279756Y197003D01*
X277831Y195078D01*
X245491D01*
X245326Y195326D01*
X243341Y196652D01*
X241000Y197118D01*
X238659Y196652D01*
X236674Y195326D01*
X235348Y193341D01*
X234883Y191000D01*
X235348Y188659D01*
X236674Y186674D01*
X238659Y185348D01*
X241000Y184883D01*
X243341Y185348D01*
X245326Y186674D01*
X245491Y186922D01*
X279520D01*
X279520Y186922D01*
X281081Y187232D01*
X282404Y188116D01*
X284736Y190449D01*
X284902Y190322D01*
X287578Y189213D01*
X290450Y188835D01*
X293322Y189213D01*
X293866Y189438D01*
X294922Y188733D01*
Y181939D01*
X289292Y176310D01*
X289000Y176367D01*
X286659Y175902D01*
X284674Y174576D01*
X283348Y172591D01*
X282882Y170250D01*
X283348Y167909D01*
X284674Y165924D01*
X286659Y164598D01*
X289000Y164132D01*
X291341Y164598D01*
X293326Y165924D01*
X294652Y167909D01*
X295117Y170250D01*
X295060Y170542D01*
X301884Y177366D01*
X301884Y177366D01*
X302768Y178689D01*
X303078Y180250D01*
Y190527D01*
X304834Y192283D01*
X304834Y192283D01*
X305494Y193271D01*
X306620Y193476D01*
X306977Y193424D01*
X308005Y192085D01*
X310303Y190322D01*
X312978Y189213D01*
X315850Y188835D01*
X318722Y189213D01*
X321398Y190322D01*
X323695Y192085D01*
X324402Y193005D01*
X325672Y192574D01*
Y181523D01*
X324548Y179841D01*
X324082Y177500D01*
X324548Y175159D01*
X325874Y173174D01*
X327859Y171848D01*
X330200Y171383D01*
X332541Y171848D01*
X334526Y173174D01*
X335852Y175159D01*
X336317Y177500D01*
X335852Y179841D01*
X334526Y181826D01*
X333828Y182292D01*
Y190324D01*
X334967Y190886D01*
X335703Y190322D01*
X338378Y189213D01*
X341250Y188835D01*
X344122Y189213D01*
X346797Y190322D01*
X349095Y192085D01*
X350858Y194382D01*
X351967Y197058D01*
X352345Y199930D01*
Y203930D01*
X351967Y206802D01*
X350858Y209478D01*
X349095Y211775D01*
X346797Y213538D01*
X344122Y214647D01*
X341250Y215025D01*
X338378Y214647D01*
X335703Y213538D01*
X334967Y212974D01*
X333828Y213536D01*
Y220750D01*
X333828Y220750D01*
X333518Y222311D01*
X332634Y223634D01*
X312884Y243384D01*
X311561Y244268D01*
X310000Y244578D01*
X310000Y244578D01*
X308491D01*
X308326Y244826D01*
X306341Y246152D01*
X304000Y246618D01*
D02*
G37*
G36*
X115500Y219118D02*
X113159Y218652D01*
X111174Y217326D01*
X109848Y215341D01*
X109382Y213000D01*
X109848Y210659D01*
X111174Y208674D01*
X111706Y208319D01*
X111732Y208189D01*
X112616Y206866D01*
X116866Y202616D01*
X116866Y202616D01*
X118189Y201732D01*
X119632Y201445D01*
X119955Y200926D01*
X120234Y200252D01*
X115792Y195809D01*
X115500Y195868D01*
X113159Y195402D01*
X111174Y194076D01*
X109848Y192091D01*
X109382Y189750D01*
X109848Y187409D01*
X111174Y185424D01*
X113159Y184098D01*
X115500Y183632D01*
X117841Y184098D01*
X119826Y185424D01*
X121152Y187409D01*
X121618Y189750D01*
X121559Y190042D01*
X127939Y196422D01*
X154758D01*
X155424Y195424D01*
X157409Y194098D01*
X159750Y193633D01*
X162091Y194098D01*
X164076Y195424D01*
X165402Y197409D01*
X165868Y199750D01*
X165455Y201822D01*
X166841Y202098D01*
X168826Y203424D01*
X170152Y205409D01*
X170618Y207750D01*
X170152Y210091D01*
X168826Y212076D01*
X166841Y213402D01*
X164500Y213867D01*
X162159Y213402D01*
X160174Y212076D01*
X159007Y210328D01*
X157058D01*
X155497Y210018D01*
X154839Y209578D01*
X121957D01*
X121306Y210452D01*
X121167Y210736D01*
X121617Y213000D01*
X121152Y215341D01*
X119826Y217326D01*
X117841Y218652D01*
X115500Y219118D01*
D02*
G37*
G36*
X206500Y210117D02*
X204159Y209652D01*
X202174Y208326D01*
X200466Y206618D01*
X181750D01*
X179409Y206152D01*
X177424Y204826D01*
X172674Y200076D01*
X171348Y198091D01*
X170882Y195750D01*
X171348Y193409D01*
X172674Y191424D01*
X174659Y190098D01*
X177000Y189632D01*
X179341Y190098D01*
X181326Y191424D01*
X184284Y194382D01*
X203000D01*
X205341Y194848D01*
X207326Y196174D01*
X210826Y199674D01*
X212152Y201659D01*
X212618Y204000D01*
X212152Y206341D01*
X210826Y208326D01*
X208841Y209652D01*
X206500Y210117D01*
D02*
G37*
G36*
X544450Y215025D02*
X541578Y214647D01*
X538903Y213538D01*
X536605Y211775D01*
X534841Y209478D01*
X533733Y206802D01*
X533355Y203930D01*
Y199930D01*
X533733Y197058D01*
X534841Y194382D01*
X536605Y192085D01*
X538903Y190322D01*
X541578Y189213D01*
X544450Y188835D01*
X547322Y189213D01*
X549997Y190322D01*
X552295Y192085D01*
X554058Y194382D01*
X555167Y197058D01*
X555545Y199930D01*
Y203930D01*
X555167Y206802D01*
X554058Y209478D01*
X552295Y211775D01*
X549997Y213538D01*
X547322Y214647D01*
X544450Y215025D01*
D02*
G37*
G36*
X519050D02*
X516178Y214647D01*
X513503Y213538D01*
X511205Y211775D01*
X509441Y209478D01*
X508333Y206802D01*
X507955Y203930D01*
Y199930D01*
X508333Y197058D01*
X509441Y194382D01*
X511205Y192085D01*
X513503Y190322D01*
X516178Y189213D01*
X519050Y188835D01*
X521922Y189213D01*
X524598Y190322D01*
X526895Y192085D01*
X528658Y194382D01*
X529767Y197058D01*
X530145Y199930D01*
Y203930D01*
X529767Y206802D01*
X528658Y209478D01*
X526895Y211775D01*
X524598Y213538D01*
X521922Y214647D01*
X519050Y215025D01*
D02*
G37*
G36*
X493650D02*
X490778Y214647D01*
X488102Y213538D01*
X485805Y211775D01*
X484041Y209478D01*
X482933Y206802D01*
X482555Y203930D01*
Y199930D01*
X482933Y197058D01*
X484041Y194382D01*
X485805Y192085D01*
X488102Y190322D01*
X490778Y189213D01*
X493650Y188835D01*
X496522Y189213D01*
X499198Y190322D01*
X501495Y192085D01*
X503259Y194382D01*
X504367Y197058D01*
X504745Y199930D01*
Y203930D01*
X504367Y206802D01*
X503259Y209478D01*
X501495Y211775D01*
X499198Y213538D01*
X496522Y214647D01*
X493650Y215025D01*
D02*
G37*
G36*
X468250D02*
X465378Y214647D01*
X462702Y213538D01*
X460405Y211775D01*
X458642Y209478D01*
X457533Y206802D01*
X457155Y203930D01*
Y199930D01*
X457533Y197058D01*
X458642Y194382D01*
X460405Y192085D01*
X462702Y190322D01*
X465378Y189213D01*
X468250Y188835D01*
X471122Y189213D01*
X473797Y190322D01*
X476095Y192085D01*
X477859Y194382D01*
X478967Y197058D01*
X479345Y199930D01*
Y203930D01*
X478967Y206802D01*
X477859Y209478D01*
X476095Y211775D01*
X473797Y213538D01*
X471122Y214647D01*
X468250Y215025D01*
D02*
G37*
G36*
X417450D02*
X414578Y214647D01*
X411903Y213538D01*
X409605Y211775D01*
X407841Y209478D01*
X406733Y206802D01*
X406355Y203930D01*
Y199930D01*
X406733Y197058D01*
X407841Y194382D01*
X409605Y192085D01*
X411903Y190322D01*
X414578Y189213D01*
X417450Y188835D01*
X420322Y189213D01*
X422998Y190322D01*
X425295Y192085D01*
X427058Y194382D01*
X428167Y197058D01*
X428545Y199930D01*
Y203930D01*
X428167Y206802D01*
X427058Y209478D01*
X425295Y211775D01*
X422998Y213538D01*
X420322Y214647D01*
X417450Y215025D01*
D02*
G37*
G36*
X392050D02*
X389178Y214647D01*
X386502Y213538D01*
X384205Y211775D01*
X382441Y209478D01*
X381333Y206802D01*
X380955Y203930D01*
Y199930D01*
X381333Y197058D01*
X382441Y194382D01*
X384205Y192085D01*
X386502Y190322D01*
X389178Y189213D01*
X392050Y188835D01*
X394922Y189213D01*
X397598Y190322D01*
X399895Y192085D01*
X401659Y194382D01*
X402767Y197058D01*
X403145Y199930D01*
Y203930D01*
X402767Y206802D01*
X401659Y209478D01*
X399895Y211775D01*
X397598Y213538D01*
X394922Y214647D01*
X392050Y215025D01*
D02*
G37*
G36*
X366650D02*
X363778Y214647D01*
X361102Y213538D01*
X358805Y211775D01*
X357042Y209478D01*
X355933Y206802D01*
X355555Y203930D01*
Y199930D01*
X355933Y197058D01*
X357042Y194382D01*
X358805Y192085D01*
X361102Y190322D01*
X363778Y189213D01*
X366650Y188835D01*
X369522Y189213D01*
X372197Y190322D01*
X374495Y192085D01*
X376259Y194382D01*
X377367Y197058D01*
X377745Y199930D01*
Y203930D01*
X377367Y206802D01*
X376259Y209478D01*
X374495Y211775D01*
X372197Y213538D01*
X369522Y214647D01*
X366650Y215025D01*
D02*
G37*
G36*
X544450Y138825D02*
X541578Y138447D01*
X538903Y137338D01*
X536605Y135575D01*
X534841Y133278D01*
X533733Y130602D01*
X533355Y127730D01*
Y123730D01*
X533733Y120858D01*
X534841Y118182D01*
X536605Y115885D01*
X538903Y114122D01*
X541578Y113013D01*
X544450Y112635D01*
X547322Y113013D01*
X549997Y114122D01*
X552295Y115885D01*
X554058Y118182D01*
X555167Y120858D01*
X555545Y123730D01*
Y127730D01*
X555167Y130602D01*
X554058Y133278D01*
X552295Y135575D01*
X549997Y137338D01*
X547322Y138447D01*
X544450Y138825D01*
D02*
G37*
G36*
X442850D02*
X439978Y138447D01*
X437303Y137338D01*
X435005Y135575D01*
X433242Y133278D01*
X432133Y130602D01*
X431755Y127730D01*
Y123730D01*
X432133Y120858D01*
X433242Y118182D01*
X435005Y115885D01*
X437303Y114122D01*
X439978Y113013D01*
X442850Y112635D01*
X445722Y113013D01*
X448397Y114122D01*
X450695Y115885D01*
X452458Y118182D01*
X453567Y120858D01*
X453945Y123730D01*
Y127730D01*
X453567Y130602D01*
X452458Y133278D01*
X450695Y135575D01*
X448397Y137338D01*
X445722Y138447D01*
X442850Y138825D01*
D02*
G37*
G36*
X417450D02*
X414578Y138447D01*
X411903Y137338D01*
X409605Y135575D01*
X407841Y133278D01*
X406733Y130602D01*
X406355Y127730D01*
Y123730D01*
X406733Y120858D01*
X407841Y118182D01*
X409605Y115885D01*
X411903Y114122D01*
X414578Y113013D01*
X417450Y112635D01*
X420322Y113013D01*
X422998Y114122D01*
X425295Y115885D01*
X427058Y118182D01*
X428167Y120858D01*
X428545Y123730D01*
Y127730D01*
X428167Y130602D01*
X427058Y133278D01*
X425295Y135575D01*
X422998Y137338D01*
X420322Y138447D01*
X417450Y138825D01*
D02*
G37*
G36*
X392050D02*
X389178Y138447D01*
X386502Y137338D01*
X384205Y135575D01*
X382441Y133278D01*
X381333Y130602D01*
X380955Y127730D01*
Y123730D01*
X381333Y120858D01*
X382441Y118182D01*
X384205Y115885D01*
X386502Y114122D01*
X389178Y113013D01*
X392050Y112635D01*
X394922Y113013D01*
X397598Y114122D01*
X399895Y115885D01*
X401659Y118182D01*
X402767Y120858D01*
X403145Y123730D01*
Y127730D01*
X402767Y130602D01*
X401659Y133278D01*
X399895Y135575D01*
X397598Y137338D01*
X394922Y138447D01*
X392050Y138825D01*
D02*
G37*
G36*
X366650D02*
X363778Y138447D01*
X361102Y137338D01*
X358805Y135575D01*
X357042Y133278D01*
X355933Y130602D01*
X355555Y127730D01*
Y123730D01*
X355933Y120858D01*
X357042Y118182D01*
X358805Y115885D01*
X361102Y114122D01*
X363778Y113013D01*
X366650Y112635D01*
X369522Y113013D01*
X372197Y114122D01*
X374495Y115885D01*
X376259Y118182D01*
X377367Y120858D01*
X377745Y123730D01*
Y127730D01*
X377367Y130602D01*
X376259Y133278D01*
X374495Y135575D01*
X372197Y137338D01*
X369522Y138447D01*
X366650Y138825D01*
D02*
G37*
G36*
X341250D02*
X338378Y138447D01*
X335703Y137338D01*
X333405Y135575D01*
X331642Y133278D01*
X330533Y130602D01*
X330155Y127730D01*
Y123730D01*
X330533Y120858D01*
X331642Y118182D01*
X333405Y115885D01*
X335703Y114122D01*
X338378Y113013D01*
X341250Y112635D01*
X344122Y113013D01*
X346797Y114122D01*
X349095Y115885D01*
X350858Y118182D01*
X351967Y120858D01*
X352345Y123730D01*
Y127730D01*
X351967Y130602D01*
X350858Y133278D01*
X349095Y135575D01*
X346797Y137338D01*
X344122Y138447D01*
X341250Y138825D01*
D02*
G37*
G36*
X315850D02*
X312978Y138447D01*
X310303Y137338D01*
X308005Y135575D01*
X306241Y133278D01*
X305133Y130602D01*
X304755Y127730D01*
Y123730D01*
X305133Y120858D01*
X306241Y118182D01*
X308005Y115885D01*
X310303Y114122D01*
X312978Y113013D01*
X315850Y112635D01*
X318722Y113013D01*
X321398Y114122D01*
X323695Y115885D01*
X325458Y118182D01*
X326567Y120858D01*
X326945Y123730D01*
Y127730D01*
X326567Y130602D01*
X325458Y133278D01*
X323695Y135575D01*
X321398Y137338D01*
X318722Y138447D01*
X315850Y138825D01*
D02*
G37*
G36*
X290450D02*
X287578Y138447D01*
X284902Y137338D01*
X282605Y135575D01*
X280842Y133278D01*
X279733Y130602D01*
X279355Y127730D01*
Y123730D01*
X279733Y120858D01*
X280842Y118182D01*
X282605Y115885D01*
X284902Y114122D01*
X287578Y113013D01*
X290450Y112635D01*
X293322Y113013D01*
X295998Y114122D01*
X298295Y115885D01*
X300058Y118182D01*
X301167Y120858D01*
X301545Y123730D01*
Y127730D01*
X301167Y130602D01*
X300058Y133278D01*
X298295Y135575D01*
X295998Y137338D01*
X293322Y138447D01*
X290450Y138825D01*
D02*
G37*
G36*
X148000Y431695D02*
X144000D01*
X141128Y431317D01*
X138453Y430209D01*
X136155Y428445D01*
X134391Y426147D01*
X133283Y423472D01*
X132905Y420600D01*
X133283Y417728D01*
X134391Y415053D01*
X136155Y412755D01*
X138453Y410992D01*
X141128Y409883D01*
X144000Y409505D01*
X148000D01*
X150872Y409883D01*
X153547Y410992D01*
X155845Y412755D01*
X157608Y415053D01*
X158717Y417728D01*
X159095Y420600D01*
X158717Y423472D01*
X157608Y426147D01*
X155845Y428445D01*
X153547Y430209D01*
X150872Y431317D01*
X148000Y431695D01*
D02*
G37*
G36*
Y406295D02*
X144000D01*
X141128Y405917D01*
X138453Y404809D01*
X136155Y403045D01*
X134391Y400747D01*
X133283Y398072D01*
X132905Y395200D01*
X133283Y392328D01*
X134391Y389653D01*
X136155Y387355D01*
X138453Y385592D01*
X141128Y384483D01*
X144000Y384105D01*
X148000D01*
X150872Y384483D01*
X153547Y385592D01*
X155845Y387355D01*
X157608Y389653D01*
X158717Y392328D01*
X159095Y395200D01*
X158717Y398072D01*
X157608Y400747D01*
X155845Y403045D01*
X153547Y404809D01*
X150872Y405917D01*
X148000Y406295D01*
D02*
G37*
G36*
X36900Y483940D02*
X13900D01*
Y460940D01*
X36900D01*
Y483940D01*
D02*
G37*
G36*
Y397580D02*
X13900D01*
Y374580D01*
X36900D01*
Y397580D01*
D02*
G37*
G36*
X25400Y353599D02*
X22398Y353204D01*
X19600Y352045D01*
X17198Y350202D01*
X15355Y347800D01*
X14196Y345002D01*
X13801Y342000D01*
X14196Y338998D01*
X15355Y336200D01*
X17198Y333798D01*
X19600Y331955D01*
X22398Y330796D01*
X25400Y330401D01*
X28402Y330796D01*
X31200Y331955D01*
X33602Y333798D01*
X35445Y336200D01*
X36604Y338998D01*
X36999Y342000D01*
X36604Y345002D01*
X35445Y347800D01*
X33602Y350202D01*
X31200Y352045D01*
X28402Y353204D01*
X25400Y353599D01*
D02*
G37*
G36*
Y328199D02*
X22398Y327804D01*
X19600Y326645D01*
X17198Y324802D01*
X15355Y322400D01*
X14196Y319602D01*
X13801Y316600D01*
X14196Y313598D01*
X15355Y310800D01*
X17198Y308398D01*
X19600Y306555D01*
X22398Y305396D01*
X25400Y305001D01*
X28402Y305396D01*
X31200Y306555D01*
X33602Y308398D01*
X35445Y310800D01*
X36604Y313598D01*
X36999Y316600D01*
X36604Y319602D01*
X35445Y322400D01*
X33602Y324802D01*
X31200Y326645D01*
X28402Y327804D01*
X25400Y328199D01*
D02*
G37*
G36*
X28395Y243057D02*
X15595D01*
X13872Y242830D01*
X12266Y242165D01*
X10888Y241107D01*
X9830Y239729D01*
X9165Y238123D01*
X8938Y236400D01*
Y231600D01*
X9165Y229877D01*
X9830Y228272D01*
X10888Y226893D01*
X12266Y225835D01*
X13872Y225170D01*
X15595Y224943D01*
X28395D01*
X30118Y225170D01*
X31723Y225835D01*
X33102Y226893D01*
X34160Y228272D01*
X34825Y229877D01*
X35052Y231600D01*
Y236400D01*
X34825Y238123D01*
X34160Y239729D01*
X33102Y241107D01*
X31723Y242165D01*
X30118Y242830D01*
X28395Y243057D01*
D02*
G37*
G36*
X519000Y38400D02*
X497000D01*
Y12400D01*
X519000D01*
Y38400D01*
D02*
G37*
G36*
X584200Y38495D02*
X581328Y38117D01*
X578652Y37009D01*
X576355Y35245D01*
X574591Y32947D01*
X573483Y30272D01*
X573105Y27400D01*
Y23400D01*
X573483Y20528D01*
X574591Y17852D01*
X576355Y15555D01*
X578652Y13792D01*
X581328Y12683D01*
X584200Y12305D01*
X587072Y12683D01*
X589748Y13792D01*
X592045Y15555D01*
X593809Y17852D01*
X594917Y20528D01*
X595295Y23400D01*
Y27400D01*
X594917Y30272D01*
X593809Y32947D01*
X592045Y35245D01*
X589748Y37009D01*
X587072Y38117D01*
X584200Y38495D01*
D02*
G37*
G36*
X558800D02*
X555928Y38117D01*
X553252Y37009D01*
X550955Y35245D01*
X549192Y32947D01*
X548083Y30272D01*
X547705Y27400D01*
Y23400D01*
X548083Y20528D01*
X549192Y17852D01*
X550955Y15555D01*
X553252Y13792D01*
X555928Y12683D01*
X558800Y12305D01*
X561672Y12683D01*
X564347Y13792D01*
X566645Y15555D01*
X568409Y17852D01*
X569517Y20528D01*
X569895Y23400D01*
Y27400D01*
X569517Y30272D01*
X568409Y32947D01*
X566645Y35245D01*
X564347Y37009D01*
X561672Y38117D01*
X558800Y38495D01*
D02*
G37*
G36*
X533400D02*
X530528Y38117D01*
X527853Y37009D01*
X525555Y35245D01*
X523792Y32947D01*
X522683Y30272D01*
X522305Y27400D01*
Y23400D01*
X522683Y20528D01*
X523792Y17852D01*
X525555Y15555D01*
X527853Y13792D01*
X530528Y12683D01*
X533400Y12305D01*
X536272Y12683D01*
X538947Y13792D01*
X541245Y15555D01*
X543008Y17852D01*
X544117Y20528D01*
X544495Y23400D01*
Y27400D01*
X544117Y30272D01*
X543008Y32947D01*
X541245Y35245D01*
X538947Y37009D01*
X536272Y38117D01*
X533400Y38495D01*
D02*
G37*
G36*
X457200D02*
X454328Y38117D01*
X451652Y37009D01*
X449355Y35245D01*
X447592Y32947D01*
X446483Y30272D01*
X446105Y27400D01*
Y23400D01*
X446483Y20528D01*
X447592Y17852D01*
X449355Y15555D01*
X451652Y13792D01*
X454328Y12683D01*
X457200Y12305D01*
X460072Y12683D01*
X462747Y13792D01*
X465045Y15555D01*
X466809Y17852D01*
X467917Y20528D01*
X468295Y23400D01*
Y27400D01*
X467917Y30272D01*
X466809Y32947D01*
X465045Y35245D01*
X462747Y37009D01*
X460072Y38117D01*
X457200Y38495D01*
D02*
G37*
G36*
X431800D02*
X428928Y38117D01*
X426253Y37009D01*
X423955Y35245D01*
X422192Y32947D01*
X421083Y30272D01*
X420705Y27400D01*
Y23400D01*
X421083Y20528D01*
X422192Y17852D01*
X423955Y15555D01*
X426253Y13792D01*
X428928Y12683D01*
X431800Y12305D01*
X434672Y12683D01*
X437347Y13792D01*
X439645Y15555D01*
X441409Y17852D01*
X442517Y20528D01*
X442895Y23400D01*
Y27400D01*
X442517Y30272D01*
X441409Y32947D01*
X439645Y35245D01*
X437347Y37009D01*
X434672Y38117D01*
X431800Y38495D01*
D02*
G37*
G36*
X493650Y138825D02*
X490778Y138447D01*
X488102Y137338D01*
X485805Y135575D01*
X484041Y133278D01*
X482933Y130602D01*
X482555Y127730D01*
Y123730D01*
X482933Y120858D01*
X484041Y118182D01*
X485805Y115885D01*
X488102Y114122D01*
X490778Y113013D01*
X493650Y112635D01*
X496522Y113013D01*
X499198Y114122D01*
X501495Y115885D01*
X503259Y118182D01*
X504367Y120858D01*
X504745Y123730D01*
Y127730D01*
X504367Y130602D01*
X503259Y133278D01*
X501495Y135575D01*
X499198Y137338D01*
X496522Y138447D01*
X493650Y138825D01*
D02*
G37*
%LPD*%
D10*
X623000Y260000D02*
Y314209D01*
X601138Y336070D02*
X623000Y314209D01*
X601138Y336070D02*
Y417862D01*
X323000Y364000D02*
Y375000D01*
X230750Y364000D02*
X323000D01*
X241000Y191000D02*
X279520D01*
X290450Y201930D01*
X662000Y213250D02*
X668250Y207000D01*
X662000Y213250D02*
Y257500D01*
X642000Y277500D02*
X662000Y257500D01*
X668250Y161750D02*
Y207000D01*
X632489Y273452D02*
X655000Y250941D01*
Y160080D02*
Y250941D01*
X620650Y125730D02*
X655000Y160080D01*
X610000Y337778D02*
X632489Y315289D01*
Y273452D02*
Y315289D01*
X601000Y439000D02*
X610000Y430000D01*
Y337778D02*
Y430000D01*
X623000Y260000D02*
X635858Y247142D01*
Y193250D02*
Y247142D01*
X628250Y185642D02*
X635858Y193250D01*
X628250Y172258D02*
Y185642D01*
X591000Y428000D02*
X601138Y417862D01*
X354536Y428000D02*
X591000D01*
X324500Y458036D02*
X354536Y428000D01*
X123729Y468271D02*
X146000Y446000D01*
X80369Y468271D02*
X123729D01*
X76200Y472440D02*
X80369Y468271D01*
X575558Y396308D02*
X578250Y399000D01*
X563255Y403505D02*
X567750Y408000D01*
X314000Y403505D02*
X563255D01*
X293192Y396308D02*
X575558D01*
X351000Y439000D02*
X601000D01*
X331000Y459000D02*
X351000Y439000D01*
X314000Y403505D02*
Y444000D01*
X548621Y379000D02*
X555429Y385808D01*
X543237Y379000D02*
X548621D01*
X539237Y375000D02*
X543237Y379000D01*
X323000Y375000D02*
X539237D01*
X547429Y390000D02*
X548929Y388500D01*
X308192Y390000D02*
X547429D01*
X298192Y380000D02*
X308192Y390000D01*
X310863Y478250D02*
X331000D01*
Y459000D02*
Y478250D01*
X324500Y458036D02*
Y468271D01*
X319521Y473250D02*
X324500Y468271D01*
X308792Y473250D02*
X319521D01*
X308042Y474000D02*
X308792Y473250D01*
X302000Y456000D02*
X314000Y444000D01*
X156000Y456000D02*
X302000D01*
X146000Y446000D02*
X156000Y456000D01*
X310113Y479000D02*
X310863Y478250D01*
X253000Y479000D02*
X310113D01*
X252660Y479340D02*
X253000Y479000D01*
X247360Y474000D02*
X308042D01*
X213360Y508000D02*
X247360Y474000D01*
X252660Y479340D02*
Y512590D01*
X619900Y338824D02*
X642000Y316724D01*
Y277500D02*
Y316724D01*
X111000Y348500D02*
Y369750D01*
X102000Y339500D02*
X111000Y348500D01*
X281750Y407750D02*
X293192Y396308D01*
X595250Y139258D02*
X628250Y172258D01*
X595250Y125730D02*
Y139258D01*
X88500Y320000D02*
Y371750D01*
X101500Y278500D02*
Y339500D01*
X102000D01*
X98250Y275250D02*
X101500Y278500D01*
X287500Y217243D02*
Y219750D01*
Y217243D02*
X289314Y215430D01*
X295213D01*
X301950Y208693D01*
Y195167D02*
Y208693D01*
X299000Y192217D02*
X301950Y195167D01*
X299000Y180250D02*
Y192217D01*
X289000Y170250D02*
X299000Y180250D01*
X304000Y240500D02*
X310000D01*
X329750Y220750D01*
Y177950D02*
Y220750D01*
Y177950D02*
X330200Y177500D01*
X159000Y200500D02*
X159750Y199750D01*
X126250Y200500D02*
X159000D01*
X157058Y206250D02*
X163000D01*
X164500Y207750D01*
X156308Y205500D02*
X157058Y206250D01*
X119750Y205500D02*
X156308D01*
X115500Y189750D02*
X126250Y200500D01*
X115500Y209750D02*
X119750Y205500D01*
X115500Y209750D02*
Y213000D01*
X304500Y486500D02*
X314960Y496960D01*
X277250Y486500D02*
X304500D01*
X314960Y496960D02*
Y508000D01*
X619900Y338824D02*
Y441900D01*
X620000Y442000D01*
X555429Y385808D02*
X576192D01*
X576500Y385500D01*
X218123Y521500D02*
X223373Y516250D01*
X243750Y521500D02*
X252660Y512590D01*
X233997Y521500D02*
X243750D01*
X228747Y516250D02*
X233997Y521500D01*
X223373Y516250D02*
X228747D01*
X207000Y387750D02*
X230750Y364000D01*
X288750Y370750D02*
X298000Y380000D01*
X298192D01*
X187960Y508000D02*
X201460Y521500D01*
X218123D01*
D11*
X591750Y175500D02*
X603000D01*
X607250Y179750D01*
Y193752D01*
X607750Y194252D01*
Y214500D01*
X607250Y215000D02*
X607750Y214500D01*
D15*
X245000Y81750D02*
D03*
D61*
X610000Y263000D02*
D03*
Y308000D02*
D03*
X675000D02*
D03*
X245000Y16750D02*
D03*
X200000D02*
D03*
Y81750D02*
D03*
D62*
X675000Y263000D02*
D03*
D70*
X578750Y419250D02*
X591000Y407000D01*
X329265Y419250D02*
X578750D01*
X329265D02*
Y441250D01*
X591620Y396151D02*
X591750Y396021D01*
X591000Y407000D02*
X591620Y396151D01*
X591750Y247250D02*
Y396021D01*
X305271Y464750D02*
X316000D01*
Y454515D02*
X329265Y441250D01*
X316000Y454515D02*
Y464750D01*
X304521Y465500D02*
X305271Y464750D01*
X239750Y465500D02*
X304521D01*
X226000Y479250D02*
X239750Y465500D01*
X591750Y247250D02*
X606535Y232465D01*
Y215715D02*
Y232465D01*
X226000Y479250D02*
Y479750D01*
D72*
X177000Y195750D02*
X181750Y200500D01*
X203000D02*
X206500Y204000D01*
X181750Y200500D02*
X203000D01*
D73*
X167000Y88000D02*
D03*
X141600D02*
D03*
X187960Y508000D02*
D03*
X213360D02*
D03*
X238760D02*
D03*
X264160D02*
D03*
X289560D02*
D03*
X314960D02*
D03*
X340360D02*
D03*
X365760D02*
D03*
X391160D02*
D03*
X457200D02*
D03*
X482600D02*
D03*
X508000D02*
D03*
X533400D02*
D03*
X558800D02*
D03*
X584200D02*
D03*
X609600D02*
D03*
X635000Y25400D02*
D03*
X609600D02*
D03*
X584200D02*
D03*
X558800D02*
D03*
X533400D02*
D03*
X457200D02*
D03*
X431800D02*
D03*
X406400D02*
D03*
X381000D02*
D03*
X355600D02*
D03*
X330200D02*
D03*
X304800D02*
D03*
X595250Y201930D02*
D03*
X569850D02*
D03*
X544450D02*
D03*
X519050D02*
D03*
X493650D02*
D03*
X468250D02*
D03*
X442850D02*
D03*
X417450D02*
D03*
X392050D02*
D03*
X366650D02*
D03*
X341250D02*
D03*
X315850D02*
D03*
X290450D02*
D03*
X620650Y125730D02*
D03*
X595250D02*
D03*
X569850D02*
D03*
X544450D02*
D03*
X519050D02*
D03*
X493650D02*
D03*
X468250D02*
D03*
X442850D02*
D03*
X417450D02*
D03*
X392050D02*
D03*
X366650D02*
D03*
X341250D02*
D03*
X315850D02*
D03*
X290450D02*
D03*
D74*
X116200Y88000D02*
D03*
X416560Y508000D02*
D03*
X635000D02*
D03*
X508000Y25400D02*
D03*
X279400D02*
D03*
X620650Y201930D02*
D03*
D75*
X146000Y446000D02*
D03*
X662000Y469000D02*
D03*
D76*
X146000Y420600D02*
D03*
Y395200D02*
D03*
Y369800D02*
D03*
X662000Y418200D02*
D03*
Y443600D02*
D03*
D77*
X25400Y316600D02*
D03*
X50800D02*
D03*
X25400Y342000D02*
D03*
X76200Y411480D02*
D03*
X50800D02*
D03*
X25400D02*
D03*
X76200Y386080D02*
D03*
X50800D02*
D03*
X76200Y497840D02*
D03*
X50800D02*
D03*
X25400D02*
D03*
X76200Y472440D02*
D03*
X50800D02*
D03*
D78*
Y342000D02*
D03*
X25400Y386080D02*
D03*
Y472440D02*
D03*
D79*
X21995Y234000D02*
D03*
Y168000D02*
D03*
D80*
X152400Y508000D02*
D03*
D81*
X21000Y30000D02*
D03*
Y137000D02*
D03*
D82*
X139700Y25400D02*
D03*
X660400Y76200D02*
D03*
Y355600D02*
D03*
D83*
X113000Y156000D02*
D03*
X114530Y165000D02*
D03*
X139237Y174500D02*
D03*
Y182500D02*
D03*
X147700Y175000D02*
D03*
Y182500D02*
D03*
X362000Y487000D02*
D03*
X355000D02*
D03*
X304000Y341000D02*
D03*
X355000Y481000D02*
D03*
X320250Y356750D02*
D03*
X314500Y351750D02*
D03*
X241000Y191000D02*
D03*
X578000Y371750D02*
D03*
X570000Y379000D02*
D03*
X606750Y73500D02*
D03*
X451314Y147000D02*
D03*
X415000Y68285D02*
D03*
X423000Y61750D02*
D03*
X332000Y60703D02*
D03*
X112050Y405600D02*
D03*
X119000Y412000D02*
D03*
X165000Y141750D02*
D03*
X177000Y195750D02*
D03*
X61500Y440250D02*
D03*
X95000Y177250D02*
D03*
X81750Y291000D02*
D03*
X635750Y181750D02*
D03*
X308250Y346750D02*
D03*
X362000Y481000D02*
D03*
X570000Y371500D02*
D03*
X446250Y217750D02*
D03*
X477500Y253000D02*
D03*
X391500D02*
D03*
X106500Y249750D02*
D03*
X141600Y224000D02*
D03*
X149750Y274250D02*
D03*
X173750Y208750D02*
D03*
X196250D02*
D03*
X232500Y201750D02*
D03*
X259500Y249750D02*
D03*
X220000Y248250D02*
D03*
X182250Y288000D02*
D03*
X216750Y335592D02*
D03*
X267750Y346750D02*
D03*
X200000Y437000D02*
D03*
X188750Y414000D02*
D03*
X55500Y522000D02*
D03*
X644000Y172500D02*
D03*
X681500Y127000D02*
D03*
X458750Y85160D02*
D03*
X458000Y111250D02*
D03*
X416500Y61000D02*
D03*
X395500Y84250D02*
D03*
X404500Y111830D02*
D03*
X371250Y67500D02*
D03*
X305000Y84500D02*
D03*
X194750Y140000D02*
D03*
X231000Y132000D02*
D03*
X208000Y131750D02*
D03*
X160400Y131000D02*
D03*
X79750Y249000D02*
D03*
X80000Y225000D02*
D03*
X303000Y424750D02*
D03*
X223500Y446500D02*
D03*
X172000Y419250D02*
D03*
X126500Y406250D02*
D03*
X11000Y283750D02*
D03*
X40750Y283000D02*
D03*
X290000Y67000D02*
D03*
X319500Y67500D02*
D03*
X445500Y48500D02*
D03*
X466500Y40250D02*
D03*
X616750Y62500D02*
D03*
X88500Y320000D02*
D03*
Y371750D02*
D03*
X98250Y275250D02*
D03*
X111000Y369750D02*
D03*
X287500Y219750D02*
D03*
X330200Y177500D02*
D03*
X475000Y91500D02*
D03*
X206500Y204000D02*
D03*
X159750Y199750D02*
D03*
X164500Y207750D02*
D03*
X86500Y111250D02*
D03*
Y101250D02*
D03*
X59250Y216750D02*
D03*
Y229250D02*
D03*
X115500Y189750D02*
D03*
X115500Y213000D02*
D03*
X277250Y486500D02*
D03*
X620000Y442000D02*
D03*
X567750Y408000D02*
D03*
X578250Y399000D02*
D03*
X576500Y385500D02*
D03*
X226000Y479750D02*
D03*
X591750Y175500D02*
D03*
X207000Y387750D02*
D03*
X288750Y370750D02*
D03*
X281750Y407750D02*
D03*
X548929Y388500D02*
D03*
X668250Y161750D02*
D03*
X304000Y240500D02*
D03*
X289000Y170250D02*
D03*
M02*
