M48
;Layer_Color=9474304
;FILE_FORMAT=4:4
METRIC,LZ
;TYPE=PLATED
T1F00S00C0.3000
T3F00S00C1.0000
T4F00S00C1.1000
T5F00S00C1.5000
T6F00S00C3.2000
;TYPE=NON_PLATED
T7F00S00C3.2000
%
T01
X00332Y00060703
X0037125Y000675
X003955Y0008425
X00415Y00068285
X004165Y00061
X00423Y0006175
X004455Y000485
X004665Y0004025
X0045875Y0008516
X00475Y000915
X00458Y0011125
X00451314Y00147
X0044625Y0021775
X004775Y00253
X003915
X003302Y001775
X004045Y0011183
X0060675Y000735
X0061675Y000625
X006815Y00127
X0066825Y0016175
X00644Y001725
X0063575Y0018175
X0059175Y001755
X00289Y0017025
X002875Y0021975
X00304Y002405
X002595Y0024975
X0022Y0024825
X002065Y00204
X0019625Y0020875
X0017375
X001645Y0020775
X0015975Y0019975
X00177Y0019575
X001477Y001825
Y00175
X00139237Y001745
Y001825
X001155Y0018975
X001155Y00213
X001416Y00224
X0014975Y0027425
X0018225Y00288
X0009825Y0027525
X0008175Y00291
X000885Y0032
X0007975Y00249
X0008Y00225
X0005925Y0022925
Y0021675
X00095Y0017725
X0011453Y00165
X00113Y00156
X00165Y0014175
X001604Y00131
X0019475Y0014
X00208Y0013175
X00231Y00132
X00241Y00191
X002325Y0020175
X001065Y0024975
X0004075Y00283
X00011Y0028375
X000865Y0011125
Y0010125
X00305Y000845
X003195Y000675
X0029Y00067
X00304Y00341
X0030825Y0034675
X003145Y0035175
X0032025Y0035675
X0028875Y0037075
X0028175Y0040775
X00303Y0042475
X0027725Y004865
X00226Y0047975
X002235Y004465
X002Y00437
X0018875Y00414
X00172Y0041925
X001265Y0040625
X00119Y00412
X0011205Y004056
X00111Y0036975
X000885Y0037175
X000615Y0044025
X000555Y00522
X00207Y0038775
X0021675Y00335592
X0026775Y0034675
X00355Y00481
Y00487
X00362
Y00481
X0056775Y00408
X0057825Y00399
X005765Y003855
X0057Y00379
X0057Y003715
X00578Y0037175
X00548929Y003885
X0062Y00442
T03
X0061Y00263
Y00308
X00675
Y00263
X00245Y0008175
X002
Y0001675
X00245
T04
X003302Y000254
X003556
X00381
X004064
X004318
X004572
X00508
X005334
X005588
X005842
X006096
X00635
X0062065Y0012573
X0059525
X0056985
X0054445
X0051905
X0049365
X0046825
X0044285
X0041745
X0039205
X0036665
X0034125
Y0020193
X0036665
X0039205
X0041745
X0044285
X0046825
X0049365
X0051905
X0054445
X0056985
X0059525
X0062065
X0031585
X0029045
Y0012573
X0031585
X003048Y000254
X002794
X00167Y00088
X001416
X001162
X000508Y003166
X000254
Y00342
X000508
Y0038608
Y0041148
X000762
Y0038608
X000254
Y0041148
Y0047244
Y0049784
X000508
X000762
Y0047244
X000508
X00146Y00446
Y004206
Y003952
Y003698
X0018796Y00508
X0021336
X0023876
X0026416
X0028956
X0031496
X0034036
X0036576
X0039116
X0041656
X004572
X004826
X00508
X005334
X005588
X005842
X006096
X00635
X00662Y00469
Y004436
Y004182
T05
X00021Y0003
Y00137
T06
X006604Y000762
X001397Y000254
X006604Y003556
T07
X001524Y00508
M30
